
<svg id="Layer_1" data-name="Layer 1" xmlns="http://www.w3.org/2000/svg" viewBox="0 0 1752.53 1341.35"><defs><style>.cls-1,.cls-10,.cls-11,.cls-12,.cls-2,.cls-3,.cls-4,.cls-5,.cls-6,.cls-7,.cls-8,.cls-9{fill:none;}.cls-1,.cls-8{stroke:#7c66ff;}.cls-1,.cls-10,.cls-11,.cls-2,.cls-5,.cls-6,.cls-7,.cls-9{stroke-linecap:round;stroke-linejoin:round;}.cls-1,.cls-5{stroke-width:3px;}.cls-2,.cls-5{stroke:#e81951;}.cls-10,.cls-11,.cls-12,.cls-2,.cls-3,.cls-4,.cls-6,.cls-7,.cls-8,.cls-9{stroke-width:2px;}.cls-3,.cls-6{stroke:#75cc86;}.cls-12,.cls-3,.cls-4,.cls-8{stroke-miterlimit:10;}.cls-4{stroke:#acff0b;}.cls-7{stroke:#e81cf9;}.cls-9{stroke:#ff682c;}.cls-10{stroke:#49f2e6;}.cls-11{stroke:#6ee264;}.cls-12{stroke:#8886e2;}</style></defs><line class="cls-1" x1="20.15" y1="19.44" x2="5.83" y2="1.5"/><line class="cls-1" x1="20.15" y1="19.44" x2="34.48" y2="37.38"/><line class="cls-1" x1="2.22" y1="33.76" x2="20.15" y2="19.44"/><line class="cls-1" x1="38.09" y1="5.12" x2="20.15" y2="19.44"/><polyline class="cls-2" points="112.99 83.43 100.55 75.83 108.51 62.81 95.41 54.81 103.46 41.64"/><rect class="cls-3" x="182.46" y="-76.51" width="36.47" height="36.47" transform="translate(442.1 63.61) rotate(-156.11)"/><rect class="cls-4" x="304.24" y="-69.47" width="46.93" height="46.93" transform="translate(665.51 -84.01) rotate(164.5)"/><line class="cls-5" x1="337.45" y1="376.81" x2="331.02" y2="343.26"/><line class="cls-5" x1="337.45" y1="376.81" x2="343.88" y2="410.36"/><line class="cls-5" x1="303.9" y1="383.24" x2="337.45" y2="376.81"/><line class="cls-5" x1="371.01" y1="370.38" x2="337.45" y2="376.81"/><polyline class="cls-6" points="36.02 100.56 42.09 119.76 21.99 126.12 28.38 146.33 8.05 152.76"/><path class="cls-7" d="M229.45,57.11c-5.66,14.27-21.44,21-34.06,16.26-13.87-5.21-21.18-23.24-13.3-38.26" transform="translate(34.31 93.89)"/><rect class="cls-8" x="-8.54" y="239.2" width="46.93" height="46.93" transform="translate(159.05 595.62) rotate(158.58)"/><path class="cls-6" d="M79.73,198.4c-7,1.9-14.11-2.2-15.9-8.37-2-6.78,2.83-14.7,10.81-16" transform="translate(34.31 93.89)"/><polygon class="cls-9" points="223.16 281.41 235.23 239.24 192.68 249.87 223.16 281.41"/><path class="cls-10" d="M347.17,204.65c-13.73-6.85-19.1-23.14-13.3-35.31,6.36-13.38,24.95-19.14,39.25-10" transform="translate(34.31 93.89)"/><circle class="cls-11" cx="162.56" cy="208.47" r="21.13"/><rect class="cls-8" x="-28.58" y="124.49" width="22.16" height="22.16" transform="translate(118.3 321.03) rotate(124.7)"/><rect class="cls-12" x="110.35" y="286.24" width="46.93" height="46.93" transform="translate(490.14 302.96) rotate(96.01)"/><path class="cls-5" d="M363.32,72.64c2.13,7-1.74,14.18-7.85,16.17-6.71,2.18-14.78-2.36-16.31-10.29" transform="translate(34.31 93.89)"/><circle class="cls-11" cx="287.65" cy="236.06" r="13.41"/><path class="cls-7" d="M239.63,45.09c-5.55-7.46-4-17.74,2.47-22.74,7.11-5.5,18.74-3.53,24,5.33" transform="translate(34.31 93.89)"/><polyline class="cls-12" points="401.19 378.71 386.96 375.56 390.26 360.65 375.28 357.34 378.61 342.27"/><line class="cls-1" x1="452.07" y1="36.44" x2="431.68" y2="25.89"/><line class="cls-1" x1="452.07" y1="36.44" x2="472.46" y2="46.98"/><line class="cls-1" x1="441.53" y1="56.83" x2="452.07" y2="36.44"/><line class="cls-1" x1="462.62" y1="16.05" x2="452.07" y2="36.44"/><polyline class="cls-2" points="549.23 102.78 536.43 95.8 543.74 82.4 530.27 75.05 537.65 61.5"/><rect class="cls-3" x="583.4" y="-70.21" width="36.47" height="36.47" transform="translate(1216.69 -123.6) rotate(169.03)"/><rect class="cls-4" x="710.75" y="-57.09" width="46.93" height="46.93" transform="translate(1497.79 -31.26) rotate(175.47)"/><line class="cls-5" x1="748.53" y1="388.71" x2="727.95" y2="361.44"/><line class="cls-5" x1="748.53" y1="388.71" x2="769.11" y2="415.98"/><line class="cls-5" x1="721.26" y1="409.29" x2="748.53" y2="388.71"/><line class="cls-5" x1="775.8" y1="368.13" x2="748.53" y2="388.71"/><polyline class="cls-6" points="473.36 110.14 476.73 129.99 455.95 133.52 459.5 154.42 438.49 158"/><path class="cls-7" d="M626.86,56.37c-1.94,15.23-15.55,25.66-29,24.21-14.73-1.6-26.29-17.25-22.38-33.76" transform="translate(34.31 93.89)"/><rect class="cls-8" x="394.49" y="244.64" width="46.93" height="46.93" transform="matrix(-0.57, 0.82, -0.82, -0.57, 911.21, 172.47)"/><path class="cls-6" d="M525.85,192.62c-.69,7.27-7,12.45-13.4,12-7-.53-12.79-7.79-11.19-15.71" transform="translate(34.31 93.89)"/><polygon class="cls-9" points="650.1 288.56 639.16 246.09 607.85 276.8 650.1 288.56"/><path class="cls-10" d="M757.55,213.11C744,205.93,739,189.52,745.09,177.48c6.68-13.22,25.4-18.54,39.48-9.06" transform="translate(34.31 93.89)"/><circle class="cls-11" cx="577.82" cy="192.75" r="21.13"/><rect class="cls-8" x="400.4" y="129.23" width="22.16" height="22.16" transform="translate(632.91 -158.21) rotate(96.66)"/><rect class="cls-12" x="527.91" y="287.48" width="46.93" height="46.93" transform="translate(1132.53 86.01) rotate(120.34)"/><path class="cls-5" d="M762.89,81.64c2.09,7-1.82,14.16-7.94,16.11-6.72,2.14-14.77-2.44-16.25-10.38" transform="translate(34.31 93.89)"/><circle class="cls-11" cx="709.84" cy="248.18" r="13.41"/><path class="cls-7" d="M678.17,32.9c3.23-8.73,12.69-13,20.41-10.34,8.48,3,13.18,13.78,8.61,23" transform="translate(34.31 93.89)"/><polyline class="cls-12" points="859.93 366.68 847.15 373.69 839.82 360.31 826.36 367.69 818.94 354.16"/><line class="cls-1" x1="885.28" y1="48.06" x2="863.72" y2="40.19"/><line class="cls-1" x1="885.28" y1="48.06" x2="906.84" y2="55.94"/><line class="cls-1" x1="877.41" y1="69.62" x2="885.28" y2="48.06"/><line class="cls-1" x1="893.16" y1="26.5" x2="885.28" y2="48.06"/><polyline class="cls-2" points="987.72 95.69 973.77 91.48 978.17 76.87 963.48 72.44 967.94 57.66"/><rect class="cls-3" x="1046.93" y="-54.87" width="36.47" height="36.47" transform="translate(2128.27 -221.14) rotate(166.83)"/><rect class="cls-4" x="1147.36" y="-49.49" width="46.93" height="46.93" transform="translate(1725.34 -981.36) rotate(117.65)"/><line class="cls-5" x1="1194.74" y1="399.88" x2="1166.85" y2="380.14"/><line class="cls-5" x1="1194.74" y1="399.88" x2="1222.62" y2="419.62"/><line class="cls-5" x1="1175" y1="427.77" x2="1194.74" y2="399.88"/><line class="cls-5" x1="1214.47" y1="371.99" x2="1194.74" y2="399.88"/><polyline class="cls-6" points="928.7 131.65 931.2 151.63 910.27 154.24 912.9 175.28 891.75 177.92"/><path class="cls-7" d="M1091.17,91.1c-6.47,13.91-22.61,19.71-34.94,14.25-13.55-6-19.81-24.42-11.06-39" transform="translate(34.31 93.89)"/><rect class="cls-8" x="844.13" y="274.38" width="46.93" height="46.93" transform="translate(1302.29 -433.56) rotate(96.93)"/><path class="cls-6" d="M938.27,212.86c-7.28.61-13.49-4.68-14.15-11.07-.72-7,5.42-14,13.49-13.78" transform="translate(34.31 93.89)"/><polygon class="cls-9" points="1095.93 314.44 1093.85 270.63 1056.95 294.33 1095.93 314.44"/><path class="cls-10" d="M1199.43,214c-15.32-1-26.59-13.91-26-27.38.67-14.8,15.56-27.32,32.28-24.46" transform="translate(34.31 93.89)"/><circle class="cls-11" cx="1015.7" cy="222.9" r="21.13"/><rect class="cls-8" x="873.08" y="144.32" width="22.16" height="22.16" transform="translate(719.24 -626.03) rotate(67.21)"/><rect class="cls-12" x="1005.2" y="306.53" width="46.93" height="46.93" transform="translate(1913.62 -242.03) rotate(124.16)"/><path class="cls-5" d="M1231.61,84.84c4,6.1,2.36,14.09-2.93,17.73-5.82,4-14.85,1.94-18.56-5.24" transform="translate(34.31 93.89)"/><circle class="cls-11" cx="1161.12" cy="254.69" r="13.41"/><path class="cls-7" d="M1119.32,35.64c4.6-8.08,14.64-10.79,21.82-6.88,7.89,4.29,10.76,15.73,4.76,24.09" transform="translate(34.31 93.89)"/><polyline class="cls-12" points="1286.83 378.26 1272.26 378.69 1271.81 363.43 1256.47 363.88 1256.02 348.46"/><line class="cls-1" x1="1323.09" y1="44.37" x2="1301.87" y2="35.62"/><line class="cls-1" x1="1323.09" y1="44.37" x2="1344.31" y2="53.13"/><line class="cls-1" x1="1314.33" y1="65.59" x2="1323.09" y2="44.37"/><line class="cls-1" x1="1331.85" y1="23.15" x2="1323.09" y2="44.37"/><polyline class="cls-2" points="1404.68 96.03 1392.07 103.33 1384.42 90.13 1371.14 97.82 1363.4 84.47"/><rect class="cls-3" x="1455.87" y="-67.03" width="36.47" height="36.47" transform="translate(2960.73 -212.06) rotate(171.85)"/><rect class="cls-4" x="1576.43" y="-45.17" width="46.93" height="46.93" transform="translate(1844.98 -1513.91) rotate(98.35)"/><line class="cls-5" x1="1641.62" y1="395.25" x2="1609.04" y2="384.98"/><line class="cls-5" x1="1641.62" y1="395.25" x2="1674.21" y2="405.51"/><line class="cls-5" x1="1631.36" y1="427.83" x2="1641.62" y2="395.25"/><line class="cls-5" x1="1651.89" y1="362.66" x2="1641.62" y2="395.25"/><polyline class="cls-6" points="1384.48 163.84 1367.11 174.03 1356.44 155.85 1338.16 166.59 1327.36 148.21"/><path class="cls-7" d="M1508.17,87.86c-13.51,7.28-29.91,2.29-36.53-9.46-7.27-12.91-1.28-31.42,14.42-37.85" transform="translate(34.31 93.89)"/><rect class="cls-8" x="1281.87" y="259.61" width="46.93" height="46.93" transform="translate(2089.47 -728.38) rotate(111.92)"/><path class="cls-6" d="M1397.78,209.72c-.83,7.26-7.25,12.31-13.64,11.7-7-.67-12.62-8-10.86-15.94" transform="translate(34.31 93.89)"/><polygon class="cls-9" points="1526.07 300.39 1557.13 269.43 1514.78 258.01 1526.07 300.39"/><path class="cls-10" d="M1657.45,230.43c-15.34.41-27.74-11.44-28.36-24.9-.68-14.81,13-28.63,29.93-27.3" transform="translate(34.31 93.89)"/><circle class="cls-11" cx="1433.16" cy="215.3" r="21.13"/><rect class="cls-8" x="1293.01" y="144.32" width="22.16" height="22.16" transform="translate(2288.09 -657.83) rotate(129.52)"/><rect class="cls-12" x="1428.56" y="305.87" width="46.93" height="46.93" transform="translate(1316.12 -1055.92) rotate(70.66)"/><path class="cls-5" d="M1648.52,107.6c.57,7.29-4.76,13.47-11.15,14.09-7,.69-13.93-5.48-13.71-13.56" transform="translate(34.31 93.89)"/><circle class="cls-11" cx="1613.49" cy="246.88" r="13.41"/><path class="cls-7" d="M1539.81,67.76c1.41-9.2,9.81-15.32,17.91-14.23,8.91,1.2,15.68,10.85,13.06,20.8" transform="translate(34.31 93.89)"/><polyline class="cls-12" points="1731.64 384.1 1717.66 388.25 1713.32 373.62 1698.61 377.99 1694.21 363.19"/><line class="cls-1" x1="48.31" y1="445.31" x2="36.16" y2="425.84"/><line class="cls-1" x1="48.31" y1="445.31" x2="60.46" y2="464.79"/><line class="cls-1" x1="28.83" y1="457.46" x2="48.31" y2="445.31"/><line class="cls-1" x1="67.78" y1="433.16" x2="48.31" y2="445.31"/><polyline class="cls-2" points="142.5 505.04 130.98 513.97 121.64 501.9 109.5 511.3 100.05 499.1"/><rect class="cls-3" x="210.16" y="346.23" width="36.47" height="36.47" transform="translate(539.85 787.29) rotate(171.96)"/><rect class="cls-4" x="294.37" y="348.69" width="46.93" height="46.93" transform="matrix(-0.4, 0.92, -0.92, -0.4, 820.83, 325.12)"/><line class="cls-5" x1="348.38" y1="815.23" x2="317.43" y2="800.78"/><line class="cls-5" x1="348.38" y1="815.23" x2="379.34" y2="829.68"/><line class="cls-5" x1="333.93" y1="846.19" x2="348.38" y2="815.23"/><line class="cls-5" x1="362.84" y1="784.27" x2="348.38" y2="815.23"/><polyline class="cls-6" points="71.58 563.43 61.32 580.76 43.18 570.01 32.37 588.25 14.03 577.38"/><path class="cls-7" d="M249.42,492.5c-3.09,15-17.45,24.41-30.71,21.94-14.56-2.72-24.91-19.19-19.75-35.36" transform="translate(34.31 93.89)"/><rect class="cls-8" x="7.82" y="691.47" width="46.93" height="46.93" transform="translate(371.02 1456) rotate(157.24)"/><path class="cls-6" d="M104,614.63c-1.82,7.08-8.86,11.21-15.11,9.73-6.86-1.63-11.4-9.7-8.58-17.27" transform="translate(34.31 93.89)"/><polygon class="cls-9" points="232.78 734.36 267.24 707.23 226.51 690.95 232.78 734.36"/><path class="cls-10" d="M362.11,642.38c-15.35,0-27.43-12.16-27.69-25.64-.29-14.82,13.76-28.28,30.63-26.5" transform="translate(34.31 93.89)"/><circle class="cls-11" cx="171.13" cy="620.49" r="21.13"/><rect class="cls-8" x="9.75" y="565.12" width="22.16" height="22.16" transform="translate(625.16 756.83) rotate(100.72)"/><rect class="cls-12" x="153.57" y="714.94" width="46.93" height="46.93" transform="translate(932.54 594.65) rotate(85.24)"/><path class="cls-5" d="M365.67,499.46c4,6.13,2.23,14.11-3.09,17.7-5.85,3.94-14.86,1.81-18.51-5.4" transform="translate(34.31 93.89)"/><circle class="cls-11" cx="338.48" cy="661.04" r="13.41"/><path class="cls-7" d="M276.88,471.54c-1.13-9.23,5.3-17.4,13.4-18.54,8.89-1.26,18,6.2,18.19,16.49" transform="translate(34.31 93.89)"/><polyline class="cls-12" points="450.05 820.42 435.82 817.26 439.13 802.36 424.15 799.03 427.5 783.97"/><line class="cls-1" x1="447.68" y1="456.18" x2="426.13" y2="448.28"/><line class="cls-1" x1="447.68" y1="456.18" x2="469.23" y2="464.09"/><line class="cls-1" x1="439.77" y1="477.73" x2="447.68" y2="456.18"/><line class="cls-1" x1="455.58" y1="434.63" x2="447.68" y2="456.18"/><polyline class="cls-2" points="557.91 507.47 543.42 509.05 541.78 493.87 526.52 495.52 524.86 480.18"/><rect class="cls-3" x="603.99" y="364.85" width="36.47" height="36.47" transform="translate(1370.58 632.1) rotate(160.64)"/><rect class="cls-4" x="726.65" y="368.13" width="46.93" height="46.93" transform="translate(1280.24 -200.21) rotate(98.3)"/><line class="cls-5" x1="758.58" y1="824.69" x2="739.02" y2="796.68"/><line class="cls-5" x1="758.58" y1="824.69" x2="778.14" y2="852.7"/><line class="cls-5" x1="730.57" y1="844.25" x2="758.58" y2="824.69"/><line class="cls-5" x1="786.59" y1="805.13" x2="758.58" y2="824.69"/><polyline class="cls-6" points="508.72 573.73 494.56 588.04 479.57 573.21 464.66 588.28 449.51 573.28"/><path class="cls-7" d="M648.67,493.35c-5.13,14.47-20.64,21.78-33.43,17.52-14.06-4.68-22-22.42-14.73-37.73" transform="translate(34.31 93.89)"/><rect class="cls-8" x="440.04" y="694.26" width="46.93" height="46.93" transform="translate(1311.51 551.1) rotate(105.1)"/><path class="cls-6" d="M543.46,625.39c-.24,7.3-6.22,12.86-12.64,12.77-7.06-.1-13.24-7-12.13-15" transform="translate(34.31 93.89)"/><polygon class="cls-9" points="699.41 732.52 689.74 689.74 657.53 719.51 699.41 732.52"/><path class="cls-10" d="M795.16,641.63c-14.28-5.63-21-21.39-16.31-34,5.18-13.88,23.19-21.22,38.23-13.36" transform="translate(34.31 93.89)"/><circle class="cls-11" cx="573.68" cy="623.74" r="21.13"/><rect class="cls-8" x="430.05" y="559.6" width="22.16" height="22.16" transform="translate(1015.44 186.38) rotate(86.18)"/><rect class="cls-12" x="579.18" y="727.49" width="46.93" height="46.93" transform="translate(819.53 -100.56) rotate(49.68)"/><path class="cls-5" d="M766.12,498.92c7,2.09,10.85,9.29,9.13,15.47-1.89,6.8-10.14,11-17.59,7.91" transform="translate(34.31 93.89)"/><circle class="cls-11" cx="747.3" cy="666.68" r="13.41"/><path class="cls-7" d="M674.85,466.5c1-9.25,9.2-15.69,17.34-14.92,8.94.84,16.09,10.22,13.86,20.27" transform="translate(34.31 93.89)"/><polyline class="cls-12" points="851.49 801.86 837.59 806.26 832.98 791.71 818.35 796.35 813.69 781.64"/><line class="cls-1" x1="895.04" y1="478.51" x2="876.8" y2="464.58"/><line class="cls-1" x1="895.04" y1="478.51" x2="913.28" y2="492.45"/><line class="cls-1" x1="881.1" y1="496.75" x2="895.04" y2="478.51"/><line class="cls-1" x1="908.97" y1="460.27" x2="895.04" y2="478.51"/><polyline class="cls-2" points="1007.81 524.48 993.64 527.92 990.05 513.09 975.13 516.71 971.49 501.71"/><rect class="cls-3" x="1061.71" y="371.51" width="36.47" height="36.47" transform="matrix(-0.89, -0.46, 0.46, -0.89, 1889.97, 1330.08)"/><rect class="cls-4" x="1189.11" y="379.27" width="46.93" height="46.93" transform="translate(2521.61 409.31) rotate(157.71)"/><line class="cls-5" x1="1229.53" y1="835" x2="1197.69" y2="822.62"/><line class="cls-5" x1="1229.53" y1="835" x2="1261.38" y2="847.37"/><line class="cls-5" x1="1217.16" y1="866.84" x2="1229.53" y2="835"/><line class="cls-5" x1="1241.91" y1="803.15" x2="1229.53" y2="835"/><polyline class="cls-6" points="974.97 586.77 960.48 600.75 945.85 585.58 930.59 600.29 915.79 584.95"/><path class="cls-7" d="M1093.72,538.52c-14.89,3.73-29.56-5.15-33.08-18.17-3.86-14.3,6.5-30.76,23.31-33.13" transform="translate(34.31 93.89)"/><rect class="cls-8" x="863.78" y="691.85" width="46.93" height="46.93" transform="translate(2026.84 1087.09) rotate(155.24)"/><path class="cls-6" d="M959.21,643c-.41,7.29-6.53,12.7-12.94,12.46-7-.27-13.07-7.31-11.76-15.28" transform="translate(34.31 93.89)"/><polygon class="cls-9" points="1144.98 734.35 1135.13 691.61 1103.04 721.51 1144.98 734.35"/><path class="cls-10" d="M1236.78,653.26c-15.12-2.66-24.89-16.75-22.8-30.07,2.3-14.64,18.48-25.44,34.78-20.75" transform="translate(34.31 93.89)"/><circle class="cls-11" cx="1019.68" cy="635.91" r="21.13"/><rect class="cls-8" x="896.05" y="564.57" width="22.16" height="22.16" transform="translate(1424.46 -290.11) rotate(84.32)"/><rect class="cls-12" x="1008.6" y="740.06" width="46.93" height="46.93" transform="translate(1101.95 -425.89) rotate(55.09)"/><path class="cls-5" d="M1242.35,519.64c6.3,3.71,8.31,11.62,5.16,17.21-3.46,6.15-12.47,8.28-19,3.47" transform="translate(34.31 93.89)"/><circle class="cls-11" cx="1190.15" cy="690.39" r="13.41"/><path class="cls-7" d="M1130.24,489.85c-.4-9.3,6.66-16.93,14.82-17.44,9-.55,17.48,7.61,16.84,17.88" transform="translate(34.31 93.89)"/><polyline class="cls-12" points="1302.28 812.91 1288.36 808.57 1292.92 794 1278.27 789.42 1282.87 774.69"/><line class="cls-1" x1="1312.44" y1="463.54" x2="1290.96" y2="455.43"/><line class="cls-1" x1="1312.44" y1="463.54" x2="1333.91" y2="471.65"/><line class="cls-1" x1="1304.33" y1="485.02" x2="1312.44" y2="463.54"/><line class="cls-1" x1="1320.54" y1="442.06" x2="1312.44" y2="463.54"/><polyline class="cls-2" points="1401.03 537.58 1388.04 530.95 1394.98 517.36 1381.31 510.38 1388.33 496.63"/><rect class="cls-3" x="1494.69" y="359.66" width="36.47" height="36.47" transform="translate(2568.73 1650.04) rotate(-144.95)"/><rect class="cls-4" x="1613.15" y="387.55" width="46.93" height="46.93" transform="translate(3253.62 -80.35) rotate(145.61)"/><line class="cls-5" x1="1656.6" y1="843.71" x2="1625.74" y2="829.05"/><line class="cls-5" x1="1656.6" y1="843.71" x2="1687.46" y2="858.37"/><line class="cls-5" x1="1641.94" y1="874.57" x2="1656.6" y2="843.71"/><line class="cls-5" x1="1671.26" y1="812.85" x2="1656.6" y2="843.71"/><polyline class="cls-6" points="1377.46 561.52 1384.47 580.4 1364.71 587.74 1372.09 607.61 1352.11 615.04"/><path class="cls-7" d="M1499.54,530.88c-14.71,4.37-29.75-3.88-33.82-16.73-4.48-14.12,5.17-31,21.86-34.1" transform="translate(34.31 93.89)"/><rect class="cls-8" x="1303.03" y="697.22" width="46.93" height="46.93" transform="translate(2855.11 1029.14) rotate(159.66)"/><path class="cls-6" d="M1396,646.86c-.44,7.29-6.58,12.68-13,12.41-7-.3-13-7.37-11.69-15.34" transform="translate(34.31 93.89)"/><polygon class="cls-9" points="1562.63 749.8 1555.23 706.57 1521.49 734.6 1562.63 749.8"/><path class="cls-10" d="M1620.28,643.26c-3.94-14.84,4.73-29.63,17.69-33.34,14.24-4.08,30.86,6.05,33.47,22.81" transform="translate(34.31 93.89)"/><circle class="cls-11" cx="1466.95" cy="657.97" r="21.13"/><rect class="cls-8" x="1308.28" y="574.62" width="22.16" height="22.16" transform="translate(1500.24 -756.47) rotate(71.89)"/><rect class="cls-12" x="1430.64" y="744.25" width="46.93" height="46.93" transform="translate(2103 -663.54) rotate(84.12)"/><path class="cls-5" d="M1646.25,535.18c3.73,6.28,1.67,14.19-3.79,17.56-6,3.71-14.92,1.22-18.28-6.13" transform="translate(34.31 93.89)"/><circle class="cls-11" cx="1614.64" cy="698.12" r="13.41"/><path class="cls-7" d="M1562,489.23c1-9.25,9.06-15.77,17.2-15.08,9,.76,16.19,10.07,14,20.14" transform="translate(34.31 93.89)"/><polyline class="cls-12" points="1733.95 840.81 1722.54 831.74 1732.03 819.79 1720.01 810.25 1729.61 798.16"/><line class="cls-1" x1="56.3" y1="922" x2="48.53" y2="900.41"/><line class="cls-1" x1="56.3" y1="922" x2="64.08" y2="943.6"/><line class="cls-1" x1="34.71" y1="929.78" x2="56.3" y2="922"/><line class="cls-1" x1="77.9" y1="914.23" x2="56.3" y2="922"/><polyline class="cls-2" points="157.49 961.32 144.79 968.48 137.3 955.18 123.93 962.72 116.36 949.27"/><rect class="cls-3" x="205.28" y="804.59" width="36.47" height="36.47" transform="translate(949.2 1415.73) rotate(141.02)"/><rect class="cls-4" x="340.19" y="811.75" width="46.93" height="46.93" transform="translate(1305.58 1006.99) rotate(118.43)"/><line class="cls-5" x1="352.84" y1="1263.26" x2="322.77" y2="1247.03"/><line class="cls-5" x1="352.84" y1="1263.26" x2="382.9" y2="1279.5"/><line class="cls-5" x1="336.6" y1="1293.33" x2="352.84" y2="1263.26"/><line class="cls-5" x1="369.07" y1="1233.2" x2="352.84" y2="1263.26"/><polyline class="cls-6" points="113.48 1006.64 109.67 1026.41 88.97 1022.42 84.95 1043.23 64.02 1039.19"/><path class="cls-7" d="M229.9,970.41c-14.89,3.7-29.54-5.22-33-18.24-3.83-14.32,6.57-30.75,23.38-33.08" transform="translate(34.31 93.89)"/><rect class="cls-8" x="16.49" y="1137.33" width="46.93" height="46.93" transform="translate(359.66 2380.55) rotate(167.75)"/><path class="cls-6" d="M133.09,1082.08c-6.15,4-14.12,2.18-17.69-3.15-3.93-5.86-1.76-14.87,5.45-18.5" transform="translate(34.31 93.89)"/><polygon class="cls-9" points="286.36 1173.09 283.7 1129.31 247.12 1153.5 286.36 1173.09"/><path class="cls-10" d="M398.62,1104c-14.55-4.89-22.12-20.28-18.06-33.14,4.46-14.13,22.06-22.4,37.49-15.33" transform="translate(34.31 93.89)"/><circle class="cls-11" cx="179.84" cy="1074.6" r="21.13"/><rect class="cls-8" x="7.95" y="1023.62" width="22.16" height="22.16" transform="translate(1088.07 1146.24) rotate(92.03)"/><rect class="cls-12" x="163.93" y="1172.61" width="46.93" height="46.93" transform="translate(1364.28 889.68) rotate(79.6)"/><path class="cls-5" d="M364.69,953c7.3-.24,13.24,5.37,13.57,11.78.36,7.05-6.12,13.67-14.18,13.08" transform="translate(34.31 93.89)"/><circle class="cls-11" cx="335.96" cy="1132.92" r="13.41"/><path class="cls-7" d="M272.47,924.36c-1.67-9.16,4.27-17.69,12.28-19.31,8.81-1.78,18.36,5.13,19.14,15.39" transform="translate(34.31 93.89)"/><polyline class="cls-12" points="451.97 1253.95 438.46 1259.44 432.72 1245.3 418.5 1251.08 412.69 1236.78"/><line class="cls-1" x1="488.33" y1="917.23" x2="466.36" y2="910.58"/><line class="cls-1" x1="488.33" y1="917.23" x2="510.3" y2="923.88"/><line class="cls-1" x1="481.68" y1="939.2" x2="488.33" y2="917.23"/><line class="cls-1" x1="494.98" y1="895.26" x2="488.33" y2="917.23"/><polyline class="cls-2" points="567.39 989.19 555.01 981.49 563.07 968.53 550.03 960.43 558.18 947.32"/><rect class="cls-3" x="616.92" y="812.11" width="36.47" height="36.47" transform="translate(1653.06 1278.42) rotate(147.22)"/><rect class="cls-4" x="766.49" y="812.03" width="46.93" height="46.93" transform="matrix(-0.98, 0.19, -0.19, -0.98, 1757.93, 1600.45)"/><line class="cls-5" x1="783.1" y1="1272.58" x2="764.8" y2="1243.72"/><line class="cls-5" x1="783.1" y1="1272.58" x2="801.39" y2="1301.43"/><line class="cls-5" x1="754.24" y1="1290.87" x2="783.1" y2="1272.58"/><line class="cls-5" x1="811.95" y1="1254.29" x2="783.1" y2="1272.58"/><polyline class="cls-6" points="503.69 1015.55 507.79 1035.26 487.14 1039.55 491.46 1060.31 470.58 1064.64"/><path class="cls-7" d="M657.65,978.1c-10.22,11.44-27.35,12.33-37.57,3.53-11.23-9.67-11.89-29.11.69-40.5" transform="translate(34.31 93.89)"/><rect class="cls-8" x="426.53" y="1143.35" width="46.93" height="46.93" transform="translate(1609.95 1805.57) rotate(136.92)"/><path class="cls-6" d="M557.94,1074.59c-2.75,6.77-10.28,9.91-16.28,7.61-6.58-2.54-10-11.15-6.18-18.27" transform="translate(34.31 93.89)"/><polygon class="cls-9" points="675.74 1174.35 706.95 1143.53 664.65 1131.91 675.74 1174.35"/><path class="cls-10" d="M817.43,1098.17c-15.32-1-26.59-13.89-26-27.36.66-14.8,15.54-27.33,32.27-24.48" transform="translate(34.31 93.89)"/><circle class="cls-11" cx="589.18" cy="1083.95" r="21.13"/><rect class="cls-8" x="464.21" y="1023.35" width="22.16" height="22.16" transform="translate(997.28 99.68) rotate(50.04)"/><rect class="cls-12" x="587.74" y="1161.73" width="46.93" height="46.93" transform="translate(1572.72 320.68) rotate(71.33)"/><path class="cls-5" d="M808.27,969.75c6.15,3.94,7.87,11.92,4.51,17.39-3.69,6-12.78,7.8-19.09,2.75" transform="translate(34.31 93.89)"/><circle class="cls-11" cx="759.95" cy="1127.96" r="13.41"/><path class="cls-7" d="M714.62,930.67c4.68-8,14.74-10.65,21.88-6.67,7.85,4.37,10.61,15.83,4.53,24.13" transform="translate(34.31 93.89)"/><polyline class="cls-12" points="879.74 1263.29 866.71 1256.76 873.54 1243.11 859.82 1236.24 866.74 1222.44"/><line class="cls-1" x1="918.48" y1="920.87" x2="895.77" y2="917.48"/><line class="cls-1" x1="918.48" y1="920.87" x2="941.18" y2="924.25"/><line class="cls-1" x1="915.09" y1="943.57" x2="918.48" y2="920.87"/><line class="cls-1" x1="921.86" y1="898.16" x2="918.48" y2="920.87"/><polyline class="cls-2" points="1005.31 979.78 992.98 972 1001.13 959.09 988.14 950.91 996.38 937.85"/><rect class="cls-3" x="1062.81" y="815.49" width="36.47" height="36.47" transform="translate(1331.3 2275.63) rotate(-136.74)"/><rect class="cls-4" x="1212.24" y="839.07" width="46.93" height="46.93" transform="translate(2776.28 1002.21) rotate(146.83)"/><line class="cls-5" x1="1255.84" y1="1295.87" x2="1237.98" y2="1266.75"/><line class="cls-5" x1="1255.84" y1="1295.87" x2="1273.69" y2="1325"/><line class="cls-5" x1="1226.71" y1="1313.73" x2="1255.84" y2="1295.87"/><line class="cls-5" x1="1284.97" y1="1278.02" x2="1255.84" y2="1295.87"/><polyline class="cls-6" points="972.6 1035.67 957.44 1048.93 943.56 1033.07 927.61 1047.03 913.57 1030.99"/><path class="cls-7" d="M1094.44,994.53c-14.54,4.88-29.87-2.82-34.4-15.52-5-14,4.06-31.18,20.63-34.86" transform="translate(34.31 93.89)"/><rect class="cls-8" x="884.01" y="1154.42" width="46.93" height="46.93" transform="translate(2427.38 1208.96) rotate(125.19)"/><path class="cls-6" d="M1005.17,1080.05c-.86,7.26-7.3,12.28-13.69,11.65-7-.7-12.59-8.11-10.79-16" transform="translate(34.31 93.89)"/><polygon class="cls-9" points="1130.61 1190.96 1154.72 1154.32 1110.94 1151.76 1130.61 1190.96"/><path class="cls-10" d="M1225.92,1099.52c-2.59-15.13,7.37-29.08,20.62-31.6,14.55-2.78,30.18,8.81,31.27,25.74" transform="translate(34.31 93.89)"/><circle class="cls-11" cx="1048.55" cy="1090.48" r="21.13"/><rect class="cls-8" x="908.61" y="1027.36" width="22.16" height="22.16" transform="translate(1987.29 206.86) rotate(89.68)"/><rect class="cls-12" x="1026.39" y="1175.3" width="46.93" height="46.93" transform="translate(2676.47 1354.33) rotate(133.43)"/><path class="cls-5" d="M1267.56,980.84c3.18,6.58.45,14.28-5.28,17.18-6.29,3.18-15-.07-17.69-7.67" transform="translate(34.31 93.89)"/><circle class="cls-11" cx="1197.54" cy="1149.65" r="13.41"/><path class="cls-7" d="M1168.7,948.64c-4.7-8-2-18.08,4.94-22.34,7.67-4.68,19-1.45,23.24,7.93" transform="translate(34.31 93.89)"/><polyline class="cls-12" points="1346.83 1269.54 1332.38 1271.42 1330.41 1256.29 1315.19 1258.27 1313.19 1242.96"/><line class="cls-1" x1="1330.14" y1="931.49" x2="1308.47" y2="923.92"/><line class="cls-1" x1="1330.14" y1="931.49" x2="1351.81" y2="939.06"/><line class="cls-1" x1="1322.57" y1="953.16" x2="1330.14" y2="931.49"/><line class="cls-1" x1="1337.72" y1="909.82" x2="1330.14" y2="931.49"/><polyline class="cls-2" points="1455.21 985.44 1440.65 986.17 1439.88 970.93 1424.56 971.69 1423.79 956.28"/><rect class="cls-3" x="1326.98" y="734.35" width="36.47" height="36.47" transform="translate(2920.94 842.31) rotate(150.62)"/><rect class="cls-4" x="1619.48" y="822.55" width="46.93" height="46.93" transform="translate(3442.58 1486.4) rotate(169.96)"/><line class="cls-5" x1="1664.68" y1="1295.5" x2="1652.25" y2="1263.68"/><line class="cls-5" x1="1664.68" y1="1295.5" x2="1677.1" y2="1327.33"/><line class="cls-5" x1="1632.85" y1="1307.93" x2="1664.68" y2="1295.5"/><line class="cls-5" x1="1696.5" y1="1283.08" x2="1664.68" y2="1295.5"/><polyline class="cls-6" points="1390.91 1050.8 1376.27 1064.62 1361.8 1049.29 1346.38 1063.84 1331.75 1048.33"/><path class="cls-7" d="M1560.94,955.44c-3.24,15-17.69,24.23-30.92,21.63-14.54-2.85-24.72-19.43-19.41-35.55" transform="translate(34.31 93.89)"/><rect class="cls-8" x="1313.64" y="1167.14" width="46.93" height="46.93" transform="translate(2917 380.87) rotate(108)"/><path class="cls-6" d="M1404.39,1113.26c-5.52,4.79-13.67,4.17-18-.6-4.72-5.24-3.86-14.46,2.77-19.08" transform="translate(34.31 93.89)"/><polygon class="cls-9" points="1560.59 1189.51 1559.47 1145.67 1522.06 1168.56 1560.59 1189.51"/><path class="cls-10" d="M1643.91,1093.33c-5.13-14.47,2.31-29.92,14.94-34.66,13.87-5.21,31.24,3.54,35.2,20" transform="translate(34.31 93.89)"/><circle class="cls-11" cx="1484.54" cy="1093.97" r="21.13"/><rect class="cls-8" x="1320.64" y="1031.65" width="22.16" height="22.16" transform="translate(3036.51 871.57) rotate(132.92)"/><rect class="cls-12" x="1460.72" y="1191.39" width="46.93" height="46.93" transform="translate(3252.8 489.71) rotate(115.42)"/><path class="cls-5" d="M1677.08,969.22c2.52,6.85-.94,14.25-6.92,16.58-6.58,2.56-14.9-1.52-16.87-9.35" transform="translate(34.31 93.89)"/><circle class="cls-11" cx="1632.74" cy="1139.76" r="13.41"/><path class="cls-7" d="M1582.58,962c-1.14-9.23,5.29-17.4,13.38-18.55,8.9-1.27,18,6.2,18.21,16.48" transform="translate(34.31 93.89)"/><polyline class="cls-12" points="1751.84 1275.43 1741.36 1285.56 1730.75 1274.58 1719.71 1285.25 1708.99 1274.15"/></svg>