<?xml version="1.0" encoding="utf-8"?>
<!-- Generator: Adobe Illustrator 19.0.0, SVG Export Plug-In . SVG Version: 6.00 Build 0)  -->
<svg version="1.1" id="Layer_1" xmlns="http://www.w3.org/2000/svg" xmlns:xlink="http://www.w3.org/1999/xlink" x="0px" y="0px"
	 viewBox="0 0 612 792" style="enable-background:new 0 0 612 792;" xml:space="preserve">
<style type="text/css">
	.st0{fill:#F5F7F7;}
	.st1{fill:#E2E2E2;}
	.st2{fill:#C4E0EC;}
	.st3{fill:#FFFFFF;}
	.st4{fill:#21AFD6;}
	.st5{fill:#D5604F;}
	.st6{fill:#228899;}
	.st7{fill:#1DA2C1;}
	.st8{fill:#F6978D;}
	.st9{fill:#E16E61;}
	.st10{fill:#12426D;}
	.st11{fill:#B74C41;}
	.st12{fill:#836180;}
	.st13{fill:#735372;}
	.st14{fill:#A27267;}
	.st15{fill:#588BA8;}
	.st16{fill:#42718A;}
	.st17{fill:#F9D5AC;}
	.st18{fill:#F4DA6E;}
	.st19{fill:#D8AA59;}
	.st20{fill:#DE647C;}
	.st21{fill:#C2536F;}
	.st22{fill:#AD82AF;}
	.st23{fill:#CB9DC8;}
	.st24{fill:#139BD1;}
	.st25{fill:#0D8CB2;}
	.st26{fill:#56A171;}
	.st27{fill:#4C7E5B;}
	.st28{fill:#6ABC88;}
	.st29{fill:#456E50;}
	.st30{fill:#A1DDF1;}
	.st31{fill:#21B4E1;}
	.st32{fill:#1593BB;}
	.st33{fill:#6B9FB7;}
	.st34{fill:#88584D;}
	.st35{fill:#FBB998;}
	.st36{fill:#51636E;}
	.st37{fill:#B48176;}
	.st38{fill:#3E4F57;}
	.st39{fill:#687E87;}
	.st40{fill:#11426E;}
	.st41{fill:#646158;}
	.st42{fill:#7F7E79;}
	.st43{fill:#57504D;}
	.st44{fill:#F7E9CA;}
	.st45{fill:#13436E;}
</style>
<g id="Puzzle_1">
	<polygon id="XMLID_196_" class="st0" points="538.5,486.7 520.4,476.8 509.5,496.5 500.3,494.8 492.9,498.6 488.3,506.5 490.6,518 
		493.4,521 485.9,542.6 504,551.5 511.1,546.4 520.2,545.2 528.4,547.8 531.2,556.2 531.6,560.7 529.9,566.9 549.5,577.8 
		560.3,558.3 554.7,552.7 552.7,544.4 555.7,536.4 563.6,530.6 575.6,530.6 584.5,512.2 565.9,501.9 561.7,507.3 549.5,509.5 
		542.2,505 540,498.6 	"/>
	<path id="XMLID_184_" class="st1" d="M538.5,494.8c0,0,9.8,26,30.6,16l16.4,1.9l-19.6-10.8l-4.2,5.4
		C561.7,507.3,543.5,519.7,538.5,494.8z"/>
	<polygon id="XMLID_183_" class="st1" points="529.9,566.9 547,568 560.3,558.3 549.5,577.8 	"/>
	<g id="XMLID_686_">
		<g id="XMLID_691_">
			<g id="XMLID_707_">
				<path id="XMLID_160_" class="st2" d="M495.6,524.9c-0.4,0-0.8-0.1-1.2-0.3c-8.3-4.6-11.3-15.1-6.7-23.4
					c4.6-8.3,15.1-11.3,23.4-6.7c1.2,0.6,1.6,2.1,1,3.3c-0.6,1.2-2.1,1.6-3.3,1c-6-3.3-13.5-1.1-16.8,4.8c-3.3,6-1.1,13.5,4.8,16.8
					c1.2,0.6,1.6,2.1,1,3.3C497.3,524.5,496.4,524.9,495.6,524.9z"/>
			</g>
			<g id="XMLID_705_">
				<path id="XMLID_159_" class="st2" d="M560.3,560.7c-0.4,0-0.8-0.1-1.2-0.3c-4-2.2-6.9-5.9-8.2-10.3c-1.3-4.4-0.7-9.1,1.5-13.1
					c2.2-4,5.9-6.9,10.3-8.2c4.4-1.3,9.1-0.8,13.1,1.5c1.2,0.6,1.6,2.1,1,3.3c-0.6,1.2-2.1,1.6-3.3,1c-2.9-1.6-6.2-2-9.4-1.1
					c-3.2,0.9-5.8,3-7.4,5.9c-1.6,2.9-2,6.2-1.1,9.4c0.9,3.2,3,5.8,5.9,7.4c1.2,0.6,1.6,2.1,1,3.3
					C562,560.2,561.2,560.7,560.3,560.7z"/>
			</g>
			<g id="XMLID_692_">
				<g id="XMLID_703_">
					<path id="XMLID_158_" class="st2" d="M529.8,569.5c-0.4,0-0.8-0.1-1.2-0.3c-1.2-0.6-1.6-2.1-1-3.3c3.3-6,1.1-13.5-4.8-16.8
						c-6-3.3-13.5-1.1-16.8,4.8c-0.6,1.2-2.1,1.6-3.3,1c-1.2-0.6-1.6-2.1-1-3.3c4.6-8.3,15.1-11.3,23.4-6.7
						c8.3,4.6,11.3,15.1,6.7,23.4C531.5,569.1,530.7,569.5,529.8,569.5z"/>
				</g>
				<g id="XMLID_701_">
					<path id="XMLID_157_" class="st2" d="M552.9,511.9c-2.8,0-5.7-0.7-8.3-2.1c-4-2.2-6.9-5.9-8.2-10.3c-1.3-4.4-0.7-9.1,1.5-13.1
						c0.6-1.2,2.1-1.6,3.3-1c1.2,0.6,1.6,2.1,1,3.3c-1.6,2.9-2,6.2-1.1,9.4c0.9,3.2,3,5.8,5.9,7.4c6,3.3,13.5,1.1,16.8-4.8
						c0.6-1.2,2.1-1.6,3.3-1c1.2,0.6,1.6,2.1,1,3.3C564.9,508.7,559,511.9,552.9,511.9z"/>
				</g>
				<g id="XMLID_699_">
					<path id="XMLID_156_" class="st2" d="M504.1,555.1c-0.4,0-0.8-0.1-1.2-0.3l-21.7-12l12-21.6c0.6-1.2,2.1-1.6,3.3-1
						c1.2,0.6,1.6,2.1,1,3.3l-9.6,17.4l17.5,9.7c1.2,0.6,1.6,2.1,1,3.3C505.8,554.6,504.9,555.1,504.1,555.1z"/>
				</g>
				<g id="XMLID_697_">
					<path id="XMLID_155_" class="st2" d="M550.5,581.1l-21.7-12c-1.2-0.6-1.6-2.1-1-3.3c0.6-1.2,2.1-1.6,3.3-1l17.5,9.7l9.6-17.4
						c0.6-1.2,2.1-1.6,3.3-1c1.2,0.6,1.6,2.1,1,3.3L550.5,581.1z"/>
				</g>
				<g id="XMLID_695_">
					<path id="XMLID_154_" class="st2" d="M574.6,534.8c-0.4,0-0.8-0.1-1.2-0.3c-1.2-0.6-1.6-2.1-1-3.3l9.7-17.6l-17.5-9.7
						c-1.2-0.6-1.6-2.1-1-3.3c0.6-1.2,2.1-1.6,3.3-1l21.7,12l-12.1,21.8C576.3,534.4,575.4,534.8,574.6,534.8z"/>
				</g>
				<g id="XMLID_693_">
					<path id="XMLID_153_" class="st2" d="M509.5,498.9c-0.4,0-0.8-0.1-1.2-0.3c-1.2-0.6-1.6-2.1-1-3.3l12.1-21.8l21.7,12
						c1.2,0.6,1.6,2.1,1,3.3c-0.6,1.2-2.1,1.6-3.3,1l-17.5-9.6l-9.7,17.6C511.2,498.4,510.4,498.9,509.5,498.9z"/>
				</g>
			</g>
		</g>
		<g id="XMLID_689_">
			<path id="XMLID_152_" class="st2" d="M548.6,521.2c-16.4,0-21.6-18.8-21.7-18.9c-0.2-0.8,0.3-1.7,1.1-1.9
				c0.8-0.2,1.7,0.3,1.9,1.1c0.2,0.7,4.7,16.7,18.7,16.7c0.8,0,1.5,0.7,1.5,1.5C550.1,520.5,549.4,521.2,548.6,521.2z"/>
		</g>
		<g id="XMLID_687_">
			<path id="XMLID_151_" class="st2" d="M547,568.7c-0.3,0-0.5-0.1-0.8-0.2c-0.7-0.4-1-1.4-0.6-2.1l5-8.9c0.4-0.7,1.4-1,2.1-0.6
				c0.7,0.4,1,1.4,0.6,2.1l-5,8.9C548,568.4,547.5,568.7,547,568.7z"/>
		</g>
	</g>
</g>
<g id="Puzzle_2">
	<polygon id="XMLID_194_" class="st0" points="143.7,219.5 158.5,207 167.5,210.8 179,207.9 183.9,199.8 182.5,186.7 196.4,175 
		183,159.2 177.2,162.1 167.6,160.7 162.6,156.1 159.7,148 165.3,138.2 151.8,124.7 137.4,134.4 127.8,131 119.6,132.2 112.9,139.2 
		112.9,147.7 115,153.4 99.1,166.8 111.8,182.8 121.5,179.3 130.3,182.3 134.6,188.4 135,196.4 130.6,203.5 	"/>
	<path id="XMLID_188_" class="st3" d="M135.9,135.7l14.7-2.6l3.1,4c0,0-7,17.2,13.8,23.7c0,0-12.6-4.2-2.3-22.5l-13.5-16
		L135.9,135.7z"/>
	<path id="XMLID_187_" class="st1" d="M130.6,203.5l12,4.4l12.8-10.5c0,0,21.5,16.6,27.8-4.3l-1.7,10.6l-8.1,7l-12.9-3.6l-16.8,12.5
		L130.6,203.5z"/>
	<g id="XMLID_730_">
		<g id="XMLID_735_">
			<g id="XMLID_751_">
				<path id="XMLID_179_" class="st2" d="M130.6,205.9c-0.7,0-1.4-0.3-1.9-0.9c-0.9-1-0.7-2.6,0.3-3.4c2.3-1.9,3.7-4.7,4-7.7
					c0.3-3-0.7-5.9-2.6-8.2c-1.9-2.3-4.7-3.7-7.7-4c-3-0.2-5.9,0.7-8.2,2.6c-1,0.9-2.6,0.7-3.4-0.3c-0.9-1-0.7-2.6,0.3-3.4
					c3.3-2.8,7.5-4.1,11.8-3.8c4.3,0.4,8.2,2.4,11,5.7c2.8,3.3,4.1,7.5,3.8,11.8s-2.4,8.2-5.7,11
					C131.7,205.7,131.1,205.9,130.6,205.9z"/>
			</g>
			<g id="XMLID_749_">
				<path id="XMLID_178_" class="st2" d="M174.2,164.8c-4.6,0-9.2-1.9-12.3-5.7c-5.7-6.8-4.9-17,1.9-22.7c1-0.9,2.6-0.7,3.4,0.3
					c0.9,1,0.7,2.6-0.3,3.4c-4.7,4-5.3,11.1-1.3,15.9c4,4.8,11.1,5.3,15.9,1.3c1-0.9,2.6-0.7,3.4,0.3c0.9,1,0.7,2.6-0.3,3.4
					C181.6,163.6,177.9,164.8,174.2,164.8z"/>
			</g>
			<g id="XMLID_736_">
				<g id="XMLID_747_">
					<path id="XMLID_177_" class="st2" d="M170.2,213.5c-4.6,0-9.2-1.9-12.3-5.7c-0.9-1-0.7-2.6,0.3-3.4c1-0.9,2.6-0.7,3.4,0.3
						c4,4.8,11.1,5.3,15.9,1.3c2.3-1.9,3.7-4.7,4-7.7c0.3-3-0.7-5.9-2.6-8.2c-0.9-1-0.7-2.6,0.3-3.4c1-0.9,2.6-0.7,3.4,0.3
						c2.8,3.3,4.1,7.5,3.8,11.8c-0.4,4.3-2.4,8.2-5.7,11C177.5,212.3,173.8,213.5,170.2,213.5z"/>
				</g>
				<g id="XMLID_745_">
					<path id="XMLID_176_" class="st2" d="M115,155.8c-0.7,0-1.4-0.3-1.9-0.9c-2.8-3.3-4.1-7.5-3.8-11.8c0.4-4.3,2.4-8.2,5.7-11
						c6.8-5.7,17-4.9,22.7,1.9c0.9,1,0.7,2.6-0.3,3.4c-1,0.9-2.6,0.7-3.4-0.3c-4-4.7-11.1-5.3-15.9-1.3c-2.3,1.9-3.7,4.7-4,7.7
						c-0.3,3,0.7,5.9,2.6,8.2c0.9,1,0.7,2.6-0.3,3.4C116.1,155.6,115.6,155.8,115,155.8z"/>
				</g>
				<g id="XMLID_743_">
					<path id="XMLID_175_" class="st2" d="M143.4,222.9l-14.9-17.7c-0.9-1-0.7-2.6,0.3-3.4c1-0.9,2.6-0.7,3.4,0.3l11.8,14l14-11.9
						c1-0.9,2.6-0.7,3.4,0.3c0.9,1,0.7,2.6-0.3,3.4L143.4,222.9z"/>
				</g>
				<g id="XMLID_741_">
					<path id="XMLID_174_" class="st2" d="M180.5,190.8c-0.7,0-1.4-0.3-1.9-0.9c-0.9-1-0.7-2.6,0.3-3.4l14-11.9l-11.8-14
						c-0.9-1-0.7-2.6,0.3-3.4c1-0.9,2.6-0.7,3.4,0.3l14.9,17.7l-17.7,15C181.6,190.6,181,190.8,180.5,190.8z"/>
				</g>
				<g id="XMLID_739_">
					<path id="XMLID_173_" class="st2" d="M165.3,140.6c-0.7,0-1.4-0.3-1.9-0.9l-11.9-14.1l-14,11.9c-1,0.9-2.6,0.7-3.4-0.3
						c-0.9-1-0.7-2.6,0.3-3.4l17.7-15l15.1,17.8c0.9,1,0.7,2.6-0.3,3.4C166.4,140.5,165.9,140.6,165.3,140.6z"/>
				</g>
				<g id="XMLID_737_">
					<path id="XMLID_172_" class="st2" d="M112.6,185.2c-0.7,0-1.4-0.3-1.9-0.9l-15.1-17.8l17.7-15c1-0.9,2.6-0.7,3.4,0.3
						c0.9,1,0.7,2.6-0.3,3.4l-14,11.9l11.9,14.1c0.9,1,0.7,2.6-0.3,3.4C113.7,185,113.2,185.2,112.6,185.2z"/>
				</g>
			</g>
		</g>
		<g id="XMLID_733_">
			<path id="XMLID_171_" class="st2" d="M109.6,169.6c-0.4,0-0.8-0.2-1.1-0.5c-0.6-0.6-0.5-1.6,0.1-2.2l6.4-5.7
				c0.6-0.6,1.6-0.5,2.2,0.1c0.6,0.6,0.5,1.6-0.1,2.2l-6.4,5.7C110.3,169.5,109.9,169.6,109.6,169.6z"/>
		</g>
		<g id="XMLID_731_">
			<path id="XMLID_170_" class="st2" d="M174.6,173.5c-9.4,0-15.9-7.1-16-7.2c-0.6-0.6-0.5-1.6,0.1-2.2c0.6-0.6,1.6-0.5,2.2,0.1
				c0.4,0.4,9.5,10.3,21.5,4.2c0.8-0.4,1.7-0.1,2.1,0.7c0.4,0.8,0.1,1.7-0.7,2.1C180.5,172.8,177.4,173.5,174.6,173.5z"/>
		</g>
	</g>
</g>
<g id="Puzzle_3">
	<polygon id="XMLID_198_" class="st1" points="436.5,210 421.5,223.8 434,236.9 432.7,244.6 434.8,257.4 442.1,262.3 449.2,262.3 
		455.4,258.6 470,273.4 484.7,258.9 479.7,247.8 484.7,239.1 494.9,234.2 504.3,237 518.8,224.6 506.3,210.2 508.4,202.4 
		506.1,192.6 498.4,185.4 484.7,190.1 470.5,177.5 456,190.8 459,197.3 459,204.1 453.9,212.7 443.6,212.4 	"/>
	<path id="XMLID_186_" class="st0" d="M433.7,214c0,0,22.7,16.7,36.4-8.9c0,0,1.8-8.1-2.8-14.3l6.1-6.1l11.4,5.5l-14.1-14.3
		L456,190.8l3.2,9.3l-3.5,9.5l-4.1,1.9l-7.3,2.5l-7.9-3.9L433.7,214z"/>
	<path id="XMLID_185_" class="st0" d="M484.7,237.7c0,0,1.3-11.9,16.2-8.8l17.8-4.3l-14.5,15l-4.8-4.1l-6.9,1.4L484.7,237.7z"/>
	<g id="XMLID_709_">
		<g id="XMLID_712_">
			<g id="XMLID_728_">
				<path id="XMLID_169_" class="st2" d="M446.3,216.5c0,0-0.1,0-0.1,0c-4.3,0-8.4-1.7-11.4-4.8c-0.9-1-0.9-2.5,0-3.4
					c1-0.9,2.5-0.9,3.4,0c2.1,2.1,4.9,3.3,8,3.4c0,0,0,0,0.1,0c3,0,5.8-1.2,7.9-3.3c2.1-2.1,3.3-4.9,3.4-8c0-3-1.1-5.9-3.3-8
					c-0.9-1-0.9-2.5,0-3.4c1-0.9,2.5-0.9,3.4,0c3,3.1,4.7,7.1,4.7,11.4c0,4.3-1.7,8.4-4.8,11.4C454.5,214.9,450.5,216.5,446.3,216.5
					z"/>
			</g>
			<g id="XMLID_726_">
				<path id="XMLID_168_" class="st2" d="M484.7,261.3c-0.6,0-1.3-0.2-1.7-0.7c-6.3-6.3-6.2-16.6,0.1-22.8
					c6.3-6.3,16.6-6.2,22.8,0.1c0.9,1,0.9,2.5,0,3.4c-1,0.9-2.5,0.9-3.4,0c-4.4-4.4-11.5-4.5-15.9-0.1c-4.4,4.4-4.5,11.5-0.1,15.9
					c0.9,1,0.9,2.5,0,3.4C486,261.1,485.4,261.3,484.7,261.3z"/>
			</g>
			<g id="XMLID_713_">
				<g id="XMLID_724_">
					<path id="XMLID_167_" class="st2" d="M445.6,265.2c0,0-0.1,0-0.1,0c-4.3,0-8.4-1.7-11.4-4.8c-3-3.1-4.7-7.1-4.7-11.4
						c0-4.3,1.7-8.4,4.8-11.4c1-0.9,2.5-0.9,3.4,0c0.9,1,0.9,2.5,0,3.4c-2.1,2.1-3.3,4.9-3.4,8c0,3,1.1,5.9,3.3,8
						c2.1,2.1,4.9,3.3,8,3.4c0,0,0,0,0.1,0c3,0,5.8-1.2,7.9-3.3c1-0.9,2.5-0.9,3.4,0c0.9,1,0.9,2.5,0,3.4
						C453.9,263.5,449.9,265.2,445.6,265.2z"/>
				</g>
				<g id="XMLID_722_">
					<path id="XMLID_166_" class="st2" d="M504.5,212.6c-0.6,0-1.3-0.2-1.7-0.7c-0.9-1-0.9-2.5,0-3.4c4.4-4.4,4.5-11.5,0.1-15.9
						c-4.4-4.4-11.5-4.5-15.9-0.1c-1,0.9-2.5,0.9-3.4,0c-0.9-1-0.9-2.5,0-3.4c6.3-6.3,16.6-6.2,22.8,0.1c6.3,6.3,6.2,16.6-0.1,22.8
						C505.7,212.4,505.1,212.6,504.5,212.6z"/>
				</g>
				<g id="XMLID_720_">
					<path id="XMLID_165_" class="st2" d="M436.1,241.6c-0.6,0-1.3-0.2-1.7-0.7l-16.3-16.5l16.5-16.3c1-0.9,2.5-0.9,3.4,0
						c0.9,1,0.9,2.5,0,3.4l-13,12.8l12.9,13.1c0.9,1,0.9,2.5,0,3.4C437.4,241.3,436.7,241.6,436.1,241.6z"/>
				</g>
				<g id="XMLID_718_">
					<path id="XMLID_164_" class="st2" d="M470,276.9l-16.3-16.5c-0.9-1-0.9-2.5,0-3.4c1-0.9,2.5-0.9,3.4,0L470,270l13-12.8
						c1-0.9,2.5-0.9,3.4,0c0.9,1,0.9,2.5,0,3.4L470,276.9z"/>
				</g>
				<g id="XMLID_716_">
					<path id="XMLID_163_" class="st2" d="M504.3,242.1c-0.6,0-1.3-0.2-1.7-0.7c-0.9-1-0.9-2.5,0-3.4l13.1-13l-12.9-13.1
						c-0.9-1-0.9-2.5,0-3.4c1-0.9,2.5-0.9,3.4,0l16.3,16.5L506,241.4C505.5,241.8,504.9,242.1,504.3,242.1z"/>
				</g>
				<g id="XMLID_714_">
					<path id="XMLID_162_" class="st2" d="M485.2,193.1c-0.6,0-1.3-0.2-1.7-0.7l-12.9-13.1l-13.1,13c-1,0.9-2.5,0.9-3.4,0
						c-0.9-1-0.9-2.5,0-3.4l16.6-16.4l16.3,16.5c0.9,1,0.9,2.5,0,3.4C486.5,192.8,485.9,193.1,485.2,193.1z"/>
				</g>
			</g>
		</g>
		<g id="XMLID_710_">
			<path id="XMLID_161_" class="st2" d="M482.2,200.4L469,187.8c-0.6-0.6-0.6-1.6-0.1-2.2c0.6-0.6,1.6-0.6,2.2-0.1l11.5,10.9
				c3.1-1.8,12.1-6.5,19.1-2.9c0.8,0.4,1,1.3,0.7,2.1c-0.4,0.8-1.3,1-2.1,0.7c-6.6-3.5-16.9,3.3-17,3.4L482.2,200.4z"/>
		</g>
	</g>
</g>
<g id="Puzzle_4">
	<polygon id="XMLID_195_" class="st1" points="98.5,490.2 82.4,498.7 82.4,508.4 78.9,515.6 74.7,518.8 66,518.8 56.1,511.8 
		37.3,521.7 46.7,540.4 56.1,538.8 64.3,544 67.4,548.7 68.4,556.5 62.4,565.4 70.2,582.6 89.4,575 96.3,581.5 106.2,582.6 
		113.1,576.8 115.8,568.2 114.2,562 132.8,551.8 122.8,533.1 128.9,526.7 130.1,518.9 127.8,512.8 119,506.7 109.6,506.7 
		99.5,489.6 	"/>
	<path id="XMLID_182_" class="st0" d="M99.5,489.6l-9.1,14.8c0,0,2.2,22.4-15.5,22.8v-7.3c0,0,9.8-5.9,7.4-21.2L99.5,489.6z"/>
	<path id="XMLID_181_" class="st0" d="M37.3,521.7L52,533.1c0,0,20.9-1,16.3,17.1c0,0-5.7-13.3-20.6-8.7L37.3,521.7z"/>
	<g id="XMLID_663_">
		<g id="XMLID_668_">
			<g id="XMLID_684_">
				<path id="XMLID_150_" class="st2" d="M61,568.7c-0.9,0-1.7-0.5-2.1-1.3c-0.6-1.2-0.2-2.7,1-3.3c5.6-3,7.8-10,4.7-15.7
					c-1.5-2.7-3.9-4.7-6.9-5.6c-3-0.9-6.1-0.6-8.8,0.9c-1.2,0.6-2.7,0.2-3.3-1c-0.6-1.2-0.2-2.7,1-3.3c3.9-2.1,8.3-2.5,12.5-1.2
					c4.2,1.3,7.7,4.1,9.7,8c2.1,3.9,2.5,8.3,1.2,12.5c-1.3,4.2-4.1,7.7-8,9.7C61.7,568.6,61.3,568.7,61,568.7z"/>
			</g>
			<g id="XMLID_682_">
				<path id="XMLID_149_" class="st2" d="M122.8,535.6c-0.9,0-1.7-0.5-2.1-1.3c-0.6-1.2-0.2-2.7,1-3.3c2.7-1.5,4.7-3.9,5.6-6.9
					c0.9-3,0.6-6.1-0.9-8.8c-1.5-2.7-3.9-4.7-6.9-5.6c-3-0.9-6.1-0.6-8.8,0.9c-1.2,0.6-2.7,0.2-3.3-1s-0.2-2.7,1-3.3
					c3.9-2.1,8.3-2.5,12.5-1.2c4.2,1.3,7.7,4.1,9.7,8c4.3,8,1.3,18-6.7,22.3C123.6,535.5,123.2,535.6,122.8,535.6z"/>
			</g>
			<g id="XMLID_669_">
				<g id="XMLID_680_">
					<path id="XMLID_148_" class="st2" d="M101.9,585c-5.9,0-11.6-3.2-14.5-8.7c-0.6-1.2-0.2-2.7,1-3.3c1.2-0.6,2.7-0.2,3.3,1
						c1.5,2.7,3.9,4.7,6.9,5.6c3,0.9,6.1,0.6,8.8-0.9c5.6-3,7.8-10,4.7-15.7c-0.6-1.2-0.2-2.7,1-3.3c1.2-0.6,2.7-0.2,3.3,1
						c4.3,8,1.3,18-6.7,22.3C107.1,584.4,104.5,585,101.9,585z"/>
				</g>
				<g id="XMLID_678_">
					<path id="XMLID_147_" class="st2" d="M68.5,522.7c-5.9,0-11.6-3.2-14.5-8.7c-0.6-1.2-0.2-2.7,1-3.3c1.2-0.6,2.7-0.2,3.3,1
						c1.5,2.7,3.9,4.7,6.9,5.6c3,0.9,6.1,0.6,8.8-0.9s4.7-3.9,5.6-6.9c0.9-3,0.6-6.1-0.9-8.8c-0.6-1.2-0.2-2.7,1-3.3
						c1.2-0.6,2.7-0.2,3.3,1c4.3,8,1.3,18-6.7,22.3C73.7,522,71.1,522.7,68.5,522.7z"/>
				</g>
				<g id="XMLID_676_">
					<path id="XMLID_146_" class="st2" d="M69.6,588.4l-11.1-20.8c-0.6-1.2-0.2-2.7,1-3.3c1.2-0.6,2.7-0.2,3.3,1l8.8,16.5l16.6-8.9
						c1.2-0.6,2.7-0.2,3.3,1c0.6,1.2,0.2,2.7-1,3.3L69.6,588.4z"/>
				</g>
				<g id="XMLID_674_">
					<path id="XMLID_145_" class="st2" d="M114.1,564.2c-0.9,0-1.7-0.5-2.1-1.3c-0.6-1.2-0.2-2.7,1-3.3l16.6-8.9l-8.8-16.5
						c-0.6-1.2-0.2-2.7,1-3.3c1.2-0.6,2.7-0.2,3.3,1l11.1,20.8L115.2,564C114.9,564.2,114.5,564.2,114.1,564.2z"/>
				</g>
				<g id="XMLID_672_">
					<path id="XMLID_144_" class="st2" d="M109.6,510.8c-0.9,0-1.7-0.5-2.1-1.3l-8.9-16.7l-16.6,8.9c-1.2,0.6-2.7,0.2-3.3-1
						c-0.6-1.2-0.2-2.7,1-3.3l20.9-11.2l11.2,21c0.6,1.2,0.2,2.7-1,3.3C110.4,510.7,110,510.8,109.6,510.8z"/>
				</g>
				<g id="XMLID_670_">
					<path id="XMLID_143_" class="st2" d="M47.4,544.1c-0.9,0-1.7-0.5-2.1-1.3l-11.2-21l20.9-11.2c1.2-0.6,2.7-0.2,3.3,1
						s0.2,2.7-1,3.3l-16.6,8.9l8.9,16.7c0.6,1.2,0.2,2.7-1,3.3C48.2,544,47.8,544.1,47.4,544.1z"/>
				</g>
			</g>
		</g>
		<g id="XMLID_666_">
			<path id="XMLID_142_" class="st2" d="M74.7,528.3c-0.7,0-1.4-0.5-1.5-1.3c-0.1-0.8,0.4-1.6,1.3-1.8c0.7-0.1,16.7-2.9,14.2-20.6
				c-0.1-0.8,0.5-1.6,1.3-1.7c0.9-0.1,1.6,0.5,1.7,1.3c2.9,20.7-16.6,24-16.8,24C74.9,528.2,74.8,528.3,74.7,528.3z"/>
		</g>
		<g id="XMLID_664_">
			<path id="XMLID_141_" class="st2" d="M74.7,573.8c-0.6,0-1.1-0.3-1.4-0.8c-0.4-0.8-0.1-1.7,0.6-2.1l15.5-8.1
				c0.8-0.4,1.7-0.1,2.1,0.6c0.4,0.8,0.1,1.7-0.6,2.1l-15.5,8.1C75.2,573.8,74.9,573.8,74.7,573.8z"/>
		</g>
	</g>
</g>
<g id="Big_Puzzle">
	<polygon id="XMLID_201_" class="st0" points="244.2,79.1 244.2,114.1 234.8,116.1 224.9,124.7 221.8,142.1 228.1,153.4 244.2,160 
		244.2,195 279.1,195 282.6,182.8 289.3,175.8 302,172 316.9,177.5 325,188.5 325,195 359.8,195 359.8,160 370.7,156.9 378,150.3 
		382.2,137 380.8,129.2 370.7,117.2 359.8,114.1 359.8,79.4 325,79.4 323.2,70.3 315.1,60.2 305.9,56.5 294.1,57.5 284.5,63.8 
		280.2,79.4 	"/>
	<polygon id="XMLID_193_" class="st3" points="309.3,103.2 297,103.2 286.5,107.8 280.2,119.2 281.1,130.8 289.1,142.1 300.4,146.2 
		311.8,143.7 320.3,134.4 323,124.3 320.4,114.1 314.9,107.8 	"/>
	<polygon id="XMLID_192_" class="st1" points="302,114.1 297.3,115.5 294.1,119.6 295.3,125.7 298.1,128.3 305.4,128.3 308.1,125.7 
		309.3,121.2 309.3,117.2 	"/>
	<path id="XMLID_191_" class="st1" d="M242.7,114.1c0,0-16.9,10.8-10,23c7,12.2,23.1,16.4,23.1,16.4v35l23.2,6.6h-34.8v-35
		l-11.5-3.1l-8.1-7.9l-3.4-12l0.6-11.3C221.8,125.7,233.6,111.9,242.7,114.1z"/>
	<path id="XMLID_190_" class="st3" d="M287.1,62.1c0,0,25.7-5.9,28.8,27.5l43.9-10.2H325L321.6,65C321.6,65,306.2,47.1,287.1,62.1z"
		/>
	<path id="XMLID_189_" class="st1" d="M326.7,195l21.1-6.4l4.2-34.1c0,0,23.8-2,30.3-17.4l-4.2,13.3l-10.5,8l-7.6,1.6v35H326.7z"/>
	<g id="XMLID_627_">
		<g id="XMLID_636_">
			<g id="XMLID_645_">
				<g id="XMLID_661_">
					<path id="XMLID_140_" class="st2" d="M359.2,162.4c-1.3,0-2.4-1.1-2.4-2.4s1.1-2.4,2.4-2.4c11.3,0,20.5-9.2,20.5-20.5
						c0-11.3-9.2-20.5-20.5-20.5c-1.3,0-2.4-1.1-2.4-2.4s1.1-2.4,2.4-2.4c14,0,25.4,11.4,25.4,25.4
						C384.6,151,373.2,162.4,359.2,162.4z"/>
				</g>
				<g id="XMLID_659_">
					<path id="XMLID_139_" class="st2" d="M244.2,162.4c-14,0-25.4-11.4-25.4-25.4c0-14,11.4-25.4,25.4-25.4c1.3,0,2.4,1.1,2.4,2.4
						s-1.1,2.4-2.4,2.4c-11.3,0-20.5,9.2-20.5,20.5c0,11.3,9.2,20.5,20.5,20.5c1.3,0,2.4,1.1,2.4,2.4S245.6,162.4,244.2,162.4z"/>
				</g>
				<g id="XMLID_646_">
					<g id="XMLID_657_">
						<path id="XMLID_138_" class="st2" d="M325,81.5c-1.3,0-2.4-1.1-2.4-2.4c0-11.3-9.2-20.5-20.5-20.5c-11.3,0-20.5,9.2-20.5,20.5
							c0,1.3-1.1,2.4-2.4,2.4c-1.3,0-2.4-1.1-2.4-2.4c0-14,11.4-25.4,25.4-25.4s25.4,11.4,25.4,25.4C327.4,80.4,326.3,81.5,325,81.5
							z"/>
					</g>
					<g id="XMLID_655_">
						<path id="XMLID_137_" class="st2" d="M325,197.4c-1.3,0-2.4-1.1-2.4-2.4c0-11.3-9.2-20.5-20.5-20.5
							c-11.3,0-20.5,9.2-20.5,20.5c0,1.3-1.1,2.4-2.4,2.4c-1.3,0-2.4-1.1-2.4-2.4c0-14,11.4-25.4,25.4-25.4s25.4,11.4,25.4,25.4
							C327.4,196.3,326.3,197.4,325,197.4z"/>
					</g>
					<g id="XMLID_653_">
						<path id="XMLID_136_" class="st2" d="M359.8,116.5c-1.3,0-2.4-1.1-2.4-2.4V81.8H325c-1.3,0-2.4-1.1-2.4-2.4
							c0-1.3,1.1-2.4,2.4-2.4h37.3v37.1C362.2,115.4,361.2,116.5,359.8,116.5z"/>
					</g>
					<g id="XMLID_651_">
						<path id="XMLID_135_" class="st2" d="M244.2,116.5c-1.3,0-2.4-1.1-2.4-2.4V77h37.3c1.3,0,2.4,1.1,2.4,2.4
							c0,1.3-1.1,2.4-2.4,2.4h-32.4v32.3C246.6,115.4,245.6,116.5,244.2,116.5z"/>
					</g>
					<g id="XMLID_649_">
						<path id="XMLID_134_" class="st2" d="M279.1,197.4h-37.3V160c0-1.3,1.1-2.4,2.4-2.4s2.4,1.1,2.4,2.4v32.6h32.4
							c1.3,0,2.4,1.1,2.4,2.4S280.4,197.4,279.1,197.4z"/>
					</g>
					<g id="XMLID_647_">
						<path id="XMLID_133_" class="st2" d="M362.2,197.4H325c-1.3,0-2.4-1.1-2.4-2.4s1.1-2.4,2.4-2.4h32.4V160
							c0-1.3,1.1-2.4,2.4-2.4c1.3,0,2.4,1.1,2.4,2.4V197.4z"/>
					</g>
				</g>
			</g>
			<g id="XMLID_643_">
				<path id="XMLID_132_" class="st2" d="M252.2,109.3c-0.8,0-1.5-0.7-1.5-1.5v-9.1c0-0.8,0.7-1.5,1.5-1.5c0.8,0,1.5,0.7,1.5,1.5
					v9.1C253.8,108.6,253.1,109.3,252.2,109.3z"/>
			</g>
			<g id="XMLID_641_">
				<path id="XMLID_131_" class="st2" d="M252.2,94.1c-0.8,0-1.5-0.7-1.5-1.5v-6.1c0-0.8,0.7-1.5,1.5-1.5c0.8,0,1.5,0.7,1.5,1.5v6.1
					C253.8,93.5,253.1,94.1,252.2,94.1z"/>
			</g>
			<g id="XMLID_639_">
				<path id="XMLID_130_" class="st2" d="M333.5,188.2c-0.8,0-1.4-0.6-1.5-1.3c-3.8-25.8-28.7-23.1-29.8-23
					c-0.9,0.1-1.6-0.5-1.7-1.3c-0.1-0.8,0.5-1.6,1.3-1.7c0.3,0,29-3.2,33.2,25.6c0.1,0.8-0.5,1.6-1.3,1.7
					C333.6,188.2,333.6,188.2,333.5,188.2z"/>
			</g>
			<g id="XMLID_637_">
				<path id="XMLID_129_" class="st2" d="M350,88.1h-20.9c-0.8,0-1.5-0.7-1.5-1.5s0.7-1.5,1.5-1.5H350c0.8,0,1.5,0.7,1.5,1.5
					S350.9,88.1,350,88.1z"/>
			</g>
		</g>
		<g id="XMLID_632_">
			<path id="XMLID_633_" class="st2" d="M301.7,147.7c-12.7,0-23-10.3-23-23s10.3-23,23-23s23,10.3,23,23S314.4,147.7,301.7,147.7z
				 M301.7,104.8c-11,0-20,9-20,20s9,20,20,20s20-9,20-20S312.7,104.8,301.7,104.8z"/>
		</g>
		<g id="XMLID_628_">
			<path id="XMLID_629_" class="st2" d="M301.7,130.8c-5,0-9.1-4.1-9.1-9.1s4.1-9.1,9.1-9.1s9.1,4.1,9.1,9.1
				S306.8,130.8,301.7,130.8z M301.7,115.6c-3.3,0-6,2.7-6,6s2.7,6,6,6s6-2.7,6-6S305.1,115.6,301.7,115.6z"/>
		</g>
	</g>
</g>
<g id="Star">
	<polygon id="XMLID_180_" class="st0" points="70.8,381.8 67.8,376.7 58.3,376.7 55.7,384.4 58.3,390.3 63.5,392.2 69.1,389.9 	"/>
	<g id="XMLID_622_">
		<path id="XMLID_623_" class="st2" d="M63.5,394.7c-5.6,0-10.2-4.6-10.2-10.2c0-5.6,4.6-10.2,10.2-10.2s10.2,4.6,10.2,10.2
			C73.7,390.1,69.1,394.7,63.5,394.7z M63.5,379.1c-3,0-5.4,2.4-5.4,5.4c0,3,2.4,5.4,5.4,5.4c3,0,5.4-2.4,5.4-5.4
			C68.8,381.5,66.4,379.1,63.5,379.1z"/>
	</g>
</g>
<g id="Star_2">
	<polygon id="XMLID_199_" class="st0" points="206.9,101.7 208.3,96.7 204.1,92.7 200.3,93.5 198,96.7 198.5,100.4 203.1,103.2 	"/>
	<g id="XMLID_618_">
		<path id="XMLID_619_" class="st2" d="M203.1,105.7c-4.3,0-7.7-3.5-7.7-7.7s3.5-7.7,7.7-7.7s7.7,3.5,7.7,7.7
			S207.4,105.7,203.1,105.7z M203.1,95c-1.6,0-2.9,1.3-2.9,2.9s1.3,2.9,2.9,2.9s2.9-1.3,2.9-2.9S204.7,95,203.1,95z"/>
	</g>
</g>
<g id="Star_3">
	<polygon id="XMLID_200_" class="st0" points="342.4,214 337.4,217.4 339.6,223.8 345.2,223.8 347.4,220.9 346.9,216.5 	"/>
	<g id="XMLID_614_">
		<path id="XMLID_615_" class="st2" d="M342.4,227c-4.3,0-7.7-3.5-7.7-7.7s3.5-7.7,7.7-7.7s7.7,3.5,7.7,7.7S346.7,227,342.4,227z
			 M342.4,216.4c-1.6,0-2.9,1.3-2.9,2.9c0,1.6,1.3,2.9,2.9,2.9c1.6,0,2.9-1.3,2.9-2.9C345.3,217.7,344,216.4,342.4,216.4z"/>
	</g>
</g>
<g id="Star_4">
	<polygon id="XMLID_197_" class="st0" points="562.7,452.9 564.8,444.5 559.3,436.3 549.8,437.7 545.4,442.8 547.1,452.9 
		553.3,456.6 	"/>
	<g id="XMLID_610_">
		<path id="XMLID_611_" class="st2" d="M554.9,459c-6.9,0-12.6-5.6-12.6-12.6c0-6.9,5.6-12.6,12.6-12.6c6.9,0,12.6,5.6,12.6,12.6
			C567.5,453.4,561.8,459,554.9,459z M554.9,438.7c-4.3,0-7.7,3.5-7.7,7.7s3.5,7.7,7.7,7.7s7.7-3.5,7.7-7.7S559.1,438.7,554.9,438.7
			z"/>
	</g>
</g>
<g id="Left_Leg_2">
	<path id="XMLID_105_" class="st4" d="M431.6,471.5c0,0-20.7,83.9-14.9,128.1c0,0,12.9,15.7,31.6,4.2c0,0-1.4-69.3,9.1-99.3
		C457.5,504.4,458.3,478.8,431.6,471.5z"/>
	<path id="XMLID_90_" class="st5" d="M448.4,603.8c0,0,13.4,6,12.9,33.6h-76.9c0,0,7.9-29.1,34.8-32.9
		C419.2,604.5,440,612.8,448.4,603.8z"/>
	<path id="XMLID_88_" class="st6" d="M416,582.6c0,0,13.2,12,32.1,6.5l0.2,14.7c0,0-18.2,11.9-31.6-4.2L416,582.6z"/>
	<path id="XMLID_86_" class="st7" d="M444.8,501.7c0,0-10.8,40.4-8.2,88l11.5-0.6c0,0-1.7-63.2,9.4-84.7
		C457.5,504.4,451.8,510.3,444.8,501.7z"/>
	<polygon id="XMLID_74_" class="st8" points="386.3,636 390.4,627.9 459.5,627.9 461.3,637.4 	"/>
	<path id="XMLID_65_" class="st9" d="M428.1,606.6c0,0-16.1,7-15.1,20l-24.7,1.2c0,0,13.1-22.9,33.9-23.4L428.1,606.6z"/>
	<g id="XMLID_383_">
		<path id="XMLID_31_" class="st10" d="M435,610.1c-11.8,0-20-8.8-20.1-8.9l-0.6-0.7v-0.9c0-92.5,14.4-127.6,15.1-129
			c0.5-1.2,1.9-1.8,3.1-1.3c1.2,0.5,1.8,1.9,1.3,3.1c-0.1,0.3-14.6,35.6-14.7,126.2c2.7,2.6,13.8,11.7,27.4,3.1
			c-0.9-9.5-4.7-61.4,8.7-98.2c0.5-1.2,1.8-1.9,3.1-1.4c1.2,0.5,1.9,1.8,1.4,3.1c-14.2,38.7-8.4,96.9-8.3,97.5l0.1,1.4l-1.2,0.8
			C444.9,608.7,439.7,610.1,435,610.1z"/>
	</g>
	<g id="XMLID_377_">
		<path id="XMLID_28_" class="st10" d="M461.2,639.8C461.2,639.8,461.1,639.8,461.2,639.8c-1.4,0-2.4-1.1-2.4-2.5
			c0.6-19-11.4-32.6-11.5-32.7c-0.9-1-0.8-2.5,0.2-3.4c1-0.9,2.5-0.8,3.4,0.2c0.5,0.6,13.4,15.1,12.8,36.1
			C463.5,638.7,462.5,639.8,461.2,639.8z"/>
	</g>
	<g id="XMLID_375_">
		<path id="XMLID_27_" class="st10" d="M386,639.8c-0.1,0-0.3,0-0.5,0c-1.3-0.2-2.1-1.5-1.9-2.8c6.5-33.9,39.2-34.8,39.5-34.8
			c0,0,0,0,0,0c1.3,0,2.4,1,2.4,2.3c0,1.3-1,2.4-2.3,2.4l0,0c-1.2,0-29.1,0.9-34.9,30.9C388.2,639,387.2,639.8,386,639.8z"/>
	</g>
	<g id="XMLID_330_">
		<path id="XMLID_6_" class="st10" d="M435,593c-14.8,0-20.1-11.4-20.2-11.6c-0.5-1.2,0-2.6,1.2-3.2c1.2-0.5,2.6,0,3.2,1.2
			c0.3,0.6,7,14.3,28.1,6.2c1.2-0.5,2.6,0.1,3.1,1.4c0.5,1.2-0.1,2.6-1.4,3.1C443.6,592.1,438.9,593,435,593z"/>
	</g>
	<g id="XMLID_324_">
		<path id="XMLID_3_" class="st10" d="M459.5,630.3h-69.1c-1.3,0-2.4-1.1-2.4-2.4s1.1-2.4,2.4-2.4h69.1c1.3,0,2.4,1.1,2.4,2.4
			S460.8,630.3,459.5,630.3z"/>
	</g>
</g>
<g id="Right_Leg_2">
	<path id="XMLID_106_" class="st4" d="M431.6,471.5c0,0,4.2,36.2,25.9,32.9c0,0,2.3,76.8,27.9,103.3c0,0,13.3,8.1,23.8-3.2
		c0,0-14.4-64.6-8.8-94.6c0,0,0.8-31.9-11.2-38C489.2,471.9,447.2,494.5,431.6,471.5z"/>
	<path id="XMLID_89_" class="st6" d="M477.2,593c0,0,15,2.9,28.5-6.3l3.5,17.8l-11,5.9l-12.8-2.7L477.2,593z"/>
	<path id="XMLID_87_" class="st7" d="M477.2,478.4c0,0,9.7,4.7,9.7,41.8c0,37.1,10.4,69.5,10.4,69.5l7.7-7.2l-3.6-24.3l-2.3-35.4
		l1.4-15.7V489l-8.7-14.1L477.2,478.4z"/>
	<path id="XMLID_73_" class="st5" d="M509.2,604.5c0,0,13.7,13.3,13.2,32.9h-77.1c0,0,4.1-26.8,40.1-29.7
		C485.4,607.7,505.5,615.8,509.2,604.5z"/>
	<polygon id="XMLID_72_" class="st8" points="445.3,637.4 448.1,629.5 521.3,629.5 522.4,637.4 	"/>
	<path id="XMLID_64_" class="st11" d="M496.3,610.4c0,0,6.7,4.9,6.4,19.2l18.6-2.9l-5.4-16.5l-6.1-7.2
		C509.7,603,506.3,609.9,496.3,610.4z"/>
	<g id="XMLID_385_">
		<path id="XMLID_32_" class="st10" d="M495.7,612.8c-3.3,0-7.2-0.7-11.6-2.7l-0.7-0.3l-0.4-0.6c-0.3-0.4-24.8-40.3-27.8-101.9
			c-2.4,0.2-6,0-9.7-2.1c-7.4-4.3-12.1-14.5-14.2-30.1c-0.2-1.3,0.8-2.5,2.1-2.7c1.3-0.2,2.5,0.8,2.7,2.1
			c2.3,17.5,7.7,24.1,11.8,26.6c4.5,2.6,8.6,1.1,8.7,1.1l3.1-1.2l0.1,3.4c2.1,57.7,23.7,96.4,26.8,101.7c12.7,5.2,18.8-1.2,20.5-3.5
			c-2-8.1-14.3-59.2-10.5-90.9c3.8-31-8.3-36.2-8.4-36.2c-1.2-0.5-1.8-1.9-1.4-3.1c0.5-1.2,1.8-1.8,3-1.4
			c0.6,0.2,15.8,6.1,11.5,41.3c-4,32.9,10.5,89.6,10.6,90.1l0.2,0.9l-0.5,0.8C511.8,604.2,506.9,612.8,495.7,612.8z"/>
	</g>
	<g id="XMLID_381_">
		<path id="XMLID_30_" class="st10" d="M521.9,639.8C521.9,639.8,521.8,639.8,521.9,639.8c-1.4,0-2.4-1.1-2.4-2.5
			c0.6-19-11.4-32.6-11.5-32.7c-0.9-1-0.8-2.5,0.2-3.4c1-0.9,2.5-0.8,3.4,0.2c0.5,0.6,13.4,15.1,12.8,36.1
			C524.2,638.7,523.2,639.8,521.9,639.8z"/>
	</g>
	<g id="XMLID_379_">
		<path id="XMLID_29_" class="st10" d="M444.8,639.8c-0.1,0-0.3,0-0.5,0c-1.3-0.2-2.1-1.5-1.9-2.8c6.5-34.1,42.5-31.4,42.8-31.3
			c1.3,0.1,2.3,1.3,2.2,2.6c-0.1,1.3-1.3,2.3-2.6,2.2c-1.3-0.1-32-2.3-37.7,27.5C446.9,639,445.9,639.8,444.8,639.8z"/>
	</g>
	<g id="XMLID_332_">
		<path id="XMLID_7_" class="st10" d="M481,596.5c-1.2,0-2-0.1-2.1-0.1c-1.3-0.1-2.3-1.2-2.2-2.6c0.1-1.3,1.2-2.3,2.6-2.2
			c0.2,0,16.3,1.1,22.4-8.2c0.7-1.1,2.2-1.4,3.3-0.7c1.1,0.7,1.4,2.2,0.7,3.3C499.4,595.5,486.2,596.5,481,596.5z"/>
	</g>
	<g id="XMLID_322_">
		<path id="XMLID_4_" class="st10" d="M520.8,630.3h-69.1c-1.3,0-2.4-1.1-2.4-2.4s1.1-2.4,2.4-2.4h69.1c1.3,0,2.4,1.1,2.4,2.4
			S522.1,630.3,520.8,630.3z"/>
	</g>
</g>
<g id="Left_Arm_2">
	<path id="XMLID_116_" class="st12" d="M441.9,382.3c0,0-27.1,13.7-35.2,39.2c0,0-34.5-20-60.2,0.4c0,0,26.5,23.9,65.1,24.2
		C411.6,446.1,451.3,418.9,441.9,382.3z"/>
	<path id="XMLID_115_" class="st13" d="M348.7,420c0,0,37.7,16.9,61.7,12.9c0,0,25.7-17.8,33.7-51.3c0,0,4.6,46.3-32.5,64.5
		c0,0-45-4.3-67-23.3L348.7,420z"/>
	<g id="XMLID_347_">
		<path id="XMLID_348_" class="st10" d="M412.6,448.7l-0.7-0.1c-1.8-0.1-44.2-3.6-69.2-23.6l-2.2-1.8l2.1-1.9
			c24-21.7,53.2-8.3,62-3.4c13.6-35.6,38.2-38.6,39.3-38.7l2.6-0.3l0.1,2.6c0.1,2,1.2,48.1-33.3,66.8L412.6,448.7z M348,423.1
			c22.4,16.2,58.1,20.2,63.6,20.7c26.6-14.9,29.8-49.1,30.1-59.2c-6.6,1.8-23.6,9.2-33.6,37.7l-1,2.9l-2.6-1.7
			C403.2,422.6,373.2,402.9,348,423.1z"/>
	</g>
	<path id="XMLID_83_" class="st14" d="M368.1,421c0,0,0.6-9.5-10.6-10.3l-6.2-9.1l-11.2-6.3h-3.9l-10.7,4.9l-17.9,22l58.4,0.9
		L368.1,421z"/>
	<g id="XMLID_343_">
		<path id="XMLID_344_" class="st10" d="M371,425.5h-69l12.8-17.6c2.3-3.1,4.5-5.7,6.9-7.8c6.8-6,13.5-8.4,19.9-7
			c9.5,2.1,15.4,11.7,17.2,15.3c4.9,0.4,8.5,2.2,10.7,5.1c3.3,4.5,1.9,10,1.9,10.2L371,425.5z M311.4,420.8H367c0-1.3-0.2-3-1.3-4.4
			c-1.5-2-4.4-3.1-8.5-3.3l-1.5-0.1l-0.6-1.4c-0.1-0.1-5.4-11.9-14.5-13.9c-4.9-1-10.2,0.9-15.7,5.9c-2.1,1.9-4.1,4.2-6.2,7
			L311.4,420.8z"/>
	</g>
</g>
<g id="Right_Arm_1">
	<path id="XMLID_114_" class="st15" d="M165.4,382.3c0,0,27.1,13.7,35.2,39.2c0,0,34.5-20,60.2,0.4c0,0-26.5,23.9-65.1,24.2
		C195.7,446.1,156,418.9,165.4,382.3z"/>
	<path id="XMLID_113_" class="st16" d="M165.4,382.3c0,0,14.3,46.1,30.8,49.5c0,0,31.1,2.6,64.6-9.8l-3.5,4.7
		c0,0-28.4,20.3-61.6,19.4C195.7,446.1,157.8,423.9,165.4,382.3z"/>
	<g id="XMLID_362_">
		<path id="XMLID_363_" class="st10" d="M193.8,448.7l-0.6-0.3c-34.5-18.7-33.4-64.8-33.3-66.8l0.1-2.6l2.6,0.3
			c1.1,0.1,25.7,3.2,39.3,38.7c8.7-4.9,38-18.3,62,3.4l2.1,1.9l-2.2,1.8c-25,20-67.4,23.5-69.2,23.6L193.8,448.7z M164.7,384.6
			c0.4,10.1,3.5,44.3,30.1,59.2c5.4-0.5,41.2-4.5,63.6-20.7c-25.2-20.1-55.2-0.4-56.5,0.4l-2.6,1.7l-1-2.9
			C188.4,394,171.3,386.5,164.7,384.6z"/>
	</g>
	<path id="XMLID_85_" class="st17" d="M238.5,421c0,0-0.6-9.5,10.6-10.3l6.2-9.1l11.2-6.3h3.9l10.7,4.9l17.9,22l-58.4,0.9L238.5,421
		z"/>
	<g id="XMLID_358_">
		<path id="XMLID_359_" class="st10" d="M304.4,425.5h-69l-0.5-1.8c-0.1-0.2-1.4-5.7,1.9-10.2c2.2-3,5.8-4.7,10.7-5.1
			c1.9-3.6,7.7-13.2,17.2-15.3c6.5-1.4,13.2,0.9,19.9,7c2.4,2.1,4.6,4.7,6.9,7.8L304.4,425.5z M239.4,420.8H295l-7.3-10
			c-2.1-2.8-4.1-5.1-6.2-7c-5.6-5-10.9-6.9-15.8-5.9c-9.2,2-14.5,13.7-14.5,13.8l-0.6,1.4l-1.5,0.1c-4.1,0.2-7,1.3-8.5,3.3
			C239.6,417.8,239.4,419.5,239.4,420.8z"/>
	</g>
</g>
<g id="Yellow_Puzzle">
	<polygon id="XMLID_111_" class="st18" points="401.2,423.2 310.7,423.2 310.7,451.9 317.1,456.2 324.3,460.3 328,467 328,476.9 
		323.2,484.7 311.8,489.6 311.8,520.2 340.4,520.2 344.2,531 352.9,536.2 359.4,536.2 366.2,536.2 370.4,532.3 376.4,519.9 
		402.6,519.9 407.3,515.3 407.3,489 413.7,487.4 419.8,483.7 422.7,479.7 424.7,468.1 422.8,463.6 418.5,457.7 415.6,454.1 
		407.3,453.1 407.3,429.9 407.3,425.3 	"/>
	<path id="XMLID_109_" class="st19" d="M406.9,489v27l-5.5,3.9h-6.1l-17.2,1.5l-6.1,10.9l-7.9,5l-11.8-1.1
		c19.2-1,18.1-26.3,18.1-26.3h24.9v-15.2v-10c0,0,24.2-5,27.5-21.1l2.6,6.8l-5.6,13.3L406.9,489z"/>
	<path id="XMLID_68_" class="st19" d="M328,467c0,0,12.9,15.9-7.3,29.6v12.6l20.8,9.4h-30.8v-29.9C310.7,488.8,329.3,485.8,328,467z
		"/>
	<path id="XMLID_62_" class="st20" d="M363.2,482.6l10.2-17c2-3.3-0.4-7.5-4.3-7.5h-10.2h-10.2c-3.9,0-6.2,4.2-4.3,7.5l10.2,17
		C356.6,485.8,361.2,485.8,363.2,482.6z"/>
	<g id="XMLID_436_">
		<path id="XMLID_58_" class="st10" d="M407.3,491.4c-1.3,0-2.4-1.1-2.4-2.4c0-1.3,1.1-2.4,2.4-2.4c8.3,0,15.1-6.8,15.1-15.1
			s-6.8-15.1-15.1-15.1c-1.3,0-2.4-1.1-2.4-2.4s1.1-2.4,2.4-2.4c10.9,0,19.8,8.9,19.8,19.8C427.1,482.5,418.2,491.4,407.3,491.4z"/>
	</g>
	<g id="XMLID_434_">
		<path id="XMLID_57_" class="st10" d="M358.9,539.7c-10.9,0-19.8-8.9-19.8-19.8c0-1.3,1.1-2.4,2.4-2.4s2.4,1.1,2.4,2.4
			c0,8.3,6.8,15.1,15.1,15.1s15.1-6.8,15.1-15.1c0-1.3,1.1-2.4,2.4-2.4s2.4,1.1,2.4,2.4C378.8,530.8,369.9,539.7,358.9,539.7z"/>
	</g>
	<g id="XMLID_426_">
		<path id="XMLID_52_" class="st10" d="M401.2,522.3h-24.8c-1.3,0-2.4-1.1-2.4-2.4s1.1-2.4,2.4-2.4h24.8c2,0,3.7-1.7,3.7-3.7V489
			c0-1.3,1.1-2.4,2.4-2.4s2.4,1.1,2.4,2.4v24.8C409.7,518.5,405.9,522.3,401.2,522.3z"/>
	</g>
	<g id="XMLID_424_">
		<path id="XMLID_51_" class="st10" d="M407.3,456.5c-1.3,0-2.4-1.1-2.4-2.4v-24.8c0-2-1.7-3.7-3.7-3.7H313v27.1
			c0,1.3-1.1,2.4-2.4,2.4s-2.4-1.1-2.4-2.4v-31.9h93c4.7,0,8.5,3.8,8.5,8.5v24.8C409.7,455.4,408.6,456.5,407.3,456.5z"/>
	</g>
	<g id="XMLID_422_">
		<path id="XMLID_50_" class="st10" d="M341.5,522.3h-33.3V489c0-1.3,1.1-2.4,2.4-2.4s2.4,1.1,2.4,2.4v28.5h28.5
			c1.3,0,2.4,1.1,2.4,2.4S342.8,522.3,341.5,522.3z"/>
	</g>
</g>
<g id="Red_Puzzle">
	<polygon id="XMLID_112_" class="st20" points="310.6,423.2 219.3,423.2 214.7,427.6 214.7,454.1 225.4,457.3 230.8,467.5 
		230.8,475.5 228.4,482.6 222.6,487.4 213.8,489 213.8,516 219.3,519.9 243,519.9 244.7,527.3 249.8,533.6 258.6,537.2 268.3,536.2 
		272.7,532.3 277.9,520.2 311.8,520.2 311.8,489.6 323.1,483.7 327.7,474.7 326.8,465.1 321.9,456 311.8,454.1 	"/>
	<path id="XMLID_110_" class="st21" d="M230.8,467.5c0,0,9.2,16.3-5.4,27.2v15.2h24.9c0,0-1.2,25.3,18.1,26.3l-11.8,1.1l-7.9-5
		l-6.1-10.9l-17.2-1.5h-6.1l-5.5-3.9v-27C213.8,489,232.1,485.8,230.8,467.5z"/>
	<path id="XMLID_69_" class="st21" d="M268.8,423.2c0,0,16.3,11.3,30.9,11.3v29.2c0,0,21.4-3.3,28,11.1c0,0,5.7-12.5-15.9-22.1v-28
		L268.8,423.2z"/>
	<path id="XMLID_63_" class="st18" d="M258,460.5l-10.2,17c-2,3.3,0.4,7.5,4.3,7.5h10.2h10.2c3.9,0,6.2-4.2,4.3-7.5l-10.2-17
		C264.5,457.3,259.9,457.3,258,460.5z"/>
	<g id="XMLID_442_">
		<path id="XMLID_61_" class="st10" d="M310.6,491.4c-1.3,0-2.4-1.1-2.4-2.4c0-1.3,1.1-2.4,2.4-2.4c8.3,0,15.1-6.8,15.1-15.1
			s-6.8-15.1-15.1-15.1c-1.3,0-2.4-1.1-2.4-2.4s1.1-2.4,2.4-2.4c10.9,0,19.8,8.9,19.8,19.8C330.4,482.5,321.5,491.4,310.6,491.4z"/>
	</g>
	<g id="XMLID_440_">
		<path id="XMLID_60_" class="st10" d="M213.8,491.4c-1.3,0-2.4-1.1-2.4-2.4c0-1.3,1.1-2.4,2.4-2.4c8.3,0,15.1-6.8,15.1-15.1
			s-6.8-15.1-15.1-15.1c-1.3,0-2.4-1.1-2.4-2.4s1.1-2.4,2.4-2.4c10.9,0,19.8,8.9,19.8,19.8C233.7,482.5,224.8,491.4,213.8,491.4z"/>
	</g>
	<g id="XMLID_438_">
		<path id="XMLID_59_" class="st10" d="M260.5,539.7c-10.9,0-19.8-8.9-19.8-19.8c0-1.3,1.1-2.4,2.4-2.4c1.3,0,2.4,1.1,2.4,2.4
			c0,8.3,6.8,15.1,15.1,15.1c8.3,0,15.1-6.8,15.1-15.1c0-1.3,1.1-2.4,2.4-2.4c1.3,0,2.4,1.1,2.4,2.4
			C280.3,530.8,271.4,539.7,260.5,539.7z"/>
	</g>
	<g id="XMLID_432_">
		<path id="XMLID_56_" class="st10" d="M243,522.3h-23.1c-4.7,0-8.5-3.8-8.5-8.5V489c0-1.3,1.1-2.4,2.4-2.4s2.4,1.1,2.4,2.4v24.8
			c0,2,1.7,3.7,3.7,3.7H243c1.3,0,2.4,1.1,2.4,2.4S244.3,522.3,243,522.3z"/>
	</g>
	<g id="XMLID_430_">
		<path id="XMLID_54_" class="st10" d="M313,522.3h-35c-1.3,0-2.4-1.1-2.4-2.4s1.1-2.4,2.4-2.4h30.3V489c0-1.3,1.1-2.4,2.4-2.4
			s2.4,1.1,2.4,2.4V522.3z"/>
	</g>
	<g id="XMLID_428_">
		<path id="XMLID_53_" class="st10" d="M310.6,456.5c-1.3,0-2.4-1.1-2.4-2.4v-28.5h-88.3c-2,0-3.7,1.7-3.7,3.7v24.8
			c0,1.3-1.1,2.4-2.4,2.4s-2.4-1.1-2.4-2.4v-24.8c0-4.7,3.8-8.5,8.5-8.5h93v33.3C313,455.4,311.9,456.5,310.6,456.5z"/>
	</g>
</g>
<g id="Body_2">
	<path id="XMLID_97_" class="st22" d="M448.8,381.6c0,0-30.9,24.5-17.2,89.9c0,0,15.5,27.1,57.6,0.4l11.2-82.6
		c0,0-13.5-11.9-21.3-8.7C479.1,380.6,459.3,402,448.8,381.6z"/>
	<path id="XMLID_78_" class="st23" d="M446.8,380.6c0,0-5.9,12.2,4.9,26.2c0,0,28.3,2.7,35.7-25.2l-7.1-1.4c0,0-9.7,13.7-22.9,9.3
		l-5.8-4.1L446.8,380.6z"/>
	<g id="XMLID_412_">
		<path id="XMLID_45_" class="st10" d="M453.7,485.5c-9.7,0-18.9-3.1-24.2-12.8l-0.2-0.6c-0.5-2.6-12.7-63.2,17.9-92.1
			c1-0.9,2.5-0.9,3.4,0.1c0.9,1,0.9,2.5-0.1,3.4c-27.5,26-17.5,82.4-16.6,87.3c11.3,20,46.2,4.3,53,1c3.9-46.2,9.6-75,10.9-81.5
			c-10.4-8.7-18.1-7.3-18.5-7.2c-1.3,0.3-2.5-0.6-2.8-1.9c-0.3-1.3,0.5-2.5,1.8-2.8c0.4-0.1,10.7-2.2,23.7,9.2l1.1,0.9l-0.3,1.4
			c-0.1,0.3-6.8,30.5-11.2,83.6l-0.1,1.3l-1.2,0.6C489,475.9,470.6,485.5,453.7,485.5z"/>
	</g>
	<g id="XMLID_340_">
		<path id="XMLID_11_" class="st10" d="M447.8,484.1c-0.7,0-1.3-0.5-1.5-1.1c-12.2-49.5,9.6-93.2,9.8-93.6c0.4-0.7,1.3-1,2-0.7
			c0.7,0.4,1,1.3,0.7,2c-0.2,0.4-21.5,43.1-9.5,91.5c0.2,0.8-0.3,1.6-1.1,1.8C448.1,484.1,448,484.1,447.8,484.1z"/>
	</g>
	<g id="XMLID_338_">
		<path id="XMLID_10_" class="st10" d="M457.1,408.2c-3.8,0-6.2-0.9-6.3-0.9l-0.4-0.1l-0.3-0.3c-0.4-0.4-8.6-10.3-5.6-22.8
			c0.2-0.8,1-1.3,1.8-1.1c0.8,0.2,1.3,1,1.1,1.8c-2.4,9.8,3.5,18.1,4.8,19.8c2.8,0.9,20.3,4.8,34.7-23.4c0.4-0.7,1.3-1,2-0.7
			c0.7,0.4,1,1.3,0.7,2C478.4,404.6,464.8,408.2,457.1,408.2z"/>
	</g>
</g>
<g id="Right_Arm_2">
	<path id="XMLID_95_" class="st12" d="M501.6,392.2c0,0,18.7,38.3-5.1,75.9c0,0-39.2,29.7-82.8,9.6c0,0,6.7-11.2,0-18.4
		c0,0,38.9,2.9,61.1-17.6C474.8,441.7,487.4,404.4,501.6,392.2z"/>
	<path id="XMLID_82_" class="st14" d="M415.6,456.9c0,0-7-12.1-15.9-13.1c-8.8-1-8.8-1-8.8-1l-5.6,2.1l-3.6,5l2.4,4.2l-8.7,5.4
		l-5.7,7.1l1,6.2l5,5.7l13.4,8.3l8.9,0.7l12.4-5.3l2.2-5.9l3.1-8l-2.4-8.8L415.6,456.9z"/>
	<path id="XMLID_79_" class="st13" d="M415.6,468.1c0,0,42.7,16.1,76.3-11.7c0,0,16-21.8,10.8-64.3c0,0,17.6,41.8-8.2,77.4
		c0,0-31.4,22.6-80.7,8.1L415.6,468.1z"/>
	<g id="XMLID_353_">
		<path id="XMLID_354_" class="st10" d="M444.1,485c-9.7,0-20.4-1.4-31.9-5l-2.9-0.9l1.6-2.6c3.4-5.5,2.6-10.9,1.4-14.5
			c-0.5-1.4-0.2-3,0.8-4.1c1-1.1,2.6-1.6,4.1-1.3c23.9,5.5,50.8-12.7,55.6-16.1c5.3-30.1,27.3-49.3,28.2-50.1l2.2-1.9l1.4,2.6
			c0.2,0.4,19.9,37.9-6.9,78.4l-0.3,0.4l-0.4,0.3C496,470.9,475.2,485,444.1,485z M416.5,476.3c41.9,12,73.9-7.5,77.6-9.9
			c20.7-31.7,11.5-61,7.8-70.2c-5.8,5.8-20.6,22.8-24.5,46l-0.2,0.9l-0.8,0.6c-1.3,1-31.1,23.5-59.3,17.7
			C418.2,464.9,419,470.5,416.5,476.3z"/>
	</g>
	<g id="XMLID_351_">
		<path id="XMLID_16_" class="st10" d="M393.9,489.7c-6.2,0-12.2-2.5-17.9-7.5c-6.2-5.4-8.8-10.7-7.7-15.7c1.4-6.2,8.3-10,12.6-11.8
			c-1.8-2.5-2.3-4.8-1.6-7.1c1.9-5.8,11.7-7.3,12.9-7.5l0.2,0l0.2,0c9.4,0.5,16.1,3.3,19.8,8.1c4.1,5.4,2.9,11.3,2.9,11.6
			c-0.3,1.3-1.5,2.1-2.8,1.8c-1.3-0.3-2.1-1.5-1.8-2.8c0-0.2,0.8-4.2-2-7.8c-2.8-3.6-8.2-5.7-16-6.2c-3.2,0.5-8.1,2.1-8.7,4.2
			c-0.4,1.1,0.7,2.9,2.8,4.9l3.1,2.9l-4,1.1c-3.2,0.9-11.6,4.4-12.8,9.5c-0.7,3.2,1.4,6.9,6.2,11c5.4,4.6,10.9,6.8,16.4,6.3
			c9.2-0.8,15.5-8.6,15.6-8.6c0.8-1,2.3-1.2,3.4-0.4c1,0.8,1.2,2.3,0.4,3.3c-0.3,0.4-7.6,9.4-18.9,10.4
			C395.3,489.7,394.6,489.7,393.9,489.7z"/>
	</g>
</g>
<g id="Body_1">
	<g id="XMLID_207_">
		<path id="XMLID_108_" class="st24" d="M163.9,382l-24.7-1.4l-6.9,0.2l-16.2,3.6l-8.5,5.7c0,0,15.6,55.4,14.1,74.9
			c0,0,41.6,23.8,64-2.9C185.7,462.1,189.5,407.3,163.9,382z"/>
		<path id="XMLID_107_" class="st25" d="M127.9,381.6c0,0,21.7,45,21.9,93.1l-27.9-6.6l-4.4-33.3l-5.9-29.4l-5.2-12.8
			C106.4,392.6,114.3,382.5,127.9,381.6z"/>
		<g id="XMLID_416_">
			<path id="XMLID_417_" class="st10" d="M158.3,477.2c-17.7,0-36-7-37.3-7.5l-1.4-0.5l-0.1-1.5c-4.4-52.8-14.1-76.5-14.2-76.7
				l-0.7-1.6l1.3-1.1c12.5-11,25.3-10.1,26.5-10c15.1,0.8,29.7,1,29.8,1l0.9,0l0.7,0.6c30.5,28.8,24.5,80.3,24.2,82.5l-0.1,0.4
				l-0.2,0.4C182,473.9,170.3,477.2,158.3,477.2z M124.2,465.7c8,2.8,47.8,15.6,59.3-4.4c0.5-5,4.5-51.4-22.1-77.3
				c-3.5,0-16.2-0.3-29.2-1l-0.1,0c-0.2,0-10.9-0.9-21.6,7.7C112.7,396.9,120.2,420.3,124.2,465.7z"/>
		</g>
		<g id="XMLID_372_">
			<path id="XMLID_26_" class="st10" d="M172.6,475.1c-1.3,0-2.3-1-2.4-2.3c-2.3-57.9-16.7-81.3-16.9-81.5c-0.7-1.1-0.4-2.6,0.7-3.3
				c1.1-0.7,2.6-0.4,3.3,0.7c0.6,1,15.2,24.4,17.6,83.9C175,473.9,174,475,172.6,475.1C172.6,475.1,172.6,475.1,172.6,475.1z"/>
		</g>
	</g>
	<circle id="XMLID_217_" class="st10" cx="152.3" cy="402.5" r="2.5"/>
	<circle id="XMLID_219_" class="st10" cx="156.5" cy="415" r="2.5"/>
	<circle id="XMLID_220_" class="st10" cx="159.7" cy="429" r="2.5"/>
	<circle id="XMLID_221_" class="st10" cx="162.2" cy="442.8" r="2.5"/>
</g>
<g id="Right_Leg_1">
	<path id="XMLID_103_" class="st26" d="M169.5,603.8c0,0,21.6,10.3,31.1-5.5c0,0-1.4-85.8-14.8-127.9c0,0-27.9-1.5-25.9,34l5.6,19
		l2.9,18.3C168.3,541.7,172.1,594.8,169.5,603.8z"/>
	<path id="XMLID_101_" class="st27" d="M169.3,585.2c0,0,11.4,9.7,31.2-4.8l0,17.9c0,0-12.3,16.8-31.1,5.5L169.3,585.2z"/>
	<path id="XMLID_100_" class="st28" d="M185.7,470.4c0,0,7.2,67.9-0.8,117.4l9.1-2.8l6.5-4.7C200.6,580.4,196.8,489.2,185.7,470.4z"
		/>
	<polygon id="XMLID_92_" class="st29" points="184,589.8 181.5,607.9 169.5,603.8 169.3,585.2 176.7,589.1 	"/>
	<path id="XMLID_91_" class="st24" d="M169.5,603.8c0,0-13.4,6-12.9,33.6h76.9c0,0-7.9-29.1-34.8-32.9
		C198.6,604.5,177.9,612.8,169.5,603.8z"/>
	<polygon id="XMLID_75_" class="st30" points="157,626.7 228.4,626.7 231.3,637.4 156.6,637.4 	"/>
	<path id="XMLID_66_" class="st31" d="M187.7,607.1c0,0,12.6,3.2,16.6,19.6h24.1c0,0-10.5-18.3-29.8-22.2L187.7,607.1z"/>
	<g id="XMLID_396_">
		<path id="XMLID_37_" class="st10" d="M182.3,610.1c-4.6,0-9.9-1.4-15.4-5.2l-1.2-0.8l0.1-1.4c0.1-0.6,5.8-58.8-8.3-97.5
			c-0.5-1.2,0.2-2.6,1.4-3.1c1.2-0.5,2.6,0.2,3.1,1.4c13.4,36.7,9.6,88.6,8.7,98.2c13.7,8.5,24.7-0.6,27.4-3.1
			c-0.1-90.6-15.3-129.2-15.5-129.6c-0.5-1.2,0.1-2.6,1.3-3.1c1.2-0.5,2.6,0.1,3.1,1.3c0.6,1.6,15.9,40,15.9,132.4v0.9l-0.6,0.7
			C202.2,601.3,194.1,610.1,182.3,610.1z"/>
	</g>
	<g id="XMLID_390_">
		<path id="XMLID_34_" class="st10" d="M156.1,639.8c-1.3,0-2.3-1-2.4-2.3c-0.7-20.9,12.2-35.5,12.8-36.1c0.9-1,2.4-1.1,3.4-0.2
			c1,0.9,1.1,2.4,0.2,3.4c-0.1,0.1-12.1,13.8-11.5,32.7C158.6,638.6,157.5,639.7,156.1,639.8C156.2,639.8,156.2,639.8,156.1,639.8z"
			/>
	</g>
	<g id="XMLID_388_">
		<path id="XMLID_33_" class="st10" d="M231.3,639.8c-1.1,0-2.1-0.8-2.3-1.9c-5.8-30-33.7-30.9-34.9-30.9c-1.3,0-2.4-1.1-2.3-2.4
			c0-1.3,1.1-2.3,2.4-2.3c0,0,0,0,0,0c0.3,0,33,0.9,39.5,34.8c0.2,1.3-0.6,2.5-1.9,2.8C231.6,639.7,231.4,639.8,231.3,639.8z"/>
	</g>
	<g id="XMLID_334_">
		<path id="XMLID_8_" class="st10" d="M180.1,591.5c-7,0-11.9-2.9-11.9-2.9c-1.1-0.7-1.5-2.1-0.8-3.3c0.7-1.1,2.1-1.5,3.3-0.8
			c0.6,0.3,13.4,7.6,26.4-5.7c0.9-1,2.4-1,3.4-0.1c0.9,0.9,1,2.4,0.1,3.4C193.2,589.4,185.9,591.5,180.1,591.5z"/>
	</g>
	<g id="XMLID_326_">
		<path id="XMLID_5_" class="st10" d="M228.4,630.3H157c-1.3,0-2.4-1.1-2.4-2.4s1.1-2.4,2.4-2.4h71.4c1.3,0,2.4,1.1,2.4,2.4
			S229.8,630.3,228.4,630.3z"/>
	</g>
</g>
<g id="Left_Leg_1">
	<path id="XMLID_104_" class="st26" d="M118.6,476.8l-1.5,12.8l0.7,13.3v22.2c0,0-2.8,54.6-10.3,77.9c0,0,7.6,12.8,24.9,4.7
		c0,0,27.7-55.2,27.4-103.3c0,0,16.4-6,21.7-22.3l-21.7,2.6l-24.6-5.7l-15.8-5.4L118.6,476.8z"/>
	<path id="XMLID_102_" class="st27" d="M111.6,585.2c0,0,9.5,12.2,28.3,5.5l-7.5,17l-7.6,2.4l-10.2-0.7l-6-4.9L111.6,585.2z"/>
	<path id="XMLID_94_" class="st28" d="M126.4,592.6c0,0,19.1-38.8,24.7-98.5c0,0,18.6,4.6,30.3-12c0,0-9.8,24.9-21.7,22.3
		c0,0-2.9,50.5-19.8,86.3L126.4,592.6z"/>
	<polygon id="XMLID_93_" class="st29" points="126.4,592.6 120.5,610.4 108.7,604.5 111.6,585.2 118.6,591 124.8,593 	"/>
	<path id="XMLID_71_" class="st24" d="M108.7,604.5c0,0-13.7,13.3-13.2,32.9h77.1c0,0-4.1-26.8-40.1-29.7
		C132.4,607.7,112.3,615.8,108.7,604.5z"/>
	<polygon id="XMLID_70_" class="st30" points="96.3,627.9 169.4,627.9 172.6,637.4 95.4,637.4 	"/>
	<path id="XMLID_67_" class="st32" d="M126.4,610.4c0,0-2.7,13.5,7.6,17.5H96.3c0,0,4.1-23.9,12.4-23.4
		C108.7,604.5,116.6,612.7,126.4,610.4z"/>
	<g id="XMLID_398_">
		<path id="XMLID_38_" class="st10" d="M121.7,612.8c-11.2,0-16.1-8.6-16.2-8.7l-0.5-0.8l0.2-0.9c0.1-0.6,14.6-57.3,10.6-90.1
			c-4.2-34.2,3.7-45.7,4.1-46.2c0.8-1.1,2.3-1.3,3.3-0.5c1.1,0.8,1.3,2.2,0.6,3.3c-0.1,0.2-7.1,11-3.2,42.8
			c3.9,31.7-8.4,82.8-10.5,90.9c1.7,2.3,7.8,8.7,20.5,3.5c3.1-5.4,24.7-44.1,26.8-101.7l0.1-2.3l2.3,0c0.2,0,19.1-0.7,23.5-40.2
			c0.1-1.3,1.3-2.3,2.6-2.1c1.3,0.1,2.3,1.3,2.1,2.6c-4,36.3-20,43-26,44.2c-2.8,62-27.6,102.3-27.8,102.7l-0.4,0.6l-0.7,0.3
			C128.8,612.1,125,612.8,121.7,612.8z"/>
	</g>
	<g id="XMLID_394_">
		<path id="XMLID_36_" class="st10" d="M95.4,639.8c-1.3,0-2.3-1-2.4-2.3c-0.7-20.9,12.2-35.5,12.8-36.1c0.9-1,2.4-1.1,3.4-0.2
			c1,0.9,1.1,2.4,0.2,3.4c-0.1,0.1-12.1,13.8-11.5,32.7C97.9,638.6,96.8,639.7,95.4,639.8C95.5,639.8,95.5,639.8,95.4,639.8z"/>
	</g>
	<g id="XMLID_392_">
		<path id="XMLID_35_" class="st10" d="M172.6,639.8c-1.1,0-2.1-0.8-2.3-1.9c-5.7-29.8-36.4-27.6-37.7-27.5
			c-1.3,0.1-2.5-0.9-2.6-2.2s0.9-2.5,2.2-2.6c0.4,0,36.3-2.7,42.8,31.3c0.2,1.3-0.6,2.5-1.9,2.8
			C172.9,639.7,172.7,639.8,172.6,639.8z"/>
	</g>
	<g id="XMLID_336_">
		<path id="XMLID_9_" class="st10" d="M128,595.4c-11.8,0-16.8-7.2-17.1-7.6c-0.7-1.1-0.5-2.6,0.6-3.3c1.1-0.7,2.6-0.5,3.3,0.6
			c0.3,0.4,7,9.5,24.3,3.3c1.2-0.5,2.6,0.2,3,1.4c0.4,1.2-0.2,2.6-1.4,3C135.8,594.7,131.6,595.4,128,595.4z"/>
	</g>
	<g id="XMLID_328_">
		<path id="XMLID_23_" class="st10" d="M169.4,630.3H97.4c-1.3,0-2.4-1.1-2.4-2.4s1.1-2.4,2.4-2.4h71.9c1.3,0,2.4,1.1,2.4,2.4
			S170.7,630.3,169.4,630.3z"/>
	</g>
</g>
<g id="Left_Arm_1">
	<path id="XMLID_98_" class="st15" d="M106.2,394.3c0,0-19.4,36.1,4.4,73.8c0,0,39.2,29.7,82.8,9.6c0,0-6.7-11.2,0-18.4
		c0,0-38.9,2.9-61.1-17.6C132.3,441.7,120.4,406.6,106.2,394.3z"/>
	<path id="XMLID_84_" class="st17" d="M191,456.9c0,0,7-12.1,15.9-13.1c8.8-1,8.8-1,8.8-1l5.6,2.1l3.6,5l-2.4,4.2l8.7,5.4l5.7,7.1
		l-1,6.2l-5,5.7l-13.4,8.3l-8.9,0.7l-12.4-5.3l-2.2-5.9l-3.1-8l2.4-8.8L191,456.9z"/>
	<path id="XMLID_81_" class="st16" d="M106.4,392.6c0,0-6.5,50.3,15,69.5c0,0,37.4,16.8,69.6,6l2.4,9.6c0,0-38,15.3-82.8-9.6
		C110.6,468.1,84,426,106.4,392.6z"/>
	<path id="XMLID_80_" class="st33" d="M106.2,394.3c0,0,16.9,34,16.9,54.9c0,0,37.2,23.9,70.3,10.1c0,0-40.1,2.5-61.1-17.6
		C132.3,441.7,123.1,403.1,106.2,394.3z"/>
	<g id="XMLID_368_">
		<path id="XMLID_369_" class="st10" d="M162.3,485c-31.1,0-51.9-14.2-53-15l-0.4-0.3l-0.3-0.4c-26.9-40.6-5.2-77.7-4.9-78.1
			l1.5-2.5l2.2,2c0.9,0.8,20.9,19.6,26.2,49.6c4.8,3.4,31.7,21.6,55.6,16.1c1.5-0.3,3,0.2,4.1,1.3c1,1.1,1.3,2.7,0.8,4.1
			c-1.3,3.6-2.1,9,1.4,14.5l1.6,2.6l-2.9,0.9C182.7,483.6,172,485,162.3,485z M112.3,466.4c3.7,2.4,35.8,21.9,77.6,9.9
			c-2.6-5.8-1.8-11.4-0.7-14.8c-28.1,5.7-58-16.8-59.3-17.7l-0.8-0.6l-0.2-0.9c-3.8-23.2-17.3-39.8-22.7-45.6
			C102.1,405.6,91.6,434.8,112.3,466.4z"/>
	</g>
	<g id="XMLID_366_">
		<path id="XMLID_24_" class="st10" d="M212.5,489.7c-0.7,0-1.4,0-2.1-0.1c-11.2-1-18.6-10-18.9-10.4c-0.8-1-0.7-2.5,0.4-3.4
			c1-0.8,2.5-0.7,3.4,0.4c0.1,0.1,6.4,7.8,15.6,8.6c5.5,0.5,11-1.6,16.4-6.3c4.8-4.2,6.9-7.9,6.2-11c-1.2-5.2-9.6-8.6-12.8-9.5
			l-4.1-1.1l3.1-2.9c2.1-2,3.2-3.8,2.8-4.9c-0.7-2.1-5.5-3.7-8.7-4.2c-8,0.5-13.8,2.7-17.2,6.5c-3.2,3.6-3.1,7.5-3.1,7.6
			c0.1,1.3-0.9,2.4-2.2,2.5c-1.3,0-2.4-0.9-2.5-2.2c0-0.2-0.3-5.9,4.3-11c4.3-4.8,11.3-7.6,20.8-8.1l0.2,0l0.2,0
			c1.1,0.2,11,1.7,12.9,7.5c0.7,2.2,0.2,4.6-1.6,7.1c4.3,1.8,11.3,5.6,12.7,11.8c1.1,5-1.5,10.3-7.7,15.7
			C224.6,487.2,218.6,489.7,212.5,489.7z"/>
	</g>
</g>
<g id="Neck_2">
	<path id="XMLID_96_" class="st14" d="M448.8,369.4v12.3c0,0,9.7,18.4,30.3-1v-15.3L448.8,369.4z"/>
	<path id="XMLID_77_" class="st34" d="M448.8,372c0,0,9.3,13.2,30,0l0.3-6.6l-30.3,4V372z"/>
	<g id="XMLID_414_">
		<path id="XMLID_46_" class="st10" d="M461.2,392.8c-0.5,0-1,0-1.4-0.1c-5.3-0.5-9.7-3.9-13.1-10l-0.3-0.6l0.1-9.6
			c0-1.3,1.1-2.4,2.4-2.4c0,0,0,0,0,0c1.3,0,2.4,1.1,2.4,2.4l-0.1,8.3c2.6,4.3,5.6,6.7,9.1,7c6.3,0.6,13.3-5.3,16.1-8.3l0-10.8
			c0-1.3,1.1-2.4,2.4-2.4c0,0,0,0,0,0c1.3,0,2.4,1.1,2.4,2.4l0,12.6l-0.6,0.7C480.2,382.7,471.3,392.8,461.2,392.8z"/>
	</g>
</g>
<g id="Neck_1">
	<path id="XMLID_99_" class="st17" d="M133.4,370.6l-1.1,10c0,0,15.2,19.6,31.7,1.3l1.5-8L133.4,370.6z"/>
	<path id="XMLID_76_" class="st35" d="M133.4,370.6c0,0,18.8,17.2,32,3.3L133.4,370.6z"/>
	<g id="XMLID_420_">
		<path id="XMLID_49_" class="st10" d="M149.8,392.8c-10,0-18.9-10.2-19.3-10.6l-0.7-0.8l0.7-9c0.1-1.3,1.3-2.3,2.6-2.2
			c1.3,0.1,2.3,1.3,2.2,2.6l-0.6,6.9c2.2,2.2,9.2,8.9,16.1,8.2c3.5-0.4,6.6-2.8,9.2-7.1l0.5-5.3c0.1-1.3,1.3-2.3,2.6-2.2
			c1.3,0.1,2.3,1.3,2.2,2.6l-0.6,6.4l-0.2,0.4c-3.4,6.1-7.8,9.4-13.1,10C150.8,392.8,150.3,392.8,149.8,392.8z"/>
	</g>
</g>
<g id="Head_2">
	<polygon id="XMLID_498_" class="st14" points="374.5,306.1 375.1,311.3 368.7,314 362.7,320.2 363.6,326.4 367.8,337.2 
		378.7,337.9 380.4,351.1 389.2,365.7 401.7,374.3 413.4,376.6 429.8,374.4 512.7,363.4 525.8,360 537.4,346.1 539.8,337.7 
		540.8,319.5 546.3,315.8 551.4,307.2 550.1,298.3 543.9,292 536.9,289.9 516.3,288.3 484.1,279 446.4,264.4 427.4,256.1 
		424.2,264.3 418.9,270.5 409.3,274.7 395.7,272.7 392.8,286.6 389.8,294.5 381.2,304.4 	"/>
	<path id="XMLID_497_" class="st36" d="M374,306.7l9.4-4.9l10-18l2.3-11.2l15.3,2.7l6.9-2l6.3-9.1l3.2-8.2l37,15.3l54.7,17.7
		l9.1,0.2l12.2-0.1l9-7l4-14.9l-3.5-23.3L539.7,225c0,0-4.3-5.4-5.9-5.4c-1.7,0-12.1-5-12.1-5l-7.2,1.6l-4.8,3.7l-4,6.9l-3.2,3.4
		l-6.9,0.5l-6.4-1.5c0,0-6.2-5.7-7-6c-0.9-0.4-11.7-1.2-11.7-1.2l-8.1,7.6l-19.8-6.1l-23.9-0.7l-16.1,1.2l-20.2,6.5l-16.4,11.2
		l-7.5,17.1l-1.7,14.9l2.1,14l8.2,13.5L374,306.7z"/>
	<path id="XMLID_496_" class="st34" d="M380.5,352.1c0,0,12.9,17.7,36,14.6c23.1-3.1,49.5-6.5,49.5-6.5l1.2,9.3l-54.4,7.2l-11.4-1.4
		l-9.7-5.1l-6.3-6.5L380.5,352.1z"/>
	<path id="XMLID_495_" class="st34" d="M541.1,330.8c0,0-7.9,20.4-31,23.5c-23.1,3.1-49.5,6.5-49.5,6.5l1.2,9.3l54.4-7.2l10.6-4.3
		l8-7.4l4.4-7.9L541.1,330.8z"/>
	<path id="XMLID_494_" class="st37" d="M460,335.2l-4.6-34.8c0,0,11.1,10.8,13.5,24.1l-2.2,7.8l-5.1,3.3"/>
	<path id="XMLID_493_" class="st34" d="M375.3,316.5c0,0,27.1-8.9,20.2-42.4l-2.6,12.5l-5.7,12.2l-5.9,5.6l-6.7,1.7L375.3,316.5z"/>
	<path id="XMLID_492_" class="st34" d="M396.6,281.6c0,0,25.1,5.5,31.9-22.9l-2.2,0.3l-5.4,11.7l-9.8,4.6l-15.6-1.3l-1.3,6.1
		L396.6,281.6z"/>
	<path id="XMLID_491_" class="st34" d="M423.1,265.8c0,0,57.4,33.2,111.6,24.9l-30.8-4.1l-32.5-12.5L442,263.4l-14.6-7.3
		L423.1,265.8z"/>
	
		<ellipse id="XMLID_490_" transform="matrix(0.9914 -0.131 0.131 0.9914 -37.2924 68.249)" class="st37" cx="499.9" cy="317.5" rx="9.5" ry="5"/>
	
		<ellipse id="XMLID_489_" transform="matrix(0.9914 -0.131 0.131 0.9914 -39.4734 57.3294)" class="st37" cx="415.8" cy="328.6" rx="9.5" ry="5"/>
	<path id="XMLID_488_" class="st38" d="M365.2,298c0,0,17.5-2.4,28.9-24.7l-3.2,18.3l-7.5,10.3l-8.9,4.2L365.2,298z"/>
	<path id="XMLID_487_" class="st38" d="M393.9,271.9c0,0,21,2.7,31.4-15.6l-1.2,7.9l-6.3,9.1l-11.6,3l-10.9-2.2L393.9,271.9z"/>
	<path id="XMLID_486_" class="st38" d="M471.5,274.1c0,0,64.5,21,81.2-4.5l-3.4,12.4l-4.6,6.4l-15.2,1.6l-17.5-1.6l-22.1-6.7
		L471.5,274.1z"/>
	<path id="XMLID_485_" class="st39" d="M358.4,285.3c0,0-8.8-44.6,51.6-54c0,0,35.6,3.9,43.9-4.7c0,0-46.5-13.4-76.7,6.9
		C377.3,233.5,347.1,250.8,358.4,285.3z"/>
	<path id="XMLID_484_" class="st39" d="M449.7,257.6c0,0,63.5,22.2,84.5,16C534.2,273.7,526.7,293.1,449.7,257.6z"/>
	<g id="XMLID_475_">
		<g id="XMLID_480_">
			<path id="XMLID_481_" class="st40" d="M536.3,292.6c-26.1,3.5-94.6-26.9-108-33.1c-1.2,3.9-4.4,11.3-11.5,15.3
				c-5.5,3.1-12.2,3.5-19.8,1.2c-1.2,8.2-6.2,33.1-23,32.7l-0.6,0l-0.5-0.4c-0.3-0.2-7.6-5.6-13-15.3c-5-9-9.3-23.6-1.2-41.7
				c5.4-12.1,16-20.9,31.5-26c25.2-8.4,57.2-4.7,71,1.7c1.4-2.2,4.4-5.6,9.3-6.8c6.1-1.5,13.1,0.9,20.9,7.1c0.5,0.3,4.8,3,8.4,2
				c2-0.6,3.5-2.2,4.6-4.9c2.4-5.8,7.2-9.8,13.1-10.9c7.6-1.4,15.8,1.8,22.7,9c9.3,9.7,18.8,38.7,12.9,56.1
				c-2.7,7.9-8.4,12.8-16.4,14C536.6,292.6,536.4,292.6,536.3,292.6z M425.4,253.7l2.4,1.1c0.8,0.4,80.8,37.3,108,33.7
				c0.1,0,0.2,0,0.3,0c6.5-1,10.9-4.7,13.1-11.2c5.4-15.8-3.5-43.2-11.9-52c-5.9-6.1-12.8-9-19-7.8c-4.6,0.9-8.2,3.9-10.1,8.4
				c-1.6,3.9-4.1,6.4-7.3,7.3c-5.8,1.7-11.7-2.4-12-2.6l-0.1-0.1c-6.7-5.4-12.6-7.6-17.4-6.4c-5.3,1.3-7.6,6.3-7.6,6.4l-0.9,2
				l-2-1.1c-11.7-6.5-44.5-10.6-69.5-2.4c-14.4,4.8-24.2,12.8-29.1,23.8l-1.9-0.8l1.9,0.8c-13.2,29.4,8.7,48.7,12.3,51.6
				c15.4-0.5,18.5-31.2,18.6-31.6l0.3-2.6l2.5,0.9c7.5,2.8,13.8,2.7,18.8-0.1c8.1-4.5,10.1-14.9,10.1-15L425.4,253.7z"/>
		</g>
		<g id="XMLID_478_">
			<path id="XMLID_479_" class="st40" d="M378.4,340.6c-8.4,1.1-16.2-4.9-17.3-13.3s4.8-16.2,13.3-17.4c1.1-0.1,2.1,0.6,2.3,1.8
				s-0.6,2.1-1.8,2.3c-6.2,0.8-10.6,6.5-9.7,12.8c0.8,6.2,6.5,10.6,12.7,9.8c1.1-0.1,2.1,0.6,2.3,1.8S379.6,340.4,378.4,340.6z"/>
		</g>
		<g id="XMLID_476_">
			<path id="XMLID_477_" class="st40" d="M370.4,327.3c0,0-0.1,0-0.1,0c-0.7,0-1.3-0.5-1.3-1.2c-0.2-5.5,4-8.2,6.2-8.9
				c0.7-0.2,1.4,0.2,1.6,0.9c0.2,0.7-0.2,1.4-0.9,1.6c-0.2,0.1-4.5,1.5-4.4,6.3C371.5,326.7,371.1,327.3,370.4,327.3z"/>
		</g>
	</g>
	<g id="XMLID_470_">
		<g id="XMLID_473_">
			<path id="XMLID_474_" class="st40" d="M540.2,319.2c-1.1,0.1-2.1-0.6-2.3-1.8c-0.1-1.1,0.6-2.1,1.8-2.3
				c6.2-0.8,10.6-6.5,9.7-12.8c-0.8-6.2-6.5-10.6-12.7-9.8c-1.1,0.1-2.1-0.6-2.3-1.8c-0.1-1.1,0.6-2.1,1.8-2.3
				c8.4-1.1,16.2,4.9,17.3,13.3C554.6,310.3,548.6,318.1,540.2,319.2z"/>
		</g>
		<g id="XMLID_471_">
			<path id="XMLID_472_" class="st40" d="M544.5,304.3c-0.7,0.1-1.3-0.3-1.4-1c-1.1-4.8-5.7-4.9-5.9-4.9c-0.7,0-1.3-0.6-1.3-1.3
				c0-0.7,0.6-1.3,1.3-1.3c2.3,0.1,7.1,1.6,8.3,6.9c0.2,0.7-0.3,1.4-1,1.5C544.6,304.3,544.5,304.3,544.5,304.3z"/>
		</g>
	</g>
	<g id="XMLID_468_">
		<path id="XMLID_469_" class="st40" d="M511.5,366.2l-93.1,12.3c-20.1,2.7-38.5-11.5-41.2-31.6l-5.3-40c-0.1-1.1,0.6-2.1,1.8-2.3
			c1.1-0.1,2.1,0.6,2.3,1.8l5.3,40c2.4,17.8,18.8,30.4,36.6,28l93.1-12.3c17.8-2.4,30.4-18.8,28-36.6l-4.6-34.8
			c-0.1-1.1,0.6-2.1,1.8-2.3c1.1-0.1,2.1,0.6,2.3,1.8l4.6,34.8C545.7,345.1,531.5,363.6,511.5,366.2z"/>
	</g>
	<g id="XMLID_466_">
		<path id="XMLID_467_" class="st40" d="M367.3,256c-0.3,0-0.6,0-0.9-0.2c-0.6-0.4-0.7-1.2-0.3-1.8c0.2-0.2,17.7-24.7,47.2-23.8
			c0.7,0,1.3,0.6,1.3,1.3s-0.6,1.3-1.3,1.3c-28.1-0.8-44.8,22.5-45,22.7C367.9,255.8,367.6,256,367.3,256z"/>
	</g>
	<g id="XMLID_464_">
		<path id="XMLID_465_" class="st40" d="M431.1,234.7c-0.1,0-0.2,0-0.3,0l-9.9-1.3c-0.7-0.1-1.2-0.7-1.1-1.4
			c0.1-0.7,0.7-1.2,1.4-1.1l9.9,1.3c0.7,0.1,1.2,0.7,1.1,1.4C432.1,234.2,431.7,234.7,431.1,234.7z"/>
	</g>
	<g id="XMLID_462_">
		<path id="XMLID_463_" class="st40" d="M544.9,265.7C544.9,265.7,544.8,265.7,544.9,265.7c-0.8,0.1-1.4-0.5-1.5-1.2
			c-1.7-27.8-15.8-35.4-15.9-35.5c-0.6-0.3-0.9-1.1-0.6-1.7c0.3-0.6,1.1-0.9,1.7-0.6c0.6,0.3,15.5,8.2,17.3,37.6
			C546.1,265,545.6,265.6,544.9,265.7z"/>
	</g>
	<g id="XMLID_460_">
		<path id="XMLID_461_" class="st40" d="M514.6,279.8c-0.1,0-0.2,0-0.3,0c-25.2-3.1-64.7-20.9-65.1-21c-0.6-0.3-0.9-1.1-0.6-1.7
			c0.3-0.7,1.1-0.9,1.7-0.6c0.4,0.2,39.5,17.8,64.3,20.8c0.7,0.1,1.2,0.7,1.1,1.4C515.7,279.3,515.2,279.8,514.6,279.8z"/>
	</g>
</g>
<g id="Face_2">
	<g id="XMLID_458_">
		<circle id="XMLID_459_" class="st40" cx="488.1" cy="304.2" r="7.2"/>
	</g>
	<g id="XMLID_203_">
		<circle id="XMLID_204_" class="st40" cx="424.1" cy="310.9" r="7.2"/>
	</g>
	<g id="XMLID_456_">
		<path id="XMLID_457_" class="st40" d="M460.4,337.9c-6.7,0.9-12.9-3.8-13.7-10.5c-0.1-1.1,0.6-2.1,1.8-2.3
			c1.1-0.1,2.1,0.6,2.3,1.8c0.6,4.5,4.7,7.6,9.1,7c4.5-0.6,7.6-4.7,7-9.1c-0.1-1.1,0.6-2.1,1.8-2.3c1.1-0.1,2.1,0.6,2.3,1.8
			C471.8,330.9,467.1,337,460.4,337.9z"/>
	</g>
	<g id="XMLID_454_">
		<path id="XMLID_455_" class="st40" d="M462.1,351c-19.4,2.6-35.6-3.3-36.9-13.3c-0.1-1.1,0.6-2.1,1.8-2.3s2.1,0.6,2.3,1.8
			c1,7.5,15.8,11.9,32.3,9.7c16.5-2.2,29.7-10.3,28.7-17.8c-0.1-1.1,0.6-2.1,1.8-2.3c1.1-0.1,2.1,0.6,2.3,1.8
			C495.6,338.6,481.5,348.4,462.1,351z"/>
	</g>
	<g id="XMLID_451_">
		<g id="XMLID_452_">
			<path id="XMLID_453_" class="st40" d="M403.8,298.7c-0.1,0-0.2,0-0.3,0c-1.1,0-2-0.9-2-2c0-0.2,0.3-16.4,23.8-19.5
				c1.1-0.1,2.1,0.6,2.3,1.8s-0.6,2.1-1.8,2.3c-19.8,2.6-20.2,14.9-20.2,15.5C405.6,297.7,404.8,298.5,403.8,298.7z"/>
		</g>
	</g>
</g>
<g id="Head_1">
	<polygon id="XMLID_2_" class="st17" points="70.3,292.1 61.9,297.3 59.7,304.6 61.9,313.4 67.3,317 73.3,318.6 76.8,290.4 	"/>
	<polyline id="XMLID_553_" class="st17" points="166.4,374 192.3,376.7 203.5,375.9 214.5,369.1 222.9,351.8 224.4,337.3 
		232.8,335.4 238.9,328 239.5,321.8 235.4,311 227,312.2 227.8,304.8 217.5,311.2 207.1,313.7 188.4,300.5 162.2,280.5 134.5,267.6 
		110.4,262.1 87.4,261.1 79.6,271.1 75.8,283.1 75.1,304 74.4,313.1 73.6,323.3 73.2,327.6 73.1,334.7 73.8,342.6 79.8,359.4 
		88.2,364.5 109.8,368.1 134.4,370.6 	"/>
	<polygon id="XMLID_552_" class="st41" points="75.2,288.2 64.5,277.7 64.1,264.4 74.2,251.9 79.2,248.5 79.6,236.6 83.3,225.3 
		91.6,215.6 105.1,209.8 117.7,208.9 128.5,199.4 136.9,194.9 151.3,193.5 163.1,195.8 175.1,206.5 186.5,204.4 199.3,206.3 
		206.2,210.5 212.3,218.7 216.3,235.6 232.5,244.5 240.2,256.3 242,268.9 237.7,286.5 246.6,295.4 248.6,309.1 241.4,324.7 
		236.5,313.8 227.5,310.3 228.1,301.9 217.5,311.2 207.1,313.7 188.4,300.5 164.9,281.4 140.1,270.2 112.7,262.6 87.4,261.1 82,268 
			"/>
	<path id="XMLID_551_" class="st42" d="M79.4,240.3c0,0,9.6-27.4,36.4-25.3l3.3-6l-10.7,0.4l-12.9,3.8l-5.3,4l-4.2,3.7l-6,8
		L79.4,240.3z"/>
	<path id="XMLID_550_" class="st42" d="M115.9,221.7c0,0,17.5-36.3,57.7-16.5l-8.7-7.9l-11.2-3.4l-16.6,0.9l-10.7,6.2l-7,7.9
		L115.9,221.7z"/>
	<path id="XMLID_549_" class="st42" d="M175.1,206.5c0,0,34.6-1.5,39,29.4l0.4-11.3l-6.3-13.5l-13.4-6.5l-8.2-0.2L175.1,206.5z"/>
	<path id="XMLID_548_" class="st42" d="M216.3,235.6c0,0,25.8,15.9,21.4,50.9l5.7-13.5l-3-20.7l-10.8-10L216.3,235.6z"/>
	<path id="XMLID_547_" class="st42" d="M236.5,313.8c0,0,10.3-1.5,1.2-27.2c0,0,18,12.2,4.7,36.1L236.5,313.8z"/>
	<path id="XMLID_546_" class="st42" d="M119.3,238.8c0,0,33.1-8.9,50.2,1.1L157,229.2l-15.3-0.6l-14.9,4.9L119.3,238.8z"/>
	<path id="XMLID_545_" class="st42" d="M169.4,239.9c0,0-4.1-14.5,17.3-13.9l-10.2-3.3l-9.3,3.3l-6.4,4.5L169.4,239.9z"/>
	<path id="XMLID_544_" class="st43" d="M87.4,261.1c0,0,46.5-18.7,99.5,27.8c0,0,20.2,24.8,40.7,9.3l0.2,6.6l-12.9,7.8l-7.8,1.1
		l-15.5-10.4l-19.1-15.7l-16.9-11l-28-10L87.4,261.1z"/>
	<path id="XMLID_543_" class="st35" d="M80.6,356.6l113.1,10.7c0,0,23.8,0.8,29.9-22.6c0,0-0.4,28.9-20.1,31.1l-37.1-1.9l-75.9-7
		l-6.4-5.7L80.6,356.6z"/>
	<path id="XMLID_542_" class="st35" d="M95.1,294.3c0,0,19.6-11.3,35.7-13C130.8,281.3,105.7,268,95.1,294.3z"/>
	<path id="XMLID_541_" class="st35" d="M76.8,290.4c0,0,8.4-20.5,17.9-20.2c0,0,46.3-4.6,94.3,33.6c0,0-35.4-45.6-101.6-42.6
		C87.4,261.1,73.2,273.2,76.8,290.4z"/>
	<path id="XMLID_540_" class="st35" d="M195.1,306.5c0,0,19.1,23.6,30.7,17.3l2.3-21.9l-7.8,7.2l-13.3,4.6L195.1,306.5z"/>
	<path id="XMLID_539_" class="st44" d="M95.1,294.3c0,0-1.1-36,35.7-13C130.8,281.3,109.4,270.2,95.1,294.3z"/>
	
		<ellipse id="XMLID_538_" transform="matrix(0.9953 9.672898e-002 -9.672898e-002 0.9953 32.6776 -16.0054)" class="st44" cx="181.4" cy="329" rx="9.6" ry="4.3"/>
	
		<ellipse id="XMLID_537_" transform="matrix(0.9953 9.672898e-002 -9.672898e-002 0.9953 31.7514 -9.4558)" class="st44" cx="113.4" cy="322.8" rx="9.6" ry="4.3"/>
	<path id="XMLID_536_" class="st44" d="M140.8,329.3c0,0,1.1-10.7,8.3-22.9l-1.3,29.4L140.8,329.3z"/>
	<g id="XMLID_534_">
		<path id="XMLID_535_" class="st45" d="M91.5,367.7c-1.8-0.6-3.5-1.2-5.1-1.9l-1.1-0.4c-17.1-6.9-14.9-28.4-14.8-29.4l2.5-32.2
			l2.5-24.4c0.9-8.9,4.3-15.2,10.7-19.9c0.9-0.7,2.2-0.5,2.9,0.4c0.7,0.9,0.5,2.2-0.4,2.9c-5.4,4-8.2,9.3-9,17l-2.5,24.4l-2.5,32.2
			c0,0.3-2,19.4,12.2,25.1l1.1,0.4c3,1.2,5.7,2.4,8.8,2.7l95.8,10c14.1,1.5,26.8-8.8,28.3-23l5.9-56.5c1.5-14.1-8.8-26.8-23-28.3
			c-1.1-0.1-2-1.1-1.9-2.3c0.1-1.1,1.1-2,2.3-1.9c16.4,1.7,28.4,16.5,26.7,32.9L225,352c-1.7,16.4-16.5,28.4-32.9,26.7l-95.8-10
			C94.6,368.6,93,368.2,91.5,367.7z"/>
	</g>
	<g id="XMLID_530_">
		<path id="XMLID_531_" class="st45" d="M205.2,315.3c-5.1-1.6-10-6-16.3-11.6c-6.4-5.7-14.4-12.8-25.8-20.2
			c-37.1-24-75.1-20.4-75.5-20.4c-1.1,0.1-2.2-0.7-2.3-1.9c-0.1-1.1,0.7-2.2,1.9-2.3c1.6-0.2,39.9-3.8,78.2,21
			c11.7,7.6,19.8,14.8,26.3,20.6c7,6.2,12,10.7,16.8,11.2c4.7,0.5,10.2-2.9,18.1-11.5c0.8-0.8,2.1-0.9,2.9-0.1
			c0.8,0.8,0.9,2.1,0.1,2.9C218.9,314.6,212,317.4,205.2,315.3z"/>
	</g>
	<g id="XMLID_528_">
		<path id="XMLID_529_" class="st45" d="M238.9,327c-0.3-0.1-0.6-0.3-0.8-0.5c-0.8-0.8-0.9-2.1-0.1-2.9c5.6-5.9,8.3-12,7.9-18.1
			c-0.7-10.1-9.4-17.2-9.5-17.2l-1.2-1l0.6-1.4c5.1-12.3,5.5-22.9,1.3-31.4c-6.3-12.7-21.1-16.7-21.3-16.7l-1.5-0.4l-0.1-1.5
			c-0.8-12.4-4.8-21-11.7-25.6c-11.1-7.3-26.6-1.8-26.7-1.7l-1.5,0.5l-0.9-1.3c-10.1-14.2-26.2-12.1-26.3-12.1l-0.2,0
			c-27.3,1.7-28.9,24.8-29,25.8c-0.1,1.1-1,2-2.2,2c-1.1-0.1-2-1-2-2.2c0-0.3,1.8-27.7,32.8-29.7c1.5-0.2,18-2,29.3,12.6
			c4.5-1.3,18.1-4.4,28.9,2.6c7.8,5.1,12.4,14.3,13.5,27.3c4.2,1.4,16.5,6.3,22.5,18.4c4.7,9.3,4.4,20.6-0.6,33.5
			c2.7,2.5,9.2,9.5,9.9,19.1c0.5,7.4-2.5,14.5-9,21.3C240.5,327,239.6,327.2,238.9,327z"/>
	</g>
	<g id="XMLID_526_">
		<path id="XMLID_527_" class="st45" d="M118.6,240.3c-0.4-0.1-0.7-0.3-1-0.7c-0.7-0.9-0.6-2.2,0.3-2.9c0.3-0.2,27.6-22.6,52.7,0
			c0.9,0.8,0.9,2.1,0.2,2.9c-0.8,0.9-2.1,0.9-2.9,0.2c-9.4-8.4-20.2-11-32.1-7.6c-9,2.6-15.1,7.7-15.2,7.7
			C120,240.4,119.2,240.5,118.6,240.3z"/>
	</g>
	<g id="XMLID_524_">
		<path id="XMLID_525_" class="st45" d="M160.1,234.4c-0.2-0.1-0.4-0.1-0.5-0.2c-1-0.6-1.2-1.9-0.6-2.9c4.1-6.3,15.4-15.8,28.9-7
			c1,0.6,1.2,1.9,0.6,2.9c-0.6,1-1.9,1.2-2.9,0.6c-13.4-8.7-22.7,5.2-23.1,5.8C162,234.3,161,234.6,160.1,234.4z"/>
	</g>
	<g id="XMLID_522_">
		<path id="XMLID_523_" class="st45" d="M185.5,283.7c-0.2-0.1-0.4-0.2-0.6-0.4c-30-30-63.1-28.7-63.4-28.7c-0.9,0-1.6-0.6-1.6-1.5
			c0-0.9,0.6-1.6,1.5-1.6c1.4-0.1,34.8-1.3,65.8,29.6c0.6,0.6,0.6,1.6,0,2.2C186.6,283.7,186,283.8,185.5,283.7z"/>
	</g>
	<g id="XMLID_520_">
		<path id="XMLID_521_" class="st45" d="M127.9,214.2c-0.2-0.1-0.4-0.2-0.6-0.4c-0.6-0.6-0.7-1.6-0.1-2.2c0.2-0.2,17.3-17.9,38.5-5
			c0.7,0.4,1,1.4,0.5,2.1c-0.4,0.7-1.4,1-2.1,0.5c-19-11.6-34,3.8-34.6,4.5C129,214.3,128.4,214.4,127.9,214.2z"/>
	</g>
	<g id="XMLID_518_">
		<path id="XMLID_519_" class="st45" d="M233.7,275.8c-0.7-0.2-1.1-0.8-1.1-1.5c0.9-21.5-14.5-26-15.2-26.2
			c-0.8-0.2-1.3-1.1-1.1-1.9c0.2-0.8,1.1-1.3,1.9-1.1c0.2,0,18.5,5.3,17.4,29.3c0,0.9-0.8,1.5-1.6,1.5
			C234,275.9,233.8,275.9,233.7,275.8z"/>
	</g>
	<g id="XMLID_228_">
		<g id="XMLID_532_">
			<path id="XMLID_533_" class="st45" d="M223.8,339.2c-0.9-0.3-1.6-1.2-1.4-2.2c0.1-1.1,1.1-2,2.3-1.9c3.1,0.3,6.1-0.6,8.6-2.5
				c2.4-2,3.9-4.8,4.3-7.9c0.3-3.1-0.6-6.1-2.6-8.6c-2-2.4-4.8-3.9-7.9-4.3c-1.1-0.1-2-1.1-1.9-2.3c0.1-1.1,1.1-2,2.3-1.9
				c4.2,0.4,8,2.5,10.7,5.8c2.7,3.3,3.9,7.4,3.5,11.6c-0.4,4.2-2.5,8-5.8,10.7c-3.3,2.7-7.4,3.9-11.6,3.5
				C224.1,339.3,223.9,339.3,223.8,339.2z"/>
		</g>
		<g id="XMLID_516_">
			<path id="XMLID_517_" class="st45" d="M233.1,324.1c-0.5-0.1-0.9-0.5-1-1c-0.5-1.5-1.2-2.4-2.1-2.8c-1.5-0.6-3.2,0.2-3.2,0.2
				c-0.8,0.4-1.7,0.1-2.1-0.7c-0.4-0.8-0.1-1.7,0.7-2.1c0.1-0.1,3-1.5,5.8-0.3c1.8,0.8,3.1,2.4,3.8,4.7c0.3,0.8-0.2,1.7-1,1.9
				C233.7,324.2,233.4,324.2,233.1,324.1z"/>
		</g>
	</g>
	<g id="XMLID_223_">
		<g id="XMLID_557_">
			<path id="XMLID_558_" class="st45" d="M71.3,320.3c1-0.1,1.8-0.8,1.9-1.8c0.2-1.1-0.6-2.2-1.8-2.4c-3.1-0.5-5.8-2.1-7.7-4.6
				c-1.9-2.5-2.6-5.6-2.2-8.7c0.5-3.1,2.1-5.8,4.6-7.7c2.5-1.9,5.6-2.6,8.7-2.2c1.1,0.2,2.2-0.6,2.4-1.8c0.2-1.1-0.6-2.2-1.8-2.4
				c-4.2-0.6-8.4,0.4-11.8,3c-3.4,2.5-5.6,6.2-6.2,10.4c-0.6,4.2,0.4,8.4,3,11.8c2.5,3.4,6.2,5.6,10.4,6.2
				C71,320.3,71.2,320.4,71.3,320.3z"/>
		</g>
		<g id="XMLID_55_">
			<path id="XMLID_556_" class="st45" d="M66,303.4c0.5,0,1-0.3,1.2-0.7c0.8-1.3,1.7-2.1,2.7-2.2c1.6-0.3,3.1,1,3.1,1
				c0.7,0.6,1.6,0.5,2.2-0.2c0.6-0.6,0.5-1.6-0.2-2.2c-0.1-0.1-2.6-2.2-5.6-1.7c-1.9,0.3-3.6,1.5-4.9,3.7c-0.4,0.7-0.2,1.7,0.5,2.1
				C65.4,303.4,65.7,303.4,66,303.4z"/>
		</g>
	</g>
	<g id="XMLID_514_">
		<path id="XMLID_515_" class="st45" d="M193.3,292.1c-0.3-0.1-0.5-0.2-0.7-0.4l-3.4-3.8c-0.6-0.6-0.5-1.6,0.1-2.2
			c0.6-0.6,1.6-0.5,2.2,0.1l3.4,3.8c0.6,0.6,0.5,1.6-0.1,2.2C194.4,292.1,193.8,292.2,193.3,292.1z"/>
	</g>
	<g id="XMLID_512_">
		<path id="XMLID_513_" class="st45" d="M212.5,246.3C212.5,246.3,212.5,246.3,212.5,246.3l-4.6-1.5c-0.8-0.3-1.3-1.1-1-1.9
			c0.3-0.8,1.1-1.3,1.9-1l4.6,1.5c0.8,0.3,1.3,1.1,1,1.9C214.1,246.1,213.3,246.6,212.5,246.3z"/>
	</g>
	<g id="XMLID_510_">
		<path id="XMLID_511_" class="st45" d="M74.6,290.2c-0.3-0.1-0.5-0.2-0.8-0.4c-9-8.1-12.9-16.1-11.8-23.9
			c1.5-10.2,11.3-16.5,14.9-18.5c-1.2-12,1.5-21.6,8-28.6c11.9-12.8,32-11.9,32.8-11.9c1.1,0.1,2,1,2,2.2c-0.1,1.1-1,2-2.2,2l0,0
			c-0.2,0-19.1-0.8-29.6,10.6c-5.9,6.3-8.1,15.3-6.7,26.7l0.2,1.5l-1.4,0.6c-0.1,0.1-12.4,6-13.9,16.1c-0.9,6.3,2.6,13.1,10.4,20.2
			c0.9,0.8,0.9,2.1,0.1,2.9C76.2,290.2,75.4,290.4,74.6,290.2z"/>
	</g>
	<g id="XMLID_508_">
		<path id="XMLID_509_" class="st45" d="M85.4,244.2c-0.6-0.2-1.1-0.8-1.1-1.5c0-0.2,0.3-22.7,22.6-25.3c0.9-0.1,1.6,0.5,1.7,1.4
			c0.1,0.8-0.5,1.6-1.4,1.7c-19.5,2.3-19.8,21.4-19.8,22.3c0,0.9-0.7,1.5-1.6,1.5C85.7,244.2,85.5,244.2,85.4,244.2z"/>
	</g>
</g>
<g id="Face_1">
	<g id="XMLID_506_">
		<path id="XMLID_507_" class="st45" d="M148.8,337.4c-1.6-0.5-3-1.3-4.2-2.4c-1.8-1.7-2.6-4-2.4-6.2c0.1-1.1,1.1-2,2.3-1.9
			c1.1,0.1,2,1.1,1.9,2.3c-0.1,1.3,0.7,2.3,1.2,2.7c1,0.9,2.4,1.6,4,1.7c1.6,0.2,3.1-0.2,4.3-0.9c0.6-0.4,1.6-1.2,1.7-2.5
			c0.1-1.1,1.1-2,2.3-1.9c1.1,0.1,2,1.1,1.9,2.3c-0.2,2.2-1.6,4.2-3.6,5.5c-1.9,1.2-4.4,1.8-6.9,1.5
			C150.3,337.8,149.5,337.7,148.8,337.4z"/>
	</g>
	<g id="Face_10_">
		<g id="XMLID_504_">
			<path id="XMLID_505_" class="st45" d="M97.4,296.7c-0.1,0-0.1,0-0.2-0.1c-1.3-0.5-1.9-1.9-1.4-3.2c0.2-0.5,4.6-11.6,15.5-16.1
				c7-2.9,14.9-2.3,23.6,1.7c1.2,0.6,1.8,2,1.2,3.3c-0.6,1.2-2,1.8-3.3,1.2c-7.4-3.4-14-3.9-19.7-1.6c-8.9,3.7-12.7,13.2-12.7,13.3
				C100,296.5,98.7,297.1,97.4,296.7z"/>
		</g>
		<g id="XMLID_502_">
			<circle id="XMLID_503_" class="st45" cx="121.7" cy="312" r="6"/>
		</g>
		<g id="XMLID_500_">
			<circle id="XMLID_501_" class="st45" cx="180" cy="320.8" r="6"/>
		</g>
		<path id="XMLID_499_" class="st45" d="M111.7,340c0,0,8.2,17.2,24.7,13.3c16.5-3.9,9.5-10.8-1.3-14.9
			C128.1,335.7,105.1,322.8,111.7,340z"/>
	</g>
</g>
<g id="Ground">
	<g id="XMLID_410_">
		<path id="XMLID_44_" class="st10" d="M45.5,639.8H30c-1.3,0-2.4-1.1-2.4-2.4s1.1-2.4,2.4-2.4h15.5c1.3,0,2.4,1.1,2.4,2.4
			S46.8,639.8,45.5,639.8z"/>
	</g>
	<g id="XMLID_408_">
		<path id="XMLID_43_" class="st10" d="M249.1,639.8H56.3c-1.3,0-2.4-1.1-2.4-2.4s1.1-2.4,2.4-2.4h192.7c1.3,0,2.4,1.1,2.4,2.4
			S250.4,639.8,249.1,639.8z"/>
	</g>
	<g id="XMLID_406_">
		<path id="XMLID_42_" class="st10" d="M280.8,639.8h-20.4c-1.3,0-2.4-1.1-2.4-2.4s1.1-2.4,2.4-2.4h20.4c1.3,0,2.4,1.1,2.4,2.4
			S282.1,639.8,280.8,639.8z"/>
	</g>
	<g id="XMLID_404_">
		<path id="XMLID_41_" class="st10" d="M467.2,639.8H291.6c-1.3,0-2.4-1.1-2.4-2.4s1.1-2.4,2.4-2.4h175.6c1.3,0,2.4,1.1,2.4,2.4
			S468.5,639.8,467.2,639.8z"/>
	</g>
	<g id="XMLID_402_">
		<path id="XMLID_202_" class="st10" d="M549.1,639.8h-70.4c-1.3,0-2.4-1.1-2.4-2.4s1.1-2.4,2.4-2.4h70.4c1.3,0,2.4,1.1,2.4,2.4
			S550.5,639.8,549.1,639.8z"/>
	</g>
	<g id="XMLID_400_">
		<path id="XMLID_205_" class="st10" d="M579.5,639.8h-20.9c-1.3,0-2.4-1.1-2.4-2.4s1.1-2.4,2.4-2.4h20.9c1.3,0,2.4,1.1,2.4,2.4
			S580.8,639.8,579.5,639.8z"/>
	</g>
</g>
</svg>
