<?xml version="1.0" encoding="utf-8"?>
<!-- Generator: Adobe Illustrator 19.0.0, SVG Export Plug-In . SVG Version: 6.00 Build 0)  -->
<svg version="1.1" id="Layer_1" xmlns="http://www.w3.org/2000/svg" xmlns:xlink="http://www.w3.org/1999/xlink" x="0px" y="0px"
	 viewBox="0 0 612 792" style="enable-background:new 0 0 612 792;" xml:space="preserve">
<style type="text/css">
	.st0{fill:#EDF0F2;}
	.st1{fill:#E2E2E2;}
	.st2{fill:#F5F7F7;}
	.st3{fill:#C4E0EC;}
	.st4{fill:#FBD8AE;}
	.st5{fill:#FBBA99;}
	.st6{fill:#12426D;}
	.st7{fill:#588BA8;}
	.st8{fill:#42718A;}
	.st9{fill:#6FA6BF;}
	.st10{fill:#636158;}
	.st11{fill:#7F7E79;}
	.st12{fill:#56504D;}
	.st13{fill:#F9EBCB;}
	.st14{fill:#11426E;}
	.st15{fill:#DE647C;}
	.st16{fill:#F8BFD1;}
	.st17{fill:#E57691;}
	.st18{fill:#C45776;}
	.st19{fill:#139BD1;}
	.st20{fill:#0D8CB2;}
	.st21{fill:#A6D6A7;}
	.st22{fill:#8ACB8F;}
	.st23{fill:#BCDFB9;}
	.st24{fill:#83C487;}
	.st25{fill:#68A867;}
	.st26{fill:#F9F9FA;}
</style>
<g id="Coffe">
	<g id="XMLID_124_">
		<polygon id="XMLID_3_" class="st0" points="453.7,570.5 446.3,577.6 444.9,583.8 453.7,584.2 461.8,647.7 497.8,647.7 506,584.2 
			514.8,583.8 514.8,579.4 506,570.5 		"/>
	</g>
	<g id="XMLID_123_">
		<polygon id="XMLID_4_" class="st1" points="503.6,599.6 455.7,599.6 459.6,630.5 499.6,630.5 		"/>
	</g>
	<g id="XMLID_122_">
		<path id="XMLID_5_" class="st2" d="M479.2,581.5c0,0-14.4,48.7,12,66.2h-28.6l-8.1-63.5L479.2,581.5z"/>
	</g>
	<g id="XMLID_121_">
		<polygon id="XMLID_6_" class="st1" points="454.5,568.7 446.3,577.6 444.9,583.8 452.2,583.8 510.7,585.4 514.8,583.8 
			513.1,577.1 503.6,568.7 		"/>
	</g>
	<g id="XMLID_235_">
		<g id="XMLID_82_">
			<path id="XMLID_175_" class="st3" d="M461.8,650.2c-1.3,0-2.4-0.9-2.5-2.2l-8.5-66.3h29c1.4,0,2.5,1.1,2.5,2.5s-1.1,2.5-2.5,2.5
				h-23.2l7.7,60.6c0.2,1.4-0.8,2.7-2.2,2.8C462,650.2,461.9,650.2,461.8,650.2z"/>
		</g>
		<g id="XMLID_81_">
			<path id="XMLID_174_" class="st3" d="M497.8,650.2c-0.1,0-0.2,0-0.3,0c-1.4-0.2-2.4-1.5-2.2-2.8l7.7-60.6h-23.2
				c-1.4,0-2.5-1.1-2.5-2.5s1.1-2.5,2.5-2.5h29l-8.5,66.3C500.1,649.3,499,650.2,497.8,650.2z"/>
		</g>
		<g id="XMLID_57_">
			<path id="XMLID_173_" class="st3" d="M449.2,587.2c-3,0-6.1-0.7-7.3-3.2c-1.7-3.6,1.4-8.2,10.2-15.5l0.7-0.6h27
				c1.4,0,2.5,1.1,2.5,2.5s-1.1,2.5-2.5,2.5h-25.2c-6.7,5.6-7.8,8.1-8,8.8c1,0.4,4,0.4,6.6-0.1c1.4-0.3,2.7,0.6,3,2
				c0.3,1.4-0.6,2.7-2,3C453,586.9,451.2,587.2,449.2,587.2z"/>
		</g>
		<g id="XMLID_56_">
			<path id="XMLID_172_" class="st3" d="M510.5,587.2c-1.9,0-3.8-0.3-5-0.5c-1.4-0.3-2.3-1.6-2-3c0.3-1.4,1.6-2.3,3-2
				c2.6,0.5,5.6,0.5,6.6,0.1c-0.2-0.7-1.4-3.2-8-8.8H480c-1.4,0-2.5-1.1-2.5-2.5s1.1-2.5,2.5-2.5h27l0.7,0.6
				c8.8,7.3,11.9,11.9,10.2,15.5C516.7,586.6,513.5,587.2,510.5,587.2z"/>
		</g>
		<g id="XMLID_54_">
			<path id="XMLID_171_" class="st3" d="M503.6,601.2h-47.9c-0.9,0-1.6-0.7-1.6-1.6s0.7-1.6,1.6-1.6h47.9c0.9,0,1.6,0.7,1.6,1.6
				S504.5,601.2,503.6,601.2z"/>
		</g>
		<g id="XMLID_50_">
			<path id="XMLID_170_" class="st3" d="M497.9,632.1h-38.2c-0.9,0-1.6-0.7-1.6-1.6s0.7-1.6,1.6-1.6h38.2c0.9,0,1.6,0.7,1.6,1.6
				S498.7,632.1,497.9,632.1z"/>
		</g>
		<g id="XMLID_49_">
			<ellipse class="st3" cx="492.8" cy="612.7" rx="7.8" ry="13.1"/>
		</g>
		<g id="XMLID_48_">
			<path id="XMLID_169_" class="st3" d="M467.8,627.5c-0.8,0-1.5-0.6-1.6-1.4l-3.2-21.5c-0.1-0.9,0.5-1.7,1.4-1.8
				c0.9-0.1,1.7,0.5,1.8,1.4l3.2,21.5c0.1,0.9-0.5,1.7-1.4,1.8C468,627.5,467.9,627.5,467.8,627.5z"/>
		</g>
		<g id="XMLID_47_">
			<path id="XMLID_168_" class="st3" d="M475.6,563.8c-0.5,0-1-0.2-1.3-0.6c-0.2-0.2-4.2-5.7-2.7-12.5c1.1-5,4.9-9.2,11.3-12.6
				c4.7-2.5,7.5-5.8,8.4-9.7c1.6-7.1-3.7-14.3-3.8-14.4c-0.5-0.7-0.4-1.7,0.3-2.3c0.7-0.5,1.7-0.4,2.2,0.3c0.3,0.3,6.2,8.4,4.3,17
				c-1.1,4.9-4.5,8.8-10,11.8c-5.5,2.9-8.7,6.4-9.6,10.5c-1.2,5.3,2.1,9.8,2.1,9.9c0.5,0.7,0.4,1.7-0.3,2.3
				C476.2,563.7,475.9,563.8,475.6,563.8z"/>
		</g>
		<g id="XMLID_46_">
			<path id="XMLID_167_" class="st3" d="M493.1,563.8c-0.5,0-1-0.2-1.3-0.6c-0.2-0.2-4.2-5.7-2.7-12.5c1.1-5,4.9-9.2,11.3-12.6
				c4.7-2.5,7.5-5.8,8.4-9.7c1.6-7.1-3.7-14.3-3.8-14.4c-0.5-0.7-0.4-1.7,0.3-2.3c0.7-0.5,1.7-0.4,2.2,0.3c0.3,0.3,6.2,8.4,4.3,17
				c-1.1,4.9-4.5,8.8-10,11.8c-5.5,2.9-8.7,6.4-9.6,10.5c-1.2,5.3,2.1,9.8,2.1,9.9c0.5,0.7,0.4,1.7-0.3,2.3
				C493.8,563.7,493.5,563.8,493.1,563.8z"/>
		</g>
	</g>
</g>
<g id="Chat_box_3">
	<g id="XMLID_117_">
		<polygon id="XMLID_7_" class="st1" points="137.8,357.5 81.4,375.7 75,382.3 73.5,390.7 87.2,430.6 93.6,435.4 102.5,435.4 
			124.6,429 129.3,430.6 148.8,447.1 153,448.2 156.5,444.7 154,419.4 160.8,414.9 164.5,407.1 160.9,391.9 151.4,364.4 
			144.3,357.5 		"/>
	</g>
	<g id="XMLID_116_">
		<path id="XMLID_8_" class="st0" d="M106,367.4c0,0-8.7,44.9,49.2,62l1.4,15.3l-3.5,4.7l-4.2-2.3l-15.3-12.9l-8.9-5.2l-24,7.4
			l-9.5-2.2l-4-3.6l-13.7-39.9l4.2-12.2l8.4-4.6L106,367.4z"/>
	</g>
	<g id="XMLID_115_">
		<path id="XMLID_9_" class="st2" d="M75.1,396.4c0,0,15.8,32.9,51.7,32.1l-22.5,7.4l-10.7-0.4l-6.4-4.8l-4.5-11L75.1,396.4z"/>
	</g>
	<g id="XMLID_19_">
		<path id="XMLID_145_" class="st3" d="M151.9,450.8c-1.7,0-3.4-0.6-4.7-1.7L126,431.1c-0.2,0.1-0.4,0.2-0.6,0.3l-20.9,6.8
			c-4.5,1.4-9.2,1.1-13.4-1.1c-4.2-2.1-7.3-5.8-8.8-10.2l-10.5-32.5c-3-9.2,2.1-19.2,11.3-22.2l50.3-16.3c4.5-1.4,9.2-1.1,13.4,1.1
			c4.2,2.1,7.3,5.8,8.8,10.2l10.5,32.5c2.8,8.6-1.4,17.7-9.4,21.4l2.4,21.5c0.3,3-1.2,5.9-3.8,7.3
			C154.3,450.5,153.1,450.8,151.9,450.8z M126.6,425.8c0.6,0,1.2,0.2,1.6,0.6l22.2,18.8c1.1,0.9,2.2,0.4,2.5,0.3
			c0.3-0.2,1.3-0.8,1.2-2.2l-2.9-25.5l2-0.6c6.6-2.1,10.2-9.2,8.1-15.8l-10.5-32.5c-1-3.2-3.2-5.8-6.2-7.3c-3-1.5-6.4-1.8-9.6-0.8
			L84.7,377c-6.6,2.1-10.2,9.2-8.1,15.8l10.5,32.5c1,3.2,3.2,5.8,6.2,7.3s6.4,1.8,9.6,0.8l20.9-6.8c0.4-0.1,0.7-0.2,1.1-0.1
			C125.4,426,126,425.8,126.6,425.8z"/>
	</g>
	<g id="XMLID_18_">
		<path id="XMLID_144_" class="st3" d="M86.6,393.2c-1.1,0-2.1-0.7-2.4-1.8c-0.4-1.3,0.3-2.8,1.6-3.2l51.8-16.8
			c1.3-0.4,2.8,0.3,3.2,1.6c0.4,1.3-0.3,2.8-1.6,3.2l-51.8,16.8C87.1,393.2,86.9,393.2,86.6,393.2z"/>
	</g>
	<g id="XMLID_17_">
		<path id="XMLID_143_" class="st3" d="M91.2,407.3c-1.1,0-2.1-0.7-2.4-1.8c-0.4-1.3,0.3-2.8,1.6-3.2l51.8-16.8
			c1.3-0.4,2.8,0.3,3.2,1.6c0.4,1.3-0.3,2.8-1.6,3.2L92,407.2C91.7,407.3,91.4,407.3,91.2,407.3z"/>
	</g>
	<g id="XMLID_16_">
		<path id="XMLID_142_" class="st3" d="M96,422.2c-1.1,0-2.1-0.7-2.4-1.8c-0.4-1.3,0.3-2.8,1.6-3.2l51.8-16.8
			c1.3-0.4,2.8,0.3,3.2,1.6s-0.3,2.8-1.6,3.2L96.8,422C96.5,422.1,96.3,422.2,96,422.2z"/>
	</g>
</g>
<g id="Chat_Box_2">
	<g id="XMLID_120_">
		<polygon id="XMLID_10_" class="st0" points="450.8,367.4 446,371.3 442.9,398.2 446.8,402.7 450.7,404.1 452.2,418.7 454.9,420.2 
			457.1,419.1 467.4,405.7 483.6,407 490,402.2 491.7,389.6 492.4,376.4 486.8,370.4 		"/>
	</g>
	<g id="XMLID_119_">
		<path id="XMLID_11_" class="st2" d="M465,368.6c0,0-17.8,19.5,7.4,37.5l-5-0.4L456,419.6l-2.1,0.6l-1.7-3.1l-1.5-13l-5.8-2.1
			l-2.8-6.5l4-24.2l2.2-1.8l5.5-2.5L465,368.6z"/>
	</g>
	<g id="XMLID_138_">
		<g id="XMLID_15_">
			<path id="XMLID_154_" class="st3" d="M454.9,421.8c-0.4,0-0.8-0.1-1.2-0.2c-1.7-0.5-3-2-3.2-3.8l-1.3-12.4c-5-1.1-8.5-5.9-8-11.1
				l1.9-19.7c0.3-2.7,1.6-5.2,3.7-7c2.1-1.8,4.8-2.6,7.6-2.3l30.5,3c2.7,0.3,5.2,1.6,7,3.7s2.6,4.8,2.3,7.6l-1.9,19.7
				c-0.6,5.7-5.6,9.8-11.3,9.3l-12.7-1.2c-0.1,0-0.2,0-0.3-0.1l-9.7,12.7C457.5,421.2,456.3,421.8,454.9,421.8z M453.5,368.6
				c-1.6,0-3.2,0.6-4.5,1.6c-1.5,1.2-2.4,2.9-2.6,4.8l-1.9,19.7c-0.4,3.9,2.5,7.4,6.4,7.8l1.3,0.1l1.5,14.9c0.1,0.7,0.6,0.9,0.8,1
				s0.8,0.2,1.2-0.4l10.3-13.4c0.5-0.6,1.4-0.8,2-0.4c0.2-0.1,0.4-0.1,0.6-0.1l12.7,1.2c3.9,0.4,7.4-2.5,7.8-6.4l1.9-19.7
				c0.2-1.9-0.4-3.7-1.6-5.2c-1.2-1.5-2.9-2.4-4.8-2.6l-30.5-3C454,368.6,453.8,368.6,453.5,368.6z"/>
		</g>
		<g id="XMLID_14_">
			<path id="XMLID_153_" class="st3" d="M485.3,381.1c-0.1,0-0.1,0-0.2,0l-31.4-3.1c-0.9-0.1-1.5-0.9-1.4-1.8s0.9-1.5,1.8-1.4
				l31.4,3.1c0.9,0.1,1.5,0.9,1.4,1.8C486.9,380.5,486.2,381.1,485.3,381.1z"/>
		</g>
		<g id="XMLID_13_">
			<path id="XMLID_152_" class="st3" d="M484.5,389.6c-0.1,0-0.1,0-0.2,0l-31.4-3.1c-0.9-0.1-1.5-0.9-1.4-1.8s0.9-1.5,1.8-1.4
				l31.4,3.1c0.9,0.1,1.5,0.9,1.4,1.8C486,389,485.3,389.6,484.5,389.6z"/>
		</g>
		<g id="XMLID_12_">
			<path id="XMLID_151_" class="st3" d="M483.6,398.6c-0.1,0-0.1,0-0.2,0l-31.4-3.1c-0.9-0.1-1.5-0.9-1.4-1.8
				c0.1-0.9,0.9-1.5,1.8-1.4l31.4,3.1c0.9,0.1,1.5,0.9,1.4,1.8C485.1,398,484.4,398.6,483.6,398.6z"/>
		</g>
	</g>
</g>
<g id="Chat_Box_1">
	<g id="XMLID_112_">
		<path id="XMLID_20_" class="st0" d="M147.4,135.9c0,0-13.9-2.4-15.6-2c-1.7,0.4-15.2,4.9-15.2,4.9l-10.2,9.2l-4.1,10.4l2.1,12.7
			l7.4,9.4l8,3.4l18.7,2.6l12.4,9.7h6.2l1.6-1.6l-1-19l6-7.5l1.6-9.9l-3.4-11.5L147.4,135.9z"/>
	</g>
	<g id="XMLID_111_">
		<path id="XMLID_21_" class="st2" d="M105.1,150c0,0,36.1-8.8,52.6,25.8l6-7.5l1.6-18.3l-8.5-8.8C156.7,141.2,128,120.9,105.1,150z
			"/>
	</g>
	<g id="XMLID_2_">
		<path id="XMLID_127_" class="st3" d="M154.7,199.6c-1.4,0-2.9-0.4-4.1-1.3l-14.1-9.8c-18.3,2.1-34.7-8.4-36.8-23.7
			c-2.2-15.6,11.3-30.4,30-33c18.7-2.6,35.7,8,37.8,23.6c1,7.6-1.6,15.4-7.3,21.6l1.7,14.6c0.3,2.8-1,5.5-3.4,7
			C157.3,199.2,156,199.6,154.7,199.6z M137.8,183.1l15.7,11c1,0.7,2,0.2,2.3,0.1s1.2-0.8,1-2l-2-17l0.9-0.9
			c5.3-5.3,7.7-11.7,6.8-18.2c-1.8-12.8-16.2-21.4-32.1-19.2c-15.9,2.2-27.4,14.4-25.7,27.2c1.8,12.8,16.2,21.4,32.1,19.2
			L137.8,183.1z"/>
	</g>
	<g id="XMLID_22_">
		<path id="XMLID_126_" class="st3" d="M114.6,156.4c-0.8,0-1.5-0.6-1.6-1.4c-0.1-0.9,0.5-1.7,1.4-1.8l34.3-4.7
			c0.9-0.1,1.7,0.5,1.8,1.4s-0.5,1.7-1.4,1.8l-34.3,4.7C114.7,156.4,114.6,156.4,114.6,156.4z"/>
	</g>
	<g id="XMLID_23_">
		<path id="XMLID_125_" class="st3" d="M116.5,170.2c-0.8,0-1.5-0.6-1.6-1.4c-0.1-0.9,0.5-1.7,1.4-1.8l34.3-4.7
			c0.9-0.1,1.7,0.5,1.8,1.4c0.1,0.9-0.5,1.7-1.4,1.8l-34.3,4.7C116.6,170.2,116.5,170.2,116.5,170.2z"/>
	</g>
</g>
<g id="Star_4_1_">
	<g id="XMLID_118_">
		<path id="XMLID_25_" class="st1" d="M473.5,453l-4.2,0.9l-2.9,4.3c0,0,0.8,3.8,1,4.2c0.3,0.3,3,2.8,3.4,2.7c0.4-0.1,5.7,0.5,5.8,0
			c0.1-0.5,1.8-4.1,1.8-4.1l-0.2-3.4L473.5,453z"/>
	</g>
	<g id="Star_4">
		<path id="XMLID_164_" class="st3" d="M472.4,466.7c-4.2,0-7.7-3.4-7.7-7.7s3.4-7.7,7.7-7.7c4.2,0,7.7,3.4,7.7,7.7
			S476.6,466.7,472.4,466.7z M472.4,454.6c-2.5,0-4.4,2-4.4,4.4s2,4.4,4.4,4.4s4.4-2,4.4-4.4S474.8,454.6,472.4,454.6z"/>
	</g>
</g>
<g id="Star_3">
	<g id="XMLID_114_">
		<polygon id="XMLID_26_" class="st0" points="128,331.2 124.9,325.6 121.9,323.9 117.1,325.6 115.9,330 117.1,333.6 121.9,334.9 
			125.5,334.9 		"/>
	</g>
	<g id="XMLID_24_">
		<path id="XMLID_136_" class="st3" d="M121.9,338.6c-4.7,0-8.6-3.9-8.6-8.6s3.9-8.6,8.6-8.6s8.6,3.9,8.6,8.6
			S126.6,338.6,121.9,338.6z M121.9,326.5c-1.9,0-3.5,1.6-3.5,3.5c0,1.9,1.6,3.5,3.5,3.5s3.5-1.6,3.5-3.5
			C125.4,328,123.8,326.5,121.9,326.5z"/>
	</g>
</g>
<g id="Star_2">
	<g id="XMLID_113_">
		<polygon id="XMLID_28_" class="st1" points="150.2,232 150.2,226.4 146.6,223.3 142.7,223.3 138.6,227.7 138.6,230.8 140.2,233.6 
			144.6,235.4 146.8,235.1 		"/>
	</g>
	<g id="XMLID_27_">
		<path id="XMLID_131_" class="st3" d="M144.6,237.1c-4.3,0-7.8-3.5-7.8-7.8s3.5-7.8,7.8-7.8c4.3,0,7.8,3.5,7.8,7.8
			S149,237.1,144.6,237.1z M144.6,224.6c-2.5,0-4.6,2.1-4.6,4.6s2.1,4.6,4.6,4.6s4.6-2.1,4.6-4.6S147.2,224.6,144.6,224.6z"/>
	</g>
</g>
<g id="Star_1">
	<polygon id="XMLID_158_" class="st1" points="464.4,235.1 462.3,242.1 464.4,243.8 470.4,243.8 472,239.9 470.4,236.1 	"/>
	<g id="XMLID_29_">
		<path id="XMLID_159_" class="st3" d="M467.4,247.2c-4.4,0-8.1-3.6-8.1-8.1s3.6-8.1,8.1-8.1s8.1,3.6,8.1,8.1
			S471.9,247.2,467.4,247.2z M467.4,236.1c-1.6,0-3,1.3-3,3s1.3,3,3,3s3-1.3,3-3S469.1,236.1,467.4,236.1z"/>
	</g>
</g>
<g id="Neck">
	<g id="XMLID_109_">
		<polygon id="XMLID_31_" class="st4" points="269.6,369.5 267.9,376.4 264.5,385.8 256.9,394.1 266.4,404.8 278.8,413.9 
			294.6,420.2 311.3,413.7 328.2,402.8 334.5,396.4 325.9,384.6 321.8,367.4 		"/>
	</g>
	<g id="XMLID_108_">
		<path id="XMLID_32_" class="st5" d="M266.8,379.5c0,0,28.2,22.7,58.2,0l-3.1-12l-52.2,2.1L266.8,379.5z"/>
	</g>
	<g id="XMLID_33_">
		<path id="XMLID_200_" class="st6" d="M256.9,396.7c-0.9,0-1.8-0.5-2.3-1.3c-0.7-1.3-0.2-2.8,1-3.5c0.5-0.3,11.3-6.5,11.3-24.4
			c0-1.4,1.2-2.6,2.6-2.6s2.6,1.2,2.6,2.6c0,21.1-13.5,28.7-14,29C257.8,396.6,257.3,396.7,256.9,396.7z"/>
	</g>
	<g id="XMLID_30_">
		<path id="XMLID_201_" class="st6" d="M334.5,396.7c-0.4,0-0.8-0.1-1.2-0.3c-0.6-0.3-14-7.8-14-29c0-1.4,1.2-2.6,2.6-2.6
			s2.6,1.2,2.6,2.6c0,18.1,11.2,24.4,11.3,24.4c1.3,0.7,1.7,2.2,1,3.5C336.3,396.2,335.4,396.7,334.5,396.7z"/>
	</g>
</g>
<g id="Right_Arm">
	<g id="XMLID_106_">
		<polygon class="st7" points="334.5,394.1 348.5,393.8 362.1,393.8 378.1,402.9 389.7,415 400.4,433.3 406.6,453 408.7,467.1 
			366.2,467.1 365.4,453 360.2,433.3 347.1,411.2 		"/>
	</g>
	<g id="XMLID_104_">
		<path id="XMLID_35_" class="st8" d="M334.5,394.1c0,0,54.8,3.1,62.8,73h14.1C411.4,467.1,401.3,387,334.5,394.1z"/>
	</g>
	<g id="XMLID_34_">
		<path id="XMLID_198_" class="st6" d="M408.7,469.7c-1.4,0-2.5-1.1-2.6-2.4c0-0.4-2.4-38.5-26.2-58.7c-11.8-9.9-26.9-14-45.1-11.9
			c-1.4,0.2-2.7-0.9-2.8-2.3c-0.2-1.4,0.9-2.7,2.3-2.8c19.6-2.2,36.1,2.2,49,13.1c25.5,21.6,27.9,60.6,28,62.3
			c0.1,1.4-1,2.6-2.4,2.7C408.8,469.7,408.7,469.7,408.7,469.7z"/>
	</g>
</g>
<g id="Left_Arm">
	<g id="XMLID_107_">
		<polygon id="XMLID_37_" class="st7" points="256.9,394.1 243,393.8 229.3,393.8 213.3,402.9 201.8,415 191.1,433.3 184.9,453 
			182.8,467.1 225.2,467.1 226.1,453 231.3,433.3 244.4,411.2 		"/>
	</g>
	<g id="XMLID_103_">
		<path class="st9" d="M258.3,394.1c0,0-54.8,3.1-62.8,73h-14.1C181.4,467.1,191.5,387,258.3,394.1z"/>
	</g>
	<g id="XMLID_36_">
		<path id="XMLID_196_" class="st6" d="M182.8,469.7c0,0-0.1,0-0.1,0c-1.4-0.1-2.5-1.3-2.4-2.7c0.1-1.7,2.5-40.7,28-62.3
			c12.9-10.9,29.4-15.3,49-13.1c1.4,0.2,2.4,1.4,2.3,2.8c-0.2,1.4-1.4,2.4-2.8,2.3c-18.2-2.1-33.3,2-45.1,11.9
			c-23.8,20.2-26.2,58.3-26.2,58.6C185.3,468.6,184.1,469.7,182.8,469.7z"/>
	</g>
	<g id="XMLID_38_">
		<path id="XMLID_195_" class="st6" d="M198.5,447.3c-0.1,0-0.3,0-0.4-0.1c-0.9-0.2-1.4-1.1-1.1-2c0.4-1.4,9.1-33.5,35.4-42
			c0.8-0.3,1.8,0.2,2,1c0.3,0.8-0.2,1.8-1,2c-24.6,7.9-33.1,39.4-33.2,39.8C199.9,446.8,199.3,447.3,198.5,447.3z"/>
	</g>
</g>
<g id="Head_2_">
	<polyline id="XMLID_79_" class="st4" points="329.5,368.1 367.7,368.1 383.9,365.3 398.8,353.6 408.5,327.2 408.5,305.7 
		420.4,301.8 428.1,289.9 428.1,280.9 420.4,265.7 408.4,268.7 408.4,257.9 394.4,268.8 379.6,274 350.3,257.7 309,232.5 266.7,218 
		230.7,213.5 197,215.7 187.1,231.4 183.4,249.5 185.6,280 185.9,293.4 186.4,308.4 186.5,314.7 187.4,325.1 189.7,336.6 201,360.2 
		214,366.3 246,368.2 282.3,368.2 	"/>
	<polygon id="XMLID_78_" class="st10" points="183.4,257 166.1,243.3 163.6,224.1 176.3,204.2 183.1,198.5 181.8,181.1 185.5,164.1 
		196.1,148.7 215,138.2 233.2,134.9 247.4,119.3 259.1,111.5 279.9,107.3 297.4,108.8 316.5,122.7 332.9,117.8 351.8,118.6 
		362.5,123.6 372.7,134.8 381,158.8 406.1,169.3 419,185.3 423.6,203.3 420,229.8 434.4,241.3 439.3,260.9 431.3,284.8 422.5,269.6 
		408.9,265.9 408.4,253.6 394.3,268.8 379.6,274 350.3,257.7 313.1,233.3 275.3,220.9 234.1,213.9 197,215.7 190.2,226.5 	"/>
	<path id="XMLID_77_" class="st11" d="M182.2,186.6c0,0,9.8-41.4,49.2-42.4l3.9-9.3l-15.6,2.2l-18.2,7.5l-7.2,6.6l-5.5,6l-7.5,12.6
		L182.2,186.6z"/>
	<path id="XMLID_76_" class="st11" d="M232.5,153.8c0,0,19.9-55.6,81.6-32.9l-13.9-10.1l-16.9-3.2l-24.1,3.9l-14.7,10.7l-9.1,12.6
		L232.5,153.8z"/>
	<path id="XMLID_75_" class="st11" d="M316.5,122.7c0,0,50.2-7.5,61.4,36.9l-1.2-16.5l-11.3-18.8l-20.6-7.5l-12,1L316.5,122.7z"/>
	<path id="XMLID_74_" class="st11" d="M381,158.8c0,0,40.1,19.2,39,71l6.3-20.5l-7.5-29.7l-17.4-13L381,158.8z"/>
	<path id="XMLID_73_" class="st11" d="M422.5,269.6c0,0,14.8-3.7-2.5-39.9c0,0,28.1,15,12.4,51.9L422.5,269.6z"/>
	<path id="XMLID_72_" class="st11" d="M240.1,178.2c0,0,46.9-18.1,73.3-6.1l-19.7-13.7l-22.4,1.5l-21,9.5L240.1,178.2z"/>
	<path id="XMLID_71_" class="st11" d="M313.4,172.1c0,0-8.2-20.5,23.1-22.9l-15.3-3.3l-13.1,6.2l-8.7,7.6L313.4,172.1z"/>
	<path id="XMLID_70_" class="st12" d="M197,215.7c0,0,65-34.4,149.3,25.2c0,0,33.3,33.1,60.8,7.3l1.3,9.7l-17.6,13.3l-11.2,2.8
		l-24.3-12.8l-30.3-20l-26.4-13.4l-42.4-10.2L197,215.7z"/>
	<path id="XMLID_69_" class="st5" d="M201.8,356l166.6-1.7c0,0,34.8-2.5,40.1-37.5c0,0,3.8,42.1-24.6,48.5l-54.4,2.8l-111.7,1.4
		l-10.2-7.3L201.8,356z"/>
	<path id="XMLID_68_" class="st5" d="M213.3,262.9c0,0,26.8-19.5,50.1-24.4C263.4,238.5,224.8,222.9,213.3,262.9z"/>
	<path id="XMLID_67_" class="st5" d="M186,259.9c0,0,9.1-31.1,23.1-32.2c0,0,66.8-13.7,142.6,34.5c0,0-58.5-61-154.7-46.5
		C197,215.7,178.2,235.5,186,259.9z"/>
	<path id="XMLID_66_" class="st5" d="M361,265.3c0,0,31.4,31.5,47.4,20.6l0-32.3l-10.2,11.7l-18.6,8.8L361,265.3z"/>
	<path id="XMLID_65_" class="st13" d="M213.3,262.9c0,0-7.1-52.3,50.1-24.4C263.4,238.5,230.4,225.6,213.3,262.9z"/>
	
		<ellipse id="XMLID_64_" transform="matrix(1 -7.737484e-003 7.737484e-003 1 -2.3134 2.6745)" class="st13" cx="344.5" cy="300.3" rx="14" ry="6.2"/>
	
		<ellipse id="XMLID_63_" transform="matrix(1 -7.737484e-003 7.737484e-003 1 -2.3261 1.8997)" class="st13" cx="244.4" cy="301.6" rx="14" ry="6.2"/>
	<path id="XMLID_62_" class="st13" d="M285.4,307c0,0-0.1-15.7,8.7-34.7l2.6,43.1L285.4,307z"/>
	<g id="XMLID_61_">
		<path id="XMLID_330_" class="st14" d="M219.3,370.5c-2.7-0.5-5.3-1.3-7.8-2l-1.6-0.5c-26-7.5-26-39.2-26-40.5l-1.3-47.4l0-36
			c0-13.1,4-22.9,12.5-30.7c1.2-1.1,3.2-1.1,4.3,0.2c1.1,1.2,1.1,3.2-0.2,4.3c-7.3,6.7-10.5,14.8-10.5,26.2l0,35.9l1.3,47.4
			c0,0.4,0.1,28.6,21.6,34.8l1.7,0.5c4.5,1.3,8.7,2.5,13.3,2.5l141.2-0.2c20.8,0,37.8-17,37.8-37.8l-0.1-83.3
			c0-20.8-17-37.8-37.8-37.8c-1.7,0-3-1.4-3-3c0-1.7,1.4-3,3-3c24.2,0,43.9,19.6,43.9,43.8l0.1,83.3c0,24.2-19.6,43.9-43.8,43.9
			l-141.2,0.2C224,371.3,221.6,371,219.3,370.5z"/>
	</g>
	<g id="XMLID_58_">
		<path id="XMLID_332_" class="st14" d="M407.8,308.7c-1.4-0.3-2.4-1.5-2.4-3c0-1.7,1.4-3,3-3c4.6,0,8.9-1.8,12.1-5
			c3.2-3.2,5-7.5,5-12.1c0-4.6-1.8-8.9-5-12.1c-3.2-3.2-7.5-5-12.1-5c-1.7,0-3-1.4-3-3c0-1.7,1.4-3,3-3c6.2,0,12,2.4,16.4,6.8
			c4.4,4.4,6.8,10.2,6.8,16.4c0,6.2-2.4,12-6.8,16.4c-4.4,4.4-10.2,6.8-16.4,6.8C408.2,308.8,408,308.7,407.8,308.7z"/>
	</g>
	<g id="XMLID_59_">
		<path id="XMLID_347_" class="st14" d="M377.1,276.7c-7.7-1.5-15.5-7.2-25.6-14.4c-10.2-7.3-23-16.5-40.7-25.5
			c-57.8-29.3-112.7-18.3-113.2-18.2c-1.6,0.3-3.3-0.7-3.6-2.4c-0.3-1.6,0.7-3.3,2.4-3.6c2.3-0.5,57.6-11.6,117.2,18.7
			c18.2,9.2,31.1,18.5,41.5,26c11.1,8,19.1,13.7,26.2,13.7c7,0,14.4-5.9,24.7-19.6c1-1.3,2.9-1.6,4.3-0.6c1.3,1,1.6,2.9,0.6,4.3
			C397,273.5,387.3,278.7,377.1,276.7z"/>
	</g>
	<g id="XMLID_60_">
		<path id="XMLID_334_" class="st14" d="M428,288.5c-0.4-0.1-0.9-0.3-1.3-0.6c-1.3-1-1.6-2.9-0.5-4.3c7.3-9.4,10.2-18.7,8.7-27.6
			c-2.5-14.6-16.4-23.6-16.5-23.7l-1.9-1.2l0.6-2.2c5.6-18.8,4.6-34.2-2.9-46c-11.2-17.5-33.4-21.1-33.6-21.1l-2.2-0.3l-0.4-2.2
			c-3.1-18-10.2-29.9-21-35.5c-17.3-8.9-39,1.5-39.2,1.6l-2.1,1l-1.5-1.7c-16.9-19.2-40-13.6-40.2-13.6l-0.2,0.1
			c-39.5,6.6-38.4,40.6-38.3,42c0.1,1.7-1.2,3.1-2.9,3.2c-1.7,0.1-3.1-1.2-3.2-2.9c0-0.4-1.6-40.7,43.3-48.3
			c2.2-0.5,26-5.6,44.6,13.8c6.3-2.6,25.7-9.2,42.5-0.6c12.2,6.2,20.2,18.9,23.9,37.8c6.4,1.4,25,6.7,35.6,23.4
			c8.2,12.9,9.6,29.3,4.2,49c4.4,3.3,14.9,12.5,17.3,26.4c1.9,10.7-1.4,21.6-9.9,32.5C430.3,288.3,429.1,288.7,428,288.5z"/>
	</g>
	<g id="XMLID_80_">
		<path id="XMLID_346_" class="st14" d="M239.3,180.6c-0.6-0.1-1.1-0.4-1.5-0.8c-1.2-1.2-1.2-3.1-0.1-4.3
			c0.4-0.4,36.8-37.1,76.8-8.1c1.4,1,1.7,2.9,0.7,4.3c-1,1.4-2.9,1.7-4.3,0.7c-15-10.9-31.1-12.9-47.9-6.2
			c-12.7,5.1-20.9,13.5-21,13.6C241.3,180.5,240.3,180.8,239.3,180.6z"/>
	</g>
	<g id="XMLID_84_">
		<path id="XMLID_345_" class="st14" d="M299,165.5c-0.3-0.1-0.5-0.1-0.8-0.3c-1.5-0.8-2.1-2.6-1.3-4.1c5-9.7,20-25.3,41-14.6
			c1.5,0.8,2.1,2.6,1.3,4.1c-0.8,1.5-2.6,2.1-4.1,1.3c-20.9-10.6-32.4,11.1-32.8,12C301.6,165.2,300.3,165.8,299,165.5z"/>
	</g>
	<g id="XMLID_85_">
		<path id="XMLID_344_" class="st14" d="M343.5,233.6c-0.3-0.1-0.7-0.2-1-0.5c-48.4-39.1-96.4-32.2-96.9-32.2
			c-1.2,0.2-2.4-0.7-2.6-1.9c-0.2-1.2,0.7-2.4,1.9-2.6c2-0.3,50.5-7.2,100.5,33.1c1,0.8,1.1,2.2,0.3,3.2
			C345.1,233.4,344.3,233.7,343.5,233.6z"/>
	</g>
	<g id="XMLID_86_">
		<path id="XMLID_342_" class="st14" d="M248.8,141.1c-0.3-0.1-0.6-0.2-0.9-0.4c-1-0.8-1.2-2.2-0.4-3.2c0.2-0.3,22.4-28.8,55.3-13.2
			c1.1,0.5,1.6,1.9,1.1,3c-0.5,1.1-1.9,1.6-3,1.1c-29.5-13.9-49,10.8-49.8,11.9C250.5,141,249.6,141.3,248.8,141.1z"/>
	</g>
	<g id="XMLID_87_">
		<path id="XMLID_340_" class="st14" d="M412.6,214.8c-1-0.2-1.8-1-1.8-2.1c-1.9-31.4-25.2-35.7-26.1-35.9c-1.2-0.2-2.1-1.4-1.9-2.6
			c0.2-1.2,1.4-2.1,2.6-1.9c0.3,0,27.8,4.9,29.9,40.1c0.1,1.3-0.9,2.3-2.1,2.4C413,214.8,412.8,214.8,412.6,214.8z"/>
	</g>
	<g id="XMLID_88_">
		<path id="XMLID_331_" class="st14" d="M419.1,285.3c-0.7-0.1-1.3-0.6-1.6-1.3c-0.9-2.1-2.1-3.3-3.5-3.8c-2.3-0.7-4.7,0.8-4.7,0.8
			c-1.1,0.7-2.5,0.3-3.1-0.7s-0.4-2.4,0.7-3.1c0.2-0.1,4.2-2.6,8.4-1.3c2.7,0.8,4.9,3,6.3,6.3c0.5,1.2,0,2.5-1.2,3
			C420,285.3,419.5,285.4,419.1,285.3z"/>
	</g>
	<g id="XMLID_53_">
		<path id="XMLID_338_" class="st14" d="M356.2,244.6c-0.4-0.1-0.8-0.3-1.1-0.5l-5.5-5c-0.9-0.8-1-2.3-0.2-3.2
			c0.8-0.9,2.3-1,3.2-0.2l5.5,5c0.9,0.8,1,2.3,0.2,3.2C357.8,244.5,357,244.7,356.2,244.6z"/>
	</g>
	<g id="XMLID_52_">
		<path id="XMLID_337_" class="st14" d="M377.1,174.9C377.1,174.9,377.1,174.9,377.1,174.9l-7-1.4c-1.2-0.3-2-1.5-1.8-2.7
			c0.3-1.2,1.4-2,2.7-1.8l6.9,1.4c1.2,0.3,2,1.5,1.8,2.7C379.5,174.4,378.3,175.2,377.1,174.9z"/>
	</g>
	<g id="XMLID_51_">
		<path id="XMLID_333_" class="st14" d="M182.8,260c-0.4-0.1-0.8-0.3-1.2-0.5c-14.3-10.4-21.3-21.5-20.8-33.1
			c0.6-15.1,13.9-25.8,18.9-29.3c-3.5-17.3-1.1-31.7,7.3-42.9c15.4-20.4,44.8-22.3,46.1-22.3c1.7-0.1,3.1,1.2,3.2,2.9
			c0.1,1.7-1.2,3.1-2.9,3.2l0,0c-0.3,0-27.9,1.8-41.6,20c-7.6,10.1-9.5,23.5-5.8,39.9l0.5,2.1l-1.9,1.1
			c-0.2,0.1-17.2,10.7-17.8,25.6c-0.4,9.3,5.8,18.7,18.3,27.9c1.4,1,1.7,2.9,0.7,4.3C185.2,259.8,183.9,260.2,182.8,260z"/>
	</g>
	<g id="XMLID_245_">
		<path id="XMLID_335_" class="st14" d="M191.5,191.3c-1-0.2-1.7-1-1.8-2c0-0.3-3-33.2,29-40.4c1.2-0.3,2.4,0.5,2.7,1.7
			c0.3,1.2-0.5,2.4-1.7,2.7c-28.1,6.3-25.6,34.3-25.5,35.5c0.1,1.2-0.8,2.4-2,2.5C191.9,191.3,191.7,191.3,191.5,191.3z"/>
	</g>
</g>
<g id="Face_1_">
	<g id="XMLID_246_">
		<path id="XMLID_260_" class="st14" d="M293.6,318c-2.4-0.5-4.6-1.5-6.4-2.9c-2.8-2.2-4.5-5.4-4.5-8.6c0-1.7,1.4-3,3-3
			c1.7,0,3,1.4,3.1,3c0,1.9,1.3,3.2,2.1,3.8c1.6,1.2,3.8,1.9,6.1,1.9c2.3,0,4.5-0.7,6.1-1.9c0.8-0.6,2.1-1.9,2.1-3.8
			c0-1.7,1.4-3,3-3.1c1.7,0,3,1.4,3,3c0,3.3-1.6,6.4-4.4,8.6c-2.7,2.1-6.1,3.2-9.8,3.2C295.9,318.4,294.7,318.3,293.6,318z"/>
	</g>
	<g id="Face">
		<g id="XMLID_248_">
			<path id="XMLID_258_" class="st14" d="M212.6,266.6c-0.1,0-0.2,0-0.2-0.1c-1.9-0.5-3.1-2.5-2.6-4.5c0.2-0.7,4.9-17.6,20.1-25.8
				c9.8-5.2,21.4-5.6,34.7-1.2c1.9,0.6,2.9,2.7,2.3,4.6c-0.6,1.9-2.7,2.9-4.6,2.3c-11.3-3.8-21-3.6-29,0.7
				c-12.5,6.7-16.5,21.1-16.5,21.3C216.3,265.8,214.4,266.9,212.6,266.6z"/>
		</g>
		<g id="XMLID_249_">
			<circle id="XMLID_442_" class="st14" cx="250.2" cy="285.2" r="8.8"/>
		</g>
		<g id="XMLID_267_">
			<circle id="XMLID_440_" class="st14" cx="336.6" cy="289" r="8.8"/>
		</g>
		<path id="XMLID_40_" class="st14" d="M240,327.5c0,0,14.5,23.9,38.1,15.7s12.3-17.2-4.2-21.6C263.3,318.7,227.7,303.5,240,327.5z"
			/>
	</g>
</g>
<g id="Headphone">
	<g id="XMLID_207_">
		<g id="XMLID_252_">
			<g id="XMLID_93_">
				<polygon class="st15" points="407.8,243.8 420.3,245.2 438,253.6 449.6,277.1 449.6,293.8 444.3,308.8 435.7,316.8 424.9,325.6 
					407.8,327.5 				"/>
			</g>
			<g id="XMLID_92_">
				<polygon class="st16" points="407.8,243.8 420.3,245.2 420.3,327.5 407.8,327.5 				"/>
			</g>
			<g id="XMLID_91_">
				<path class="st17" d="M444.3,265.2c0,0-17.7-8-24.1,19.6l0.1-39.6C420.3,245.2,440.8,257.1,444.3,265.2z"/>
			</g>
			<g id="XMLID_90_">
				<path class="st18" d="M448.5,281.6c0,0-7.6,22.4-28.3,21.7l-0.1,20.6C420.2,323.9,452.3,312.9,448.5,281.6z"/>
			</g>
		</g>
		<g id="XMLID_147_">
			<g id="XMLID_42_">
				<path id="XMLID_215_" class="st6" d="M407.7,330h-2.6v-88.8h2.6c24.5,0,44.4,19.9,44.4,44.4C452.1,310.1,432.2,330,407.7,330z
					 M410.2,246.5v78.3c20.4-1.3,36.7-18.4,36.7-39.2C446.9,264.9,430.7,247.8,410.2,246.5z"/>
			</g>
			<g id="XMLID_43_">
				<path id="XMLID_214_" class="st6" d="M420.1,328.2c-1.4,0-2.6-1.2-2.6-2.6v-80.4c0-1.4,1.2-2.6,2.6-2.6s2.6,1.2,2.6,2.6v80.4
					C422.7,327,421.6,328.2,420.1,328.2z"/>
			</g>
		</g>
	</g>
	<g id="XMLID_203_">
		<g id="XMLID_257_">
			<g id="XMLID_97_">
				<polygon id="XMLID_45_" class="st15" points="185.4,243.8 172.9,245.2 155.1,253.6 143.5,277.1 143.5,293.8 148.9,308.8 
					157.5,316.8 168.2,325.6 185.4,327.5 				"/>
			</g>
			<g id="XMLID_96_">
				<polygon id="XMLID_55_" class="st16" points="185.4,243.8 172.9,245.2 172.9,327.5 185.4,327.5 				"/>
			</g>
			<g id="XMLID_95_">
				<path id="XMLID_83_" class="st17" d="M148.9,265.2c0,0,17.7-8,24.1,19.6l-0.1-39.6C172.9,245.2,152.4,257.1,148.9,265.2z"/>
			</g>
			<g id="XMLID_94_">
				<path id="XMLID_89_" class="st18" d="M144.6,281.6c0,0,7.6,22.4,28.3,21.7l0.1,20.6C173,323.9,140.9,312.9,144.6,281.6z"/>
			</g>
		</g>
		<g id="XMLID_150_">
			<g id="XMLID_44_">
				<path id="XMLID_210_" class="st6" d="M187.9,330h-2.6c-24.5,0-44.4-19.9-44.4-44.4c0-24.5,19.9-44.4,44.4-44.4h2.6V330z
					 M182.8,246.5c-20.4,1.3-36.7,18.4-36.7,39.2c0,20.8,16.2,37.8,36.7,39.2V246.5z"/>
			</g>
			<g id="XMLID_98_">
				<path id="XMLID_209_" class="st6" d="M172.9,328.2c-1.4,0-2.6-1.2-2.6-2.6v-80.4c0-1.4,1.2-2.6,2.6-2.6s2.6,1.2,2.6,2.6v80.4
					C175.5,327,174.3,328.2,172.9,328.2z"/>
			</g>
		</g>
		<g id="XMLID_41_">
			<path id="XMLID_208_" class="st6" d="M225.2,347.4c0,0-0.1,0-0.1,0c-25.3-1.2-40.9-17.5-41.6-18.2c-1-1-0.9-2.7,0.1-3.6
				c1-1,2.7-0.9,3.6,0.1c0.2,0.2,14.9,15.5,38.1,16.6c1.4,0.1,2.5,1.3,2.4,2.7C227.7,346.4,226.5,347.4,225.2,347.4z"/>
		</g>
		<g id="XMLID_99_">
			<ellipse class="st6" cx="227.4" cy="343.7" rx="11" ry="7.5"/>
		</g>
	</g>
</g>
<g id="Body">
	<g id="XMLID_110_">
		<polygon id="XMLID_100_" class="st19" points="256.9,394.1 245.6,407.2 236.9,420.2 231.3,433.3 225.2,450.2 225.2,467.1 
			366.2,467.1 366.3,455.2 359.1,430.6 343.9,402.9 334.5,394.1 322.8,407.2 305.8,416.7 294.6,420.2 282.7,415.6 268.6,407.2 		"/>
	</g>
	<g id="XMLID_105_">
		<path id="XMLID_101_" class="st20" d="M315.1,411.2c0,0,12.8,15.4,12.1,55.9h39.1v-16.9l-7.7-25l-24-31.1
			C334.5,394.1,324.4,411.2,315.1,411.2z"/>
	</g>
	<g id="XMLID_39_">
		<path id="XMLID_206_" class="st6" d="M225.2,469.7c-1.4,0-2.5-1.1-2.6-2.5c-1.1-43.5,31.2-73.7,32.6-74.9l2.2-2.1l1.7,2.6
			c14.5,22.3,36.7,23.7,37,23.7l2.4,0.1v50.6c0,1.4-1.2,2.6-2.6,2.6s-2.6-1.2-2.6-2.6v-45.8c-6.4-1-23.8-5.1-36.8-23.1
			c-7.1,7.5-29.7,34.1-28.8,68.9C227.8,468.5,226.7,469.6,225.2,469.7C225.2,469.7,225.2,469.7,225.2,469.7z"/>
	</g>
	<g id="XMLID_102_">
		<path id="XMLID_205_" class="st6" d="M366.2,469.7C366.2,469.7,366.2,469.7,366.2,469.7c-1.5,0-2.6-1.2-2.6-2.6
			c0.9-34.8-21.7-61.4-28.8-68.9c-13,18-30.4,22.2-36.8,23.1v45.8c0,1.4-1.2,2.6-2.6,2.6s-2.6-1.2-2.6-2.6v-50.6l2.4-0.1
			c0.2,0,22.6-1.5,37-23.7l1.7-2.6l2.2,2.1c1.4,1.3,33.6,31.4,32.6,74.9C368.8,468.6,367.6,469.7,366.2,469.7z"/>
	</g>
	<g id="XMLID_130_">
		<circle class="st6" cx="283.6" cy="433.3" r="4.8"/>
	</g>
	<g id="XMLID_140_">
		<circle class="st6" cx="283.6" cy="453" r="4.8"/>
	</g>
	<g id="XMLID_141_">
		<path id="XMLID_204_" class="st6" d="M353.9,468.7C353.9,468.7,353.9,468.7,353.9,468.7c-1,0-1.7-0.8-1.6-1.7
			c0-0.2,0.9-20.1-4.9-33.1c-0.4-0.8,0-1.8,0.8-2.1c0.8-0.4,1.8,0,2.1,0.8c6.1,13.7,5.2,33.7,5.2,34.6
			C355.5,468,354.8,468.7,353.9,468.7z"/>
	</g>
</g>
<g id="Laptop">
	<g id="XMLID_149_">
		<polygon id="XMLID_157_" class="st21" points="177.3,647.7 414.2,647.7 451.6,499 453.9,487.7 451.5,479.5 444,472.4 437.2,469.8 
			424.8,467.1 168.2,467.1 155.1,469.6 146.5,473 140,479.5 138.4,487.7 141.2,504.2 		"/>
	</g>
	<g id="XMLID_162_">
		<path id="XMLID_163_" class="st22" d="M216.4,467.1c0,0,165,23,108.5,161l93.6,2.4l32.2-127.9l3.2-14.9l-7.5-12.9l-11.6-5.8
			l-10-1.8H216.4z"/>
	</g>
	<g id="XMLID_176_">
		<path id="XMLID_177_" class="st23" d="M150.9,540.3c0,0,96.3,10.6,103.1,90.2h-81L150.9,540.3z"/>
	</g>
	<g id="XMLID_178_">
		<polygon id="XMLID_179_" class="st24" points="418.5,630.5 173,630.5 177.3,647.7 414.2,647.7 		"/>
	</g>
	<g id="XMLID_180_">
		<path id="XMLID_181_" class="st25" d="M325,628.1c0,0,16.6,3.7,22.2,19.6h67l4.3-17.2L325,628.1z"/>
	</g>
	<g id="XMLID_182_">
		<path id="XMLID_183_" class="st1" d="M325.9,557.8l1.3-9l-11.3-14.1l-15.8-5.4l-11.6,2.8l-9.5,5.5l-5.6,15l0.5,12.5l6.8,12.4
			l11,7.9l8.7,0.5C300.2,585.9,290.4,554.2,325.9,557.8z"/>
	</g>
	<g id="XMLID_184_">
		<path id="XMLID_185_" class="st26" d="M276.3,548.8c0,0,17.6-7.3,29.4,12.5c0,0,10.3-5.9,20.1-3.5c0,0,1.6-34.4-37.5-25.6
			l-9.5,5.5L276.3,548.8z"/>
	</g>
	<g id="XMLID_186_">
		<path id="XMLID_191_" class="st6" d="M416.2,650.3H175.3l-38.5-153c-0.6-1.5-4-11.6,1.8-20.2c5.2-7.8,16.1-11.7,32.4-11.7h249.6
			c16.3,0,27.2,3.9,32.4,11.7c5.8,8.6,2.4,18.6,1.8,20.2L416.2,650.3z M179.3,645.1h232.9l37.6-149.5l0.1-0.2
			c0-0.1,3.4-8.7-1.2-15.6c-4.2-6.2-13.9-9.4-28.1-9.4H171c-14.3,0-24,3.3-28.1,9.4c-4.6,6.9-1.2,15.5-1.2,15.6l0.1,0.3L179.3,645.1
			z"/>
	</g>
	<g id="XMLID_187_">
		<path id="XMLID_190_" class="st6" d="M416.3,481.1H271.4c-0.9,0-1.6-0.7-1.6-1.6s0.7-1.6,1.6-1.6h144.9c0.9,0,1.6,0.7,1.6,1.6
			S417.2,481.1,416.3,481.1z"/>
	</g>
	<g id="XMLID_188_">
		<path id="XMLID_189_" class="st6" d="M418.5,633.1H173c-1.4,0-2.6-1.2-2.6-2.6s1.2-2.6,2.6-2.6h245.6c1.4,0,2.6,1.2,2.6,2.6
			S420,633.1,418.5,633.1z"/>
	</g>
	<g id="XMLID_194_">
		<path id="XMLID_197_" class="st6" d="M155.1,514.7c-0.7,0-1.4-0.5-1.6-1.2l-4.3-17.7c-0.2-0.9,0.3-1.7,1.2-1.9
			c0.9-0.2,1.7,0.3,1.9,1.2l4.3,17.7c0.2,0.9-0.3,1.7-1.2,1.9C155.4,514.7,155.3,514.7,155.1,514.7z"/>
	</g>
	<g id="XMLID_199_">
		<path id="XMLID_202_" class="st6" d="M177.3,605.9c-0.7,0-1.4-0.5-1.6-1.2l-18.2-74.9c-0.2-0.9,0.3-1.7,1.2-1.9
			c0.9-0.2,1.7,0.3,1.9,1.2l18.2,74.9c0.2,0.9-0.3,1.7-1.2,1.9C177.6,605.9,177.4,605.9,177.3,605.9z"/>
	</g>
	<g id="XMLID_213_">
		<path id="XMLID_218_" class="st6" d="M303.3,588.7H300c-16.4,0-29.7-13.9-29.7-31s13.3-31,29.7-31s29.7,13.9,29.7,31v3l-3-0.5
			c-9.8-1.5-16.8-0.1-20.8,4.3c-6.7,7.3-3.5,20.8-3.5,20.9L303.3,588.7z M300,532c-13.6,0-24.6,11.6-24.6,25.8
			c0,13.1,9.4,24,21.5,25.6c-0.7-5.3-1-15.4,5.3-22.3c4.8-5.2,12.3-7.3,22.3-6.3C323,542,312.6,532,300,532z"/>
	</g>
	<g id="XMLID_221_">
		<circle class="st6" cx="317.7" cy="573.3" r="8.2"/>
	</g>
	<g id="XMLID_222_">
		<path id="XMLID_223_" class="st6" d="M431.9,481.1h-7.1c-0.9,0-1.6-0.7-1.6-1.6s0.7-1.6,1.6-1.6h7.1c0.9,0,1.6,0.7,1.6,1.6
			S432.7,481.1,431.9,481.1z"/>
	</g>
</g>
<g id="Ground">
	<g id="XMLID_224_">
		<path id="XMLID_225_" class="st6" d="M542.2,650.3H440.1c-1.4,0-2.6-1.2-2.6-2.6s1.2-2.6,2.6-2.6h102.1c1.4,0,2.6,1.2,2.6,2.6
			S543.6,650.3,542.2,650.3z"/>
	</g>
	<g id="XMLID_226_">
		<path id="XMLID_227_" class="st6" d="M428.3,650.3H159.1c-1.4,0-2.6-1.2-2.6-2.6s1.2-2.6,2.6-2.6h269.2c1.4,0,2.6,1.2,2.6,2.6
			S429.7,650.3,428.3,650.3z"/>
	</g>
	<g id="XMLID_228_">
		<path id="XMLID_229_" class="st6" d="M146.6,650.3H81.1c-1.4,0-2.6-1.2-2.6-2.6s1.2-2.6,2.6-2.6h65.6c1.4,0,2.6,1.2,2.6,2.6
			S148,650.3,146.6,650.3z"/>
	</g>
	<g id="XMLID_230_">
		<path id="XMLID_231_" class="st6" d="M70.5,650.3H53.6c-1.4,0-2.6-1.2-2.6-2.6s1.2-2.6,2.6-2.6h16.9c1.4,0,2.6,1.2,2.6,2.6
			S71.9,650.3,70.5,650.3z"/>
	</g>
	<g id="XMLID_232_">
		<path id="XMLID_233_" class="st6" d="M565.5,650.3h-14.3c-1.4,0-2.6-1.2-2.6-2.6s1.2-2.6,2.6-2.6h14.3c1.4,0,2.6,1.2,2.6,2.6
			S566.9,650.3,565.5,650.3z"/>
	</g>
</g>
</svg>
