<svg xmlns="http://www.w3.org/2000/svg" width="72" height="72" viewBox="0 0 72 72">
  <path id="git" d="M38.375,2.375c-19.88,0-36,16.537-36,36.916A36.845,36.845,0,0,0,27,74.311a2.825,2.825,0,0,0,.611.064,1.742,1.742,0,0,0,1.848-1.832c0-.884-.032-3.2-.048-6.284a16.451,16.451,0,0,1-3.632.434c-6.927,0-8.5-5.384-8.5-5.384-1.639-4.259-4-5.4-4-5.4-3.134-2.2-.016-2.266.225-2.266h.016c3.616.321,5.513,3.825,5.513,3.825,1.8,3.15,4.211,4.034,6.364,4.034a10.127,10.127,0,0,0,4.114-.964A7.975,7.975,0,0,1,31.786,55.6c-7.987-.932-16.393-4.1-16.393-18.241a14.448,14.448,0,0,1,3.7-9.9,13.588,13.588,0,0,1,.353-9.771,3,3,0,0,1,.8-.08c1.3,0,4.243.5,9.1,3.873a33.462,33.462,0,0,1,18.032,0c4.854-3.375,7.795-3.873,9.1-3.873a2.994,2.994,0,0,1,.8.08,13.588,13.588,0,0,1,.354,9.771,14.509,14.509,0,0,1,3.7,9.9c0,14.175-8.421,17.293-16.441,18.209,1.286,1.141,2.443,3.391,2.443,6.83,0,4.934-.048,8.92-.048,10.125a1.733,1.733,0,0,0,1.832,1.848,3.113,3.113,0,0,0,.643-.064,36.839,36.839,0,0,0,24.621-35.02C74.375,18.912,58.255,2.375,38.375,2.375Z" transform="translate(-2.375 -2.375)" fill="#f8af32"/>
</svg>
