<?xml version="1.0" encoding="utf-8"?>
<!-- Generator: Adobe Illustrator 19.0.0, SVG Export Plug-In . SVG Version: 6.00 Build 0)  -->
<svg version="1.1" id="Layer_1" xmlns="http://www.w3.org/2000/svg" xmlns:xlink="http://www.w3.org/1999/xlink" x="0px" y="0px"
	 viewBox="0 0 612 792" style="enable-background:new 0 0 612 792;" xml:space="preserve">
<style type="text/css">
	.st0{fill:#F5F7F7;}
	.st1{fill:#E2E2E2;}
	.st2{fill:#C4E0EC;}
	.st3{fill:#ECF0F2;}
	.st4{fill:#FFD56C;}
	.st5{fill:#8C9DA8;}
	.st6{fill:#707E85;}
	.st7{fill:#ACB8BF;}
	.st8{fill:#EFB05E;}
	.st9{fill:#FFDF99;}
	.st10{fill:#12426D;}
	.st11{fill:#E86D65;}
	.st12{fill:#F59598;}
	.st13{fill:#E2B34A;}
	.st14{fill:#FFE19F;}
	.st15{fill:none;stroke:#12426D;stroke-width:5.0678;stroke-linecap:round;stroke-miterlimit:10;}
	.st16{fill:#74A1D1;}
	.st17{fill:#517B9B;}
	.st18{fill:#92BDE5;}
	.st19{fill:#3A5769;}
	.st20{fill:#2C4450;}
	.st21{fill:#78A567;}
	.st22{fill:#60844F;}
	.st23{fill:#90C67D;}
	.st24{fill:#C2E0B0;}
	.st25{fill:#FDD9AF;}
	.st26{fill:#FBBA99;}
	.st27{fill:#FBD8AE;}
	.st28{fill:#46B4C6;}
	.st29{fill:#7CCFDC;}
	.st30{fill:#3F9CA5;}
	.st31{fill:#FFE09D;}
	.st32{fill:#AFBDC6;}
	.st33{fill:#FBBB9A;}
	.st34{fill:#FFECD8;}
</style>
<g id="Background_3">
	<g id="XMLID_187_">
		<polygon id="XMLID_3_" class="st0" points="520.3,494.9 535.7,494.9 541.7,512.4 541.7,548.8 494.1,548.8 494.1,494.9 		"/>
	</g>
	<g id="XMLID_176_">
		<rect id="XMLID_4_" x="494.1" y="540" class="st1" width="47.7" height="8.8"/>
	</g>
	<g id="XMLID_175_">
		<polygon id="XMLID_5_" class="st0" points="520.3,540 541.7,512.4 541.7,540 		"/>
	</g>
	<g id="XMLID_235_">
		<path id="XMLID_239_" class="st2" d="M544,551h-52.2v-58.4h45.4l6.8,16.7V551z M496.3,546.5h43.2v-36.3l-5.3-13h-37.9V546.5z"/>
	</g>
	<g id="XMLID_151_">
		<path id="XMLID_237_" class="st2" d="M541.7,542.4h-47.7c-0.8,0-1.5-0.7-1.5-1.5s0.7-1.5,1.5-1.5h47.7c0.8,0,1.5,0.7,1.5,1.5
			S542.6,542.4,541.7,542.4z"/>
	</g>
	<g id="XMLID_150_">
		<path id="XMLID_236_" class="st2" d="M520.3,542.4c-0.3,0-0.6-0.1-0.9-0.3c-0.7-0.5-0.9-1.4-0.4-2.1l21.4-31.1
			c0.5-0.7,1.4-0.9,2.1-0.4c0.7,0.5,0.9,1.4,0.4,2.1l-21.4,31.1C521.3,542.2,520.8,542.4,520.3,542.4z"/>
	</g>
</g>
<g id="Background_2">
	<g id="XMLID_186_">
		<polygon id="XMLID_256_" class="st3" points="440.2,469.3 440.2,514.2 442.3,518.7 452.5,527.9 493.9,527.9 503,525.3 
			511.5,514.6 511.5,474 511.5,461.5 502,453.7 493.9,451.7 452.5,451.7 442.3,460.8 		"/>
	</g>
	<g id="XMLID_177_">
		<path id="XMLID_254_" class="st1" d="M485.3,453.1c0,0,0.1,38.2-25.7,36.7v14.5l51.9,0.7v-37.4l-4.9-10.1l-4.6-3.8L485.3,453.1z"
			/>
	</g>
	<g id="XMLID_174_">
		<polygon id="XMLID_252_" class="st0" points="440.2,490.9 456,515.9 509.1,515.9 505.1,523.9 491.2,527.4 457.3,527.9 
			445.5,522.9 440.2,514.2 		"/>
	</g>
	<g id="XMLID_173_">
		<polygon id="XMLID_250_" class="st3" points="497.2,505.2 497.2,479 511.5,469 511.5,505 		"/>
	</g>
	<g id="XMLID_153_">
		<path id="XMLID_232_" class="st2" d="M493.9,530.2h-36.1c-11,0-19.9-8.9-19.9-19.9v-41c0-11,8.9-19.9,19.9-19.9h36.1
			c11,0,19.9,8.9,19.9,19.9v41C513.8,521.2,504.8,530.2,493.9,530.2z M457.8,453.9c-8.5,0-15.4,6.9-15.4,15.4v41
			c0,8.5,6.9,15.4,15.4,15.4h36.1c8.5,0,15.4-6.9,15.4-15.4v-41c0-8.5-6.9-15.4-15.4-15.4H457.8z"/>
	</g>
	<g id="XMLID_149_">
		<circle id="XMLID_242_" class="st2" cx="459.6" cy="470.8" r="7.1"/>
	</g>
	<g id="XMLID_148_">
		<path id="XMLID_231_" class="st2" d="M511.5,506.7h-53.5v-18.8l1.8,0.4c0.1,0,7.2,1.3,13.5-4c6.9-5.7,10.4-16.7,10.4-32.6
			c0-0.8,0.7-1.5,1.5-1.5s1.5,0.7,1.5,1.5c0,16.9-3.9,28.7-11.5,35c-5.4,4.5-11.3,4.9-14.1,4.8v12.2h50.4c0.8,0,1.5,0.7,1.5,1.5
			S512.4,506.7,511.5,506.7z"/>
	</g>
</g>
<g id="Background_1_1_">
	<g id="Background_1">
		<g id="XMLID_188_">
			<path id="XMLID_301_" class="st3" d="M45.4,688.1h337.8V556.9v-16l-6.5-8.2l-14.1-2.8H115.7c0,0-37.6,13.2-35.6,52.5v75.5H59.7
				L45.4,688.1z"/>
		</g>
		<g id="XMLID_185_">
			<polygon id="XMLID_299_" class="st1" points="45.4,688.1 51.3,672.8 383.2,672.8 383.2,688.1 			"/>
		</g>
		<g id="XMLID_184_">
			<polygon id="XMLID_297_" class="st1" points="97.8,540.9 159.9,540.9 159.9,530.5 115.7,530.5 			"/>
		</g>
		<g id="XMLID_181_">
			<polyline id="XMLID_295_" class="st0" points="80.1,582.4 114.4,583.1 128.8,597.1 128.8,625.1 80.1,625.1 80.1,584.6 			"/>
		</g>
		<g id="XMLID_179_">
			<polygon id="XMLID_293_" class="st1" points="81.8,592.6 99.3,592.6 107.3,582.9 88.8,582.9 80.1,582.4 			"/>
		</g>
		<g id="XMLID_178_">
			<polygon id="XMLID_291_" class="st1" points="341,530.5 341,638.7 350.1,649.2 350.1,671.3 327,671.3 327.5,653.4 316.7,638.7 
				316.7,530.5 			"/>
		</g>
		<g id="XMLID_364_">
			<g id="XMLID_169_">
				<path id="XMLID_265_" class="st2" d="M327.3,674.4c-0.8,0-1.5-0.7-1.5-1.5v-19.9l-10.6-13.7V529.9c0-0.8,0.7-1.5,1.5-1.5
					s1.5,0.7,1.5,1.5v108.3l10.6,13.7v21C328.8,673.7,328.1,674.4,327.3,674.4z"/>
			</g>
			<g id="XMLID_168_">
				<path id="XMLID_264_" class="st2" d="M149.7,674.4c-0.8,0-1.5-0.7-1.5-1.5v-95.8l10.2-12.9v-35.3c0-0.8,0.7-1.5,1.5-1.5
					s1.5,0.7,1.5,1.5v36.3l-10.2,12.9v94.7C151.2,673.7,150.5,674.4,149.7,674.4z"/>
			</g>
			<g id="XMLID_167_">
				<path id="XMLID_263_" class="st2" d="M383.2,674.4H52.6c-0.8,0-1.5-0.7-1.5-1.5s0.7-1.5,1.5-1.5h330.6c0.8,0,1.5,0.7,1.5,1.5
					S384.1,674.4,383.2,674.4z"/>
			</g>
			<g id="XMLID_166_">
				<path id="XMLID_262_" class="st2" d="M383.2,691.7c-1.2,0-2.3-1-2.3-2.3V550.1c0-7.3-1.9-12.6-5.5-15.5
					c-5.1-4.1-12.2-2.5-12.3-2.5l-0.2,0.1l-0.3,0H131.2c-15.7,0-27.9,4.5-36.3,13.4c-13.8,14.6-12.6,36.5-12.6,36.7l0,0.1v77.8H61.1
					l-13.7,28.9c-0.5,1.1-1.9,1.6-3,1.1c-1.1-0.5-1.6-1.9-1.1-3l14.9-31.5h19.6v-73.2c-0.1-1.7-1-24.2,13.8-39.9
					c9.3-9.9,22.6-14.9,39.6-14.9h231.2c1.6-0.3,9.6-1.5,15.8,3.4c4.8,3.8,7.3,10.2,7.3,19v139.4
					C385.5,690.7,384.5,691.7,383.2,691.7z"/>
			</g>
			<g id="XMLID_165_">
				<path id="XMLID_261_" class="st2" d="M130.2,627.4H80.1c-1.2,0-2.3-1-2.3-2.3s1-2.3,2.3-2.3h45.5v-25.6l-11.3-12.6H80.1
					c-1.2,0-2.3-1-2.3-2.3s1-2.3,2.3-2.3h36.3l13.8,15.4V627.4z"/>
			</g>
			<g id="XMLID_164_">
				<path id="XMLID_260_" class="st2" d="M118.5,617.8H80.1c-0.8,0-1.5-0.7-1.5-1.5s0.7-1.5,1.5-1.5h38.3c0.8,0,1.5,0.7,1.5,1.5
					S119.3,617.8,118.5,617.8z"/>
			</g>
			<g id="XMLID_163_">
				<path id="XMLID_259_" class="st2" d="M118.5,607.7H80.1c-0.8,0-1.5-0.7-1.5-1.5s0.7-1.5,1.5-1.5h38.3c0.8,0,1.5,0.7,1.5,1.5
					S119.3,607.7,118.5,607.7z"/>
			</g>
			<g id="XMLID_162_">
				<path id="XMLID_258_" class="st2" d="M100,594H80.1c-0.8,0-1.5-0.7-1.5-1.5s0.7-1.5,1.5-1.5h18.5l8.1-9.6
					c0.5-0.6,1.5-0.7,2.2-0.2c0.6,0.5,0.7,1.5,0.2,2.2L100,594z"/>
			</g>
			<g id="XMLID_161_">
				<path id="XMLID_257_" class="st2" d="M159.9,541.8H97.6c-0.8,0-1.5-0.7-1.5-1.5s0.7-1.5,1.5-1.5h62.3c0.8,0,1.5,0.7,1.5,1.5
					S160.8,541.8,159.9,541.8z"/>
			</g>
			<g id="XMLID_160_">
				<circle id="XMLID_271_" class="st2" cx="327.3" cy="630.8" r="3.9"/>
			</g>
			<g id="XMLID_159_">
				<circle id="XMLID_269_" class="st2" cx="327.3" cy="609.5" r="3.9"/>
			</g>
		</g>
	</g>
	<polygon id="XMLID_180_" class="st0" points="237.2,543.6 213.3,611.7 213.3,665.7 313,665.7 313.5,649 303.7,636.5 303.7,544.4 	
		"/>
</g>
<g id="Star_3">
	<g id="XMLID_171_">
		<polygon id="XMLID_6_" class="st3" points="78.7,468.8 75.7,463.7 72,463.9 68.6,467.6 69.6,472 75.2,473.7 		"/>
	</g>
	<g id="XMLID_158_">
		<path id="XMLID_221_" class="st2" d="M73.6,476.3c-4.1,0-7.4-3.3-7.4-7.4s3.3-7.4,7.4-7.4s7.4,3.3,7.4,7.4S77.7,476.3,73.6,476.3z
			 M73.6,465.9c-1.6,0-2.9,1.3-2.9,2.9s1.3,2.9,2.9,2.9s2.9-1.3,2.9-2.9S75.2,465.9,73.6,465.9z"/>
	</g>
</g>
<g id="Star_2">
	<g id="XMLID_170_">
		<polygon id="XMLID_7_" class="st3" points="110.6,269.8 112.8,265.3 109.7,262.4 104.9,263.1 102.8,267.3 105.4,271.7 
			110.6,271.7 		"/>
	</g>
	<g id="XMLID_155_">
		<path id="XMLID_211_" class="st2" d="M108,274.7c-4.1,0-7.4-3.3-7.4-7.4c0-4.1,3.3-7.4,7.4-7.4c4.1,0,7.4,3.3,7.4,7.4
			C115.4,271.4,112.1,274.7,108,274.7z M108,264.3c-1.6,0-2.9,1.3-2.9,2.9s1.3,2.9,2.9,2.9s2.9-1.3,2.9-2.9S109.6,264.3,108,264.3z"
			/>
	</g>
</g>
<g id="Star_1">
	<g id="XMLID_172_">
		<path id="XMLID_290_" class="st3" d="M513.6,269.5l-7,0.8l-0.8,4.3l3.9,3.7c0,0,4.6,0.2,4.8,0c0.2-0.2,1.6-2.3,1.6-3
			C516.1,274.7,513.6,269.5,513.6,269.5z"/>
	</g>
	<g id="XMLID_154_">
		<path id="XMLID_215_" class="st2" d="M510.9,282.1c-4.1,0-7.4-3.3-7.4-7.4s3.3-7.4,7.4-7.4c4.1,0,7.4,3.3,7.4,7.4
			S515,282.1,510.9,282.1z M510.9,271.8c-1.6,0-2.9,1.3-2.9,2.9s1.3,2.9,2.9,2.9c1.6,0,2.9-1.3,2.9-2.9S512.5,271.8,510.9,271.8z"/>
	</g>
</g>
<g id="Background_Exclamation_Point">
	<g id="XMLID_183_">
		<polygon id="XMLID_229_" class="st1" points="192.6,177 181.6,180.6 197.9,223.6 204.4,221.6 		"/>
	</g>
	<g id="XMLID_182_">
		<polygon id="XMLID_228_" class="st1" points="202.6,227.6 199.6,230.1 199.2,234.1 205.7,237.5 210.1,236.7 209.1,231 		"/>
	</g>
	<g id="XMLID_360_">
		<g id="XMLID_157_">
			<path id="XMLID_208_" class="st2" d="M197,225.5l-17.4-45.9l14.1-4.5l12.6,47.5L197,225.5z M183.6,181.5l15.2,40.2l3.7-1.2
				l-11-41.6L183.6,181.5z"/>
		</g>
		<g id="XMLID_156_">
			<path id="XMLID_205_" class="st2" d="M205.2,239.2c-3.2,0.5-6.4-1.4-7.5-4.6c-0.5-1.7-0.4-3.5,0.4-5.1c0.8-1.6,2.2-2.8,3.9-3.3
				c1.7-0.5,3.5-0.4,5.1,0.4c1.6,0.8,2.8,2.2,3.3,3.9c1.1,3.5-0.8,7.3-4.3,8.4C205.9,239,205.6,239.1,205.2,239.2z M203.6,228.9
				c-0.2,0-0.4,0.1-0.5,0.1c-0.9,0.3-1.7,0.9-2.1,1.8c-0.4,0.9-0.5,1.9-0.2,2.8l0,0c0.3,0.9,0.9,1.7,1.8,2.1s1.9,0.5,2.8,0.2
				c0.9-0.3,1.7-0.9,2.1-1.8c0.4-0.9,0.5-1.9,0.2-2.8c-0.3-0.9-0.9-1.7-1.8-2.1C205.1,228.9,204.3,228.8,203.6,228.9z"/>
		</g>
	</g>
</g>
<g id="Device">
	<g id="XMLID_115_">
		<polygon id="XMLID_324_" class="st4" points="364,653.7 425.4,665.7 486.6,653.7 486.1,659.6 484.5,662.3 426.3,674 367.9,662.3 
			364,656.6 		"/>
	</g>
	<g id="XMLID_114_">
		<polygon id="XMLID_322_" class="st5" points="377.6,577 369.6,579.4 364,585.4 364,654.2 425.4,665.7 486.6,653.7 488.2,586 
			481,579.4 472.9,577 472.8,584.4 475.2,592.5 475.4,599.1 471.4,604.5 474.6,609.5 474.7,614.9 471.9,620 473.3,628.2 
			471.8,638.7 446.1,649.2 438.1,656.4 423.8,658.8 415.8,657.4 405.5,651.7 379.1,638.7 377.3,628.2 379.2,620.6 375.6,611.2 
			378.8,604.2 375.2,596.4 377.6,585.4 		"/>
	</g>
	<g id="XMLID_113_">
		<polygon id="XMLID_320_" class="st5" points="366.3,662.6 355.4,669.5 351.4,674.6 349.5,689.5 501.1,689.5 501.1,678.5 
			491,666.8 484.5,662.3 426.3,674 		"/>
	</g>
	<g id="XMLID_112_">
		<polygon id="XMLID_318_" class="st6" points="349.5,680 425.2,680 434.4,691.3 349.5,691.3 		"/>
	</g>
	<g id="XMLID_111_">
		<path id="XMLID_316_" class="st6" d="M399.7,660.9c0,0-6.6-5.4-5.6-14.8l-14.9-7.4c0,0-2.1-5.3-2-7.9c0.1-2.6,3.6-9.4,3.6-9.4
			l-5.2-7.9l4.4-7.9l-4.8-9.2l0.4-6.9l2-4.1V577l-5,0.7l-8.6,7.7v68.4L399.7,660.9z"/>
	</g>
	<g id="XMLID_110_">
		<path id="XMLID_314_" class="st7" d="M458.7,679.5c0,0,5.7,2.8,5,9.9h37.4v-8.3l-6-1.2L458.7,679.5z"/>
	</g>
	<g id="XMLID_109_">
		<polygon id="XMLID_312_" class="st7" points="368.1,679.5 372.4,670.9 380,665.8 367.4,664.3 360.6,666.3 351.4,671.9 349.5,680 
					"/>
	</g>
	<g id="XMLID_108_">
		<path id="XMLID_310_" class="st7" d="M458.7,679.5c0,0,7.4-4.7,1.2-12.2l23.3-3l11.9,5.1l6,11.8L458.7,679.5z"/>
	</g>
	<g id="XMLID_107_">
		<path id="XMLID_308_" class="st7" d="M467.1,657.1c0,0,21.4-14.3,18.6-73.3l1,69.9L467.1,657.1z"/>
	</g>
	<g id="XMLID_106_">
		<polygon id="XMLID_306_" class="st8" points="399.7,660.9 403.1,669.2 367.9,662.3 364.4,659.6 364,653.7 		"/>
	</g>
	<g id="XMLID_105_">
		<polygon id="XMLID_304_" class="st9" points="459.9,667.3 455.9,659.7 486.6,653.7 484.5,662.3 		"/>
	</g>
	<g id="XMLID_219_">
		<g id="XMLID_77_">
			<path id="XMLID_274_" class="st10" d="M425.4,674.4c-0.1,0-0.2,0-0.3,0l-55.8-7.9c-6.5-1-7.9-7-7.7-10.2v-71.5l0.3-0.5
				c0.2-0.4,4.9-9.7,15.8-9.7h2.4V586l-0.3,0.5c-0.1,0.1-5.3,10.1,0.7,15.9l1.7,1.6l-1.5,1.7c-0.6,0.7-5.8,7.2,0.3,13.1l1.2,1.2
				l-0.7,1.6c0,0.1-3.5,7.9-0.8,15.2l26.9,11l0.4,0.9c4,8.5,17.2,7.9,17.3,7.8c1.3-0.1,2.5,0.9,2.5,2.3c0.1,1.3-0.9,2.5-2.3,2.6
				c-0.7,0-15.8,0.8-21.5-9.8l-27-11.1l-0.4-0.9c-3.3-7.5-1.3-15.3-0.2-18.6c-5.2-6-3.2-12.8-0.7-16.8c-5.7-7.3-1.6-17-0.4-19.5
				v-5.1c-5.2,1-8,5-8.8,6.3l0,70.5c0,0.5-0.1,4.6,3.6,5.2l55.7,7.9c1.3,0.2,2.2,1.4,2.1,2.7C427.6,673.5,426.6,674.4,425.4,674.4z"
				/>
		</g>
		<g id="XMLID_76_">
			<path id="XMLID_273_" class="st10" d="M349.5,691.9c-1.3,0-2.4-1.1-2.4-2.4l0-9.7c0-0.2,2-16.4,22.3-18.1
				c1.3-0.1,2.5,0.9,2.6,2.2c0.1,1.3-0.9,2.5-2.2,2.6c-15.6,1.4-17.7,12.4-17.9,13.7v9.3C351.9,690.8,350.8,691.9,349.5,691.9z"/>
		</g>
	</g>
	<g id="XMLID_216_">
		<g id="XMLID_75_">
			<path id="XMLID_272_" class="st10" d="M425.2,674.4c-1.2,0-2.2-0.9-2.4-2.1c-0.2-1.3,0.7-2.5,2.1-2.7l55.8-7.9
				c3.8-0.6,3.6-5,3.6-5.2l0-0.1V586c-0.8-1.4-3.6-5.3-8.8-6.3v5.1c1.2,2.5,5.3,12.2-0.4,19.5c2.5,4,4.4,10.7-0.7,16.8
				c1.1,3.2,3.2,11-0.2,18.6l-0.4,0.9l-27,11.1c-5.7,10.5-20.9,9.8-21.5,9.8c-1.3-0.1-2.4-1.2-2.3-2.6c0.1-1.3,1.2-2.3,2.6-2.3l0,0
				c0.1,0,13.4,0.6,17.3-7.8l0.4-0.9l26.9-11c2.8-7.4-0.7-15.2-0.8-15.2l-0.7-1.6l1.2-1.2c6.2-6,0.5-12.8,0.3-13.1l-1.5-1.7l1.7-1.6
				c6-5.8,0.7-15.8,0.7-15.9l-0.3-0.5l0-11.4h2.4c10.9,0,15.7,9.3,15.8,9.7l0.3,0.5v71.5c0.1,3.1-1.3,9.2-7.7,10.2l-55.8,7.9
				C425.4,674.4,425.3,674.4,425.2,674.4z"/>
		</g>
		<g id="XMLID_74_">
			<path id="XMLID_270_" class="st10" d="M501.1,691.9c-1.3,0-2.4-1.1-2.4-2.4v-9.3c-0.2-1.3-2.2-12.3-17.9-13.7
				c-1.3-0.1-2.3-1.3-2.2-2.6c0.1-1.3,1.3-2.3,2.6-2.2c20.3,1.8,22.3,18,22.3,18.1l0,0.3v9.4C503.5,690.8,502.4,691.9,501.1,691.9z"
				/>
		</g>
	</g>
	<g id="XMLID_73_">
		<path id="XMLID_268_" class="st10" d="M501.1,681.5H349.5c-0.8,0-1.5-0.7-1.5-1.5s0.7-1.5,1.5-1.5h151.6c0.8,0,1.5,0.7,1.5,1.5
			S501.9,681.5,501.1,681.5z"/>
	</g>
	<g id="XMLID_72_">
		<path id="XMLID_267_" class="st10" d="M367.9,681.5c-0.1,0-0.2,0-0.3,0c-0.8-0.2-1.3-1-1.1-1.8c0.1-0.6,3.3-13.5,14-15.5
			c0.8-0.2,1.6,0.4,1.7,1.2c0.2,0.8-0.4,1.6-1.2,1.7c-8.9,1.7-11.6,13.1-11.7,13.2C369.2,681.1,368.6,681.5,367.9,681.5z"/>
	</g>
	<g id="XMLID_71_">
		<path id="XMLID_266_" class="st10" d="M425.4,667.2c-0.7,0-1.3-0.5-1.5-1.2c-0.2-0.8,0.4-1.6,1.2-1.8l61.3-11.9
			c0.8-0.2,1.6,0.4,1.8,1.2c0.2,0.8-0.4,1.6-1.2,1.8l-61.3,11.9C425.6,667.1,425.5,667.2,425.4,667.2z"/>
	</g>
	<g id="XMLID_70_">
		<path id="XMLID_255_" class="st10" d="M425.2,667.2c-0.1,0-0.2,0-0.3,0l-61.3-11.9c-0.8-0.2-1.3-0.9-1.2-1.8
			c0.2-0.8,0.9-1.3,1.8-1.2l61.3,11.9c0.8,0.2,1.3,0.9,1.2,1.8C426.5,666.7,425.9,667.2,425.2,667.2z"/>
	</g>
	<g id="XMLID_69_">
		<circle id="XMLID_278_" class="st10" cx="478.7" cy="646.1" r="3.3"/>
	</g>
</g>
<g id="Exclamation_Point_2">
	<g id="XMLID_133_">
		<polygon id="XMLID_8_" class="st11" points="259.2,152.5 236.8,152.3 240.3,241.5 253.5,241.6 		"/>
	</g>
	<g id="XMLID_132_">
		<polygon id="XMLID_9_" class="st11" points="250,252.1 241.1,253.6 237,261.5 241.1,269.7 250,271.7 255.8,266.5 256.5,258.3 		
			"/>
	</g>
	<g id="XMLID_193_">
		<g id="XMLID_54_">
			<path id="XMLID_195_" class="st10" d="M255.6,243.8l-17.3-0.2l-3.7-93.5l26.9,0.3L255.6,243.8z M242.3,239.4l9.2,0.1l5.4-84.8
				l-17.9-0.2L242.3,239.4z"/>
		</g>
		<g id="XMLID_53_">
			<path id="XMLID_191_" class="st10" d="M247,273.8c-0.1,0-0.1,0-0.2,0c-3.3,0-6.3-1.3-8.6-3.7c-2.3-2.3-3.5-5.4-3.5-8.7
				c0-3.3,1.3-6.3,3.7-8.6c2.3-2.3,5.4-3.5,8.7-3.5c6.7,0.1,12.1,5.6,12,12.3v0c0,3.3-1.3,6.3-3.7,8.6
				C253.2,272.6,250.2,273.8,247,273.8z M247,253.8c-4.3,0-7.8,3.5-7.9,7.8c0,2.1,0.8,4.1,2.2,5.6c1.5,1.5,3.4,2.4,5.6,2.4
				c0,0,0.1,0,0.1,0c4.3,0,7.8-3.5,7.9-7.8c0-2.1-0.8-4.1-2.2-5.6C251.2,254.7,249.2,253.8,247,253.8
				C247.1,253.8,247.1,253.8,247,253.8z"/>
		</g>
	</g>
</g>
<g id="Exclamation_Point_1">
	<g id="XMLID_131_">
		<polygon id="XMLID_10_" class="st12" points="313.1,180.7 296,240.7 304.8,243.7 327.9,185.8 		"/>
	</g>
	<g id="XMLID_130_">
		<polygon id="XMLID_11_" class="st12" points="302.2,257.7 297.9,248.8 292.6,249.6 288.5,253.9 293.3,262 		"/>
	</g>
	<g id="XMLID_190_">
		<g id="XMLID_12_">
			<path id="XMLID_202_" class="st10" d="M306,246.4l-12.6-4.3l18.3-64.1l19.1,6.5L306,246.4z M298.6,239.3l4.9,1.7l21.6-53.9
				l-10.6-3.6L298.6,239.3z"/>
		</g>
		<g id="XMLID_189_">
			<path id="XMLID_198_" class="st10" d="M295.6,264.5c-1,0-2-0.2-2.9-0.5c-2.3-0.8-4.2-2.4-5.3-4.6c-1.1-2.2-1.2-4.7-0.4-7
				c1.6-4.8,6.8-7.3,11.6-5.7c4.8,1.6,7.3,6.8,5.7,11.6C303,262.2,299.4,264.5,295.6,264.5z M295.6,250.5c-2,0-3.9,1.3-4.6,3.3h0
				c-0.4,1.2-0.3,2.6,0.2,3.7c0.6,1.2,1.6,2,2.8,2.5c2.5,0.9,5.3-0.5,6.2-3c0.9-2.5-0.5-5.3-3-6.2
				C296.7,250.6,296.1,250.5,295.6,250.5z"/>
		</g>
	</g>
</g>
<g id="Hair">
	<g id="XMLID_340_">
		<polygon id="XMLID_441_" class="st4" points="313.2,473.2 306.5,438.3 300.8,417.9 303.8,397.4 311.6,382 316.1,371.2 317,357.2 
			313.2,342.7 301.9,332.5 281.9,327.2 248.3,330.9 240.8,323.2 229.2,314.5 198.5,304.9 175.6,308.2 155.8,319.1 140.5,339.1 
			126.8,357.2 122.8,371.5 118,383.8 113.4,406.7 113.4,430.4 109.4,478.9 103.1,498.1 91.7,508.2 106,520.1 118,520.4 128.2,519.3 
			136,525 144,529.9 151.7,534.9 168,539.4 190.3,540.3 211.3,526.7 237.9,540.1 262.4,545 282.2,541.5 298.6,530.3 310.6,507.1 		
			"/>
	</g>
	<g id="XMLID_2_">
		<path id="XMLID_439_" class="st13" d="M138.4,529.2l19.5,9.2l32.4,2l9.5-5.5l11.6-8.2l14.3,8.2l12.3,5.2l21.1,6.6l23.1-5.2
			l12.7-11.6c15.9-63.5-14.5-90.6-14.5-90.6l-11.1,4l-75.5-3.9l-25.5-2.5l-8.6-9.5c1.3,90.1-31.5,92-31.5,92L138.4,529.2z"/>
	</g>
	<g id="XMLID_44_">
		<path id="XMLID_437_" class="st13" d="M247.7,348.1c0,0-34.3,33-70,8.1c0,0-15.8,25-37.8,20.8l16.2,5.3l12.7-3.4l12.3-9.1
			l19.6,4.5l22.2-3.3l9.8-5.6l14-13.5L247.7,348.1z"/>
	</g>
	<g id="XMLID_43_">
		<path id="XMLID_435_" class="st13" d="M298.6,379.7c0,0-40.9-15.3-50.6-40.5C248,339.3,248.8,380.8,298.6,379.7z"/>
	</g>
	<g id="XMLID_42_">
		<path id="XMLID_433_" class="st14" d="M292.8,433.8c-10-25,16.5-50.6,16.5-50.6l-5.9,20.6l-2.6,14.1l4.9,17.7l7.4,19.4v35.1
			l-12.8,36.7C300.4,526.7,308.9,474,292.8,433.8z"/>
	</g>
	<g id="XMLID_40_">
		<path id="XMLID_431_" class="st14" d="M247.1,332.8c0,0-31.6-32-79.9-0.4s-39.1,120.1-39.1,120.1s1.1,86.1-36.4,55.6l12.3-12.9
			l8-47.2l7.5-68l21-40.9l15.3-20l26.3-12.8h20.8l18.4,5.1l19.6,11.8L247.1,332.8z"/>
	</g>
	<g id="XMLID_38_">
		<path id="XMLID_429_" class="st14" d="M308.9,385c0,0,18.4-45.4-61.8-52.2l8.8-3.5l26-2.1l14.8,2.8l8.8,4.8l7.7,7.9l2.7,9.3l0.8,9
			l-0.6,10.2L308.9,385z"/>
	</g>
	<g id="XMLID_13_">
		<path id="XMLID_427_" class="st15" d="M295.9,470.8"/>
	</g>
	<g id="XMLID_36_">
		<path id="XMLID_357_" class="st10" d="M263.7,547.5c-23.2,0-45.7-13.4-52.1-17.6c-14.4,13.5-33.6,16.4-55.5,8.3
			c-13.8-5.1-24.7-13.1-28.3-15.9c-4,1.9-7.9,2.7-11.5,2.7c-15.8,0-26.6-15.2-26.7-15.4l-2.4-3.4l4.2-0.5c0.1,0,20.3-4.5,19.5-75.2
			c-0.5-39.3,11.3-67.9,21.2-85c10.8-18.6,21.6-27.9,22.1-28.2l0.1-0.1c26.4-20.3,51.2-15.9,67.3-8.6c14.5,6.5,24.5,16.3,27.6,19.6
			c33.2-6.6,49.8-4.1,63.2,9.4c13.6,13.7,1.8,44.5,1,46.6c-0.5,1.4-9.1,27.8-6.8,40.2c0.5,2.5,1.3,5.7,2.3,9.5
			c4.3,16.4,11.4,43.9,4.3,73.9l-0.1,0.3c-6.9,19.8-18.2,32.3-33.5,37.3C274.3,546.8,269,547.5,263.7,547.5z M211,523.4l1.8,1.2
			c0.4,0.3,36.2,25,65.2,15.7c13.7-4.4,23.8-15.8,30.2-34c6.8-28.7-0.2-55.4-4.3-71.3c-1-3.9-1.9-7.2-2.4-9.9
			c-2.6-14,6.6-41.7,7-42.8l0-0.1c0.1-0.3,11.6-29.7,0.2-41.2c-12.3-12.4-27.4-14.3-60-7.7l-1.4,0.3l-1-1.1
			c-0.1-0.1-10.7-12.1-27.1-19.5c-21.5-9.7-42.4-7-61.9,8c-1.4,1.2-42.3,37.5-41.4,109.3c0.4,31.5-3.3,54.5-10.8,68.2
			c-3.3,6.1-6.8,9.1-9.3,10.6c4.6,5.2,16.4,15.9,31.2,7.9l1.5-0.8l1.3,1.1c0.1,0.1,12.3,10.3,28.2,16.2c20.9,7.7,38.2,4.8,51.5-8.6
			L211,523.4z"/>
	</g>
	<g id="XMLID_15_">
		<path id="XMLID_356_" class="st10" d="M207.2,367.5c-0.9,0-1.6-0.7-1.7-1.6c0-0.9,0.7-1.7,1.6-1.8c15.9-0.8,29.7-17.2,29.8-17.3
			c0.6-0.7,1.6-0.8,2.4-0.2c0.7,0.6,0.8,1.6,0.2,2.4C238.9,349.7,224.6,366.6,207.2,367.5C207.3,367.5,207.2,367.5,207.2,367.5z"/>
	</g>
	<g id="XMLID_14_">
		<path id="XMLID_355_" class="st10" d="M198.9,367.3c-2.2,0-7.9-0.4-12.8-4.5c-0.7-0.6-0.8-1.6-0.2-2.4c0.6-0.7,1.6-0.8,2.4-0.2
			c5.1,4.2,11.3,3.7,11.3,3.7c0.9-0.1,1.7,0.6,1.8,1.5c0.1,0.9-0.6,1.7-1.5,1.8C199.8,367.3,199.5,367.3,198.9,367.3z"/>
	</g>
	<g id="XMLID_16_">
		<path id="XMLID_354_" class="st10" d="M308.9,365.4c-0.8,0-1.5-0.5-1.6-1.3l0,0c-0.2-0.9-5.1-21.8-39.2-23.3
			c-0.9,0-1.6-0.8-1.6-1.7c0-0.9,0.8-1.6,1.7-1.6c36.9,1.7,42.2,25,42.4,26c0.2,0.9-0.4,1.8-1.3,2
			C309.1,365.4,309,365.4,308.9,365.4z"/>
	</g>
	<g id="XMLID_45_">
		<path id="XMLID_353_" class="st10" d="M151.7,340.8c-0.3,0-0.6-0.1-0.9-0.3c-0.8-0.5-1-1.5-0.5-2.3c0.2-0.3,17.7-27.2,47.2-23
			c0.9,0.1,1.6,1,1.4,1.9c-0.1,0.9-1,1.6-1.9,1.4c-27.4-3.9-43.7,21.2-43.9,21.5C152.8,340.5,152.2,340.8,151.7,340.8z"/>
	</g>
	<g id="XMLID_46_">
		<path id="XMLID_352_" class="st10" d="M139.9,356.4c-0.3,0-0.6-0.1-0.9-0.3c-0.8-0.5-1-1.6-0.5-2.3l6.3-9.4c0.5-0.8,1.6-1,2.3-0.5
			c0.8,0.5,1,1.6,0.5,2.3l-6.3,9.4C141,356.2,140.4,356.4,139.9,356.4z"/>
	</g>
	<g id="XMLID_341_">
		<path id="XMLID_351_" class="st10" d="M123,507.6c-0.6,0-1.2-0.3-1.5-0.9c-0.5-0.8-0.2-1.8,0.6-2.3c0.3-0.2,20.1-12.4,12.1-66.9
			c-0.1-0.9,0.5-1.8,1.4-1.9c0.9-0.1,1.8,0.5,1.9,1.4c8.4,57.1-12.9,69.8-13.8,70.3C123.6,507.5,123.3,507.6,123,507.6z"/>
	</g>
</g>
<g id="Right_Leg">
	<g id="XMLID_128_">
		<path id="XMLID_41_" class="st16" d="M257.1,552c0,0,54.6-0.1,68,25.1c0,0-4.1,46.6-21.5,76.7l-10,6l-18.5-3.3l4.4-23.7l5-40.1
			c0,0-20.9,13.5-46.4,3.9C212.5,586.8,257.1,552,257.1,552z"/>
	</g>
	<g id="XMLID_118_">
		<path id="XMLID_39_" class="st17" d="M257.1,575.4c0,0,6.2,14,39.2,12c0,0-30.7,18.5-58.2,8.9
			C238.1,596.4,251.5,586.8,257.1,575.4z"/>
	</g>
	<g id="XMLID_117_">
		<path id="XMLID_37_" class="st18" d="M257.1,552c0,0,49.2,12.3,57,29.7c0,0-4.4,38.4-14.5,59.1l10-1.3l8.8-21.9l7.2-31.6l-0.5-9
			C325.1,577,311,554.7,257.1,552z"/>
	</g>
	<g id="XMLID_127_">
		<path id="XMLID_35_" class="st17" d="M278.5,638.7c0,0,5,2.4,11,3.7c6,1.3,20-2.9,20-2.9l-6,14.3l-10,6l-18.5-3.3L278.5,638.7z"/>
	</g>
	<g id="XMLID_124_">
		<polygon id="XMLID_33_" class="st19" points="275.1,656.4 268.4,670.4 269.1,688.1 337.1,688.1 329.2,672 317.8,661.5 
			303.6,653.7 299.6,657.9 289.6,661.5 		"/>
	</g>
	<g id="XMLID_122_">
		<path id="XMLID_31_" class="st20" d="M289.6,661.5c0,0-5,21.1,13.2,26.8l-33.7-0.2c0,0-5.7-21.8,6-31.8
			C275.1,656.4,285.5,663.3,289.6,661.5z"/>
	</g>
	<g id="XMLID_119_">
		<path id="XMLID_27_" class="st17" d="M296.3,587.4c0,0,2.7,27.5-6.7,54.9l-11-3.7l2.6-44.4L296.3,587.4z"/>
	</g>
	<g id="XMLID_64_">
		<path id="XMLID_337_" class="st10" d="M287.6,662.1c-7.9,0-13.4-3.5-13.8-3.7l-1.4-0.9l0.4-1.6c8.2-36.8,7.3-62.1,7.3-62.4
			c0-1.3,1-2.5,2.3-2.5c1.4-0.1,2.5,1,2.5,2.3c0,1,0.8,25.3-7,61.8c3.1,1.5,10.9,4.1,20.1-0.4c22-29.5,24.4-70.8,24.6-76.9
			c-16.8-23.1-60-23.4-60.5-23.4c-1.3,0-2.4-1.1-2.4-2.4c0-1.3,1.1-2.4,2.4-2.4c1.9,0,47,0.3,64.9,26.1l0.4,0.6l0,0.8
			c0,1.9-1,47.9-26,81l-0.3,0.4l-0.5,0.3C295.9,661.2,291.4,662.1,287.6,662.1z"/>
	</g>
	<g id="XMLID_63_">
		<path id="XMLID_336_" class="st10" d="M269.1,690.5c-1.2,0-2.2-0.9-2.4-2.1c-3.2-22.8,6.3-33.3,6.7-33.7c0.9-1,2.4-1,3.4-0.1
			c1,0.9,1,2.4,0.1,3.4c-0.1,0.2-8.3,9.5-5.4,29.8c0.2,1.3-0.7,2.5-2.1,2.7C269.3,690.5,269.2,690.5,269.1,690.5z"/>
	</g>
	<g id="XMLID_57_">
		<path id="XMLID_334_" class="st10" d="M295,645.3c-10.1,0-17.3-4.3-17.8-4.5c-1.1-0.7-1.5-2.2-0.8-3.3c0.7-1.1,2.2-1.5,3.3-0.8
			c0.6,0.3,13.9,8.2,29.2,0.5c1.2-0.6,2.6-0.1,3.2,1.1c0.6,1.2,0.1,2.6-1.1,3.2C305.4,644.3,299.9,645.3,295,645.3z"/>
	</g>
	<g id="XMLID_65_">
		<path id="XMLID_338_" class="st10" d="M255.9,601.4c-10.4,0-16.9-2.6-17.5-2.8c-1.2-0.5-1.8-1.9-1.3-3.2c0.5-1.2,1.9-1.8,3.2-1.3
			c0.3,0.1,24.2,9.6,54.7-10.1c1.1-0.7,2.6-0.4,3.3,0.7c0.7,1.1,0.4,2.6-0.7,3.3C281.1,598.7,266.5,601.4,255.9,601.4z"/>
	</g>
	<g id="XMLID_62_">
		<path id="XMLID_335_" class="st10" d="M337.1,690.5c-1.2,0-2.3-0.9-2.4-2.2c-2.5-24.4-35.1-29.3-35.5-29.3
			c-1.3-0.2-2.2-1.4-2.1-2.7c0.2-1.3,1.4-2.3,2.7-2.1c1.5,0.2,36.8,5.5,39.6,33.6c0.1,1.3-0.8,2.5-2.2,2.7
			C337.3,690.5,337.2,690.5,337.1,690.5z"/>
	</g>
</g>
<g id="Lef_Leg">
	<g id="XMLID_129_">
		<path id="XMLID_30_" class="st16" d="M259.8,552c0,0-21.3,27.4-63.8,16.3l-1.5,17.7l5.2,15.3l6.8,34.4l1.4,14.1h-13.4l-19.4,6.7
			l-16.2,8.2l-18.6,23.3h92.8l4.4-5.7l7.6-31l0-31.3l-4.4-23.7C240.8,596.4,266.8,591.7,259.8,552z"/>
	</g>
	<g id="XMLID_126_">
		<path id="XMLID_28_" class="st17" d="M175.2,656.6c0,0-18.5,15.9-4,33.3l-30.8-1.8C140.4,688.1,142.3,663.4,175.2,656.6z"/>
	</g>
	<g id="XMLID_125_">
		<polygon id="XMLID_26_" class="st19" points="159,664.8 149.4,651.4 143.2,651.8 130.6,659.7 119.3,673.3 109.4,689.5 
			140.4,688.1 147.9,676.8 		"/>
	</g>
	<g id="XMLID_123_">
		<path id="XMLID_24_" class="st20" d="M128.4,662.3c0,0,1.7,17.4,19.5,14.4l-7.5,11.3l-31,1.4C109.4,689.5,119.3,664.9,128.4,662.3
			z"/>
	</g>
	<g id="XMLID_120_">
		<path id="XMLID_22_" class="st17" d="M166.1,680c0,0,74.2,5.5,79.8-54.9c0,0,3.2,39.1-12.7,63h-62
			C171.2,688.1,161.1,688.9,166.1,680z"/>
	</g>
	<g id="XMLID_116_">
		<path id="XMLID_20_" class="st18" d="M208,649.9c0,0,11.4-27.2,3-53.5c-8.4-26.4-3-24.7-3-24.7l-11.9-3.3c0,0-4.6,33.4,6.5,45.1
			L208,649.9z"/>
	</g>
	<g id="XMLID_68_">
		<path id="XMLID_333_" class="st10" d="M140.4,690.5c-0.5,0-0.9-0.1-1.3-0.4c-1.1-0.7-1.4-2.2-0.7-3.4l7.4-11.1
			c20.5-25.2,50.5-27.9,59.6-28.2c-0.6-7.2-2.7-27.7-7.1-40c-7.6-21-4.7-38.8-4.6-39.6c0.2-1.3,1.5-2.2,2.8-2c1.3,0.2,2.2,1.5,2,2.8
			l0,0c0,0.2-2.8,17.4,4.3,37.1c5.7,15.6,7.5,42.7,7.6,43.9l0.2,2.7l-2.7-0.1c-0.4,0-35.9-1.1-58.3,26.3l-7.2,10.9
			C141.9,690.1,141.2,690.5,140.4,690.5z"/>
	</g>
	<g id="XMLID_67_">
		<path id="XMLID_332_" class="st10" d="M235.6,690.5c-0.3,0-0.5,0-0.8-0.1c-1.3-0.4-1.9-1.8-1.5-3.1c16-45,6.5-90,6.4-90.4l-0.4-2
			l1.9-0.7c0.1,0,9.8-4.1,16.3-21.5c0.5-1.3,1.9-1.9,3.1-1.4c1.3,0.5,1.9,1.9,1.4,3.1c-5.7,15.1-13.7,21.3-17.3,23.4
			c1.6,9.1,7.7,50.1-6.9,91.2C237.6,689.9,236.6,690.5,235.6,690.5z"/>
	</g>
	<g id="XMLID_66_">
		<path id="XMLID_331_" class="st10" d="M109.4,691.9c-1.3,0-2.4-1.1-2.4-2.4c0-10.4,20.2-33.1,32.6-38.9c4.7-2.2,8.4-2.2,11.1,0
			c9.2,7.7,10.6,13.2,10.7,13.8c0.3,1.3-0.6,2.6-1.9,2.9c-1.3,0.3-2.6-0.6-2.8-1.8c0-0.2-1.3-4.6-9.1-11.1c-1.4-1.1-4.3-0.1-5.9,0.7
			c-12.3,5.8-29.8,27.3-29.8,34.5C111.8,690.8,110.8,691.9,109.4,691.9z"/>
	</g>
	<g id="XMLID_56_">
		<path id="XMLID_330_" class="st10" d="M167.3,690.5c-0.7,0-1.4-0.3-1.8-0.8c-0.4-0.5-10.1-12.5,7.8-34.6c0.8-1,2.4-1.2,3.4-0.4
			s1.2,2.4,0.4,3.4c-15.2,18.8-8.1,28-7.8,28.4c0.8,1,0.7,2.6-0.3,3.4C168.4,690.3,167.9,690.5,167.3,690.5z"/>
	</g>
</g>
<g id="Right_Arm">
	<g id="XMLID_147_">
		<polygon id="XMLID_21_" class="st21" points="241.1,454.3 234.2,463.8 238.1,487.7 248.7,510.2 266.6,529.5 291.3,542.7 
			313.7,544.8 341.2,538.9 343.2,530.5 339.9,522.9 325.5,522.4 308.6,515.7 297.5,511.8 287.6,511.8 280.1,503.2 270.2,483.3 
			259.6,463.7 250.4,454.3 		"/>
	</g>
	<g id="XMLID_146_">
		<path id="XMLID_18_" class="st22" d="M241.1,454.3c0,0,6.3,97,102.1,76.2l0.7,8.3c0,0-103.9,24.9-109.7-74.9c0,0-2.5-7.2,9.2-10.8
			"/>
	</g>
	<g id="XMLID_247_">
		<g id="XMLID_100_">
			<path id="XMLID_283_" class="st10" d="M308.5,547.2c-23.6,0-36.1-10.3-37.8-11.8c-38.7-25.3-39-69-39-71.5
				c-0.4-8.1,5.7-11.7,11-12.5c5.9-0.8,21,5.8,29.7,31c7,20.1,15.3,25.5,17,26.5c8.9,0.1,14.2,1.3,25.5,7.2c8,4.2,15.9,5.3,24.2,3.3
				c0.5-0.1,1.8-0.3,2.9,1c1.7,1.9,4.2,10.7,3.4,13c-0.2,0.5-0.4,1-0.5,1.5l1.1-0.4l-2.7,5.3c-0.4,0.9-1.2,1.3-2,1.4
				C328.7,545.7,317.8,547.2,308.5,547.2z M236.6,463.9c0,0.4-0.6,43.2,37,67.6l0.3,0.3c0.2,0.2,22,19.7,65.3,5.3
				c0.3-1,0.9-2.7,1.7-4.9c0-1.3-1.1-5.6-2-7.5c-9,1.8-17.5,0.5-26.2-4c-10.8-5.7-15.2-6.6-23.9-6.7l-0.4,0l-0.4-0.2
				c-0.5-0.2-11.5-4.7-20.1-29.6c-7.9-22.7-20.7-28.3-24.5-27.8c-1.7,0.2-7.1,1.4-6.8,7.5L236.6,463.9L236.6,463.9z"/>
		</g>
	</g>
</g>
<g id="Body">
	<g id="XMLID_17_">
		<g id="XMLID_145_">
			<polygon class="st23" points="229.8,459.5 214.5,459.5 201,463.2 185.7,474 180.9,489.6 182.7,507.1 191,532.9 195.4,550.4 
				196.3,568.3 208.2,571.7 229.8,569.8 249.5,561.4 260.1,552 263.4,519.3 258,490.9 248,463.7 242.4,459.8 			"/>
		</g>
		<g id="XMLID_144_">
			<path class="st21" d="M216.9,459.9c0,0-13.9,92.4,21.9,106l-17.2,5.7l-25.3-3.3l-3.1-28.1l-7.1-21l-5.2-29.6l4.8-15.6l15.2-10.8
				L216.9,459.9z"/>
		</g>
		<path id="XMLID_366_" class="st24" d="M217.8,469c0,0,13.3,6.7,23.3,32.6c10,25.9-7.8-27.9-7.8-27.9l-4.8-3.8L217.8,469z"/>
		<path id="XMLID_367_" class="st24" d="M231.8,463.9c0,0,24.8,16.4,29.3,48.5l-2.2-27.7l-13.3-24.8l-7,0.2L231.8,463.9z"/>
		<g id="XMLID_61_">
			<path id="XMLID_23_" class="st10" d="M215.2,574.1c-6.2,0-12.8-1-19.7-3.5l-1.6-0.6l0-1.7c0-0.2-0.3-19.5-4.1-31.8
				c-0.4-1.4-1.2-3.3-2-5.6c-5.2-13.9-15-39.7-4.9-56.9c4.7-8,13.1-13.1,25-15c1.4-0.3,20.4-4,36.5,0l0.7,0.2l0.5,0.5
				c1.1,1.1,26.8,28.5,17,92.5l-0.1,0.7l-0.5,0.5C261.6,553.9,242.9,574.1,215.2,574.1z M198.7,566.6c31.7,10.2,55.4-12,59.1-15.7
				c8.4-56.6-12.1-83.3-15.4-87.2c-15.1-3.5-33.5,0.2-33.7,0.2l-0.1,0c-10.4,1.7-17.7,5.9-21.6,12.6c-8.8,15.2,0.7,40.6,5.3,52.8
				c0.9,2.3,1.6,4.3,2.1,5.8C197.8,546,198.5,561.4,198.7,566.6z"/>
		</g>
	</g>
	<g id="XMLID_363_">
		<path id="XMLID_365_" class="st10" d="M242.1,508.8c-1,0-1.9-0.8-2-1.8c-2.3-26.5-11.7-36.9-11.8-37c-0.7-0.8-0.7-2.1,0.1-2.8
			c0.8-0.7,2-0.7,2.8,0.1c0.4,0.4,10.5,11.3,12.9,39.4c0.1,1.1-0.7,2.1-1.8,2.1C242.2,508.8,242.2,508.8,242.1,508.8z"/>
	</g>
	<circle id="XMLID_350_" class="st10" cx="225.5" cy="481.3" r="3.3"/>
</g>
<g id="Neck">
	<g id="XMLID_102_">
		<path class="st25" d="M207.4,437.3l3.4,22.2l11.4,8.4l7.7-0.3l7.4-3.7l-1.3-21.8C235.9,442,232.2,434.7,207.4,437.3z"/>
	</g>
	<g id="XMLID_101_">
		<path class="st26" d="M237,448.9c0,0-5.7,9.3-28.7-3.9l-0.8-5.6c0,0,8.3-12.3,28.4,2.7L237,448.9z"/>
	</g>
	<g id="XMLID_55_">
		<path id="XMLID_32_" class="st10" d="M226.9,471.3c-7.9,0-16.3-7.5-17.3-8.4l-0.5-0.5l-0.2-0.7c-2.8-10.1-3.8-23.7-3.8-24.2
			c-0.1-1.3,0.9-2.5,2.2-2.6c1.3-0.1,2.5,0.9,2.6,2.2c0,0.1,1,13,3.5,22.6c3.1,2.7,10.5,7.9,15.4,6.5c2.3-0.7,4-3,4.9-6.9
			c-0.1-1.2-0.2-5.7-0.2-17.2c0-1.3,1.1-2.4,2.4-2.4s2.4,1.1,2.4,2.4c0,13.6,0.2,17.2,0.2,17.3l0,0.4l-0.1,0.4
			c-1.4,5.9-4.2,9.5-8.3,10.7C229.1,471.1,228,471.3,226.9,471.3z"/>
	</g>
</g>
<g id="Left_Arm">
	<g id="XMLID_121_">
		<polygon class="st27" points="316.7,534 323.8,528.9 320.2,523.9 309.9,523.9 295.4,527.4 296,540 299.3,546.4 312.6,550.4 
			322.6,550.4 334.3,544.8 342.8,536.9 333.7,530.6 		"/>
	</g>
	<g id="XMLID_104_">
		<path class="st21" d="M229.8,514.6l-8.5-14.4l-8.5-15.7l-13.1-20.8l-9.5-3.9l-7.2,1.1l-4.8,5.8l2.6,21.4l8.6,22.1l16.2,21.9
			l13.8,8.7l17.6,7l27.2,5.3l34.9-6.8l-3.5-9.3l-1.5-8.2l-16.2,2.3l-13.8-2.8c0,0-11.6-4.5-12.7-5.5c-1.1-1-15.8-4.3-15.8-4.3
			L229.8,514.6z"/>
	</g>
	<g id="XMLID_103_">
		<path class="st22" d="M186.1,459.8c0,0,2.6,97.4,109.9,80.2l3.3,6.4l-18.7,4.5l-30.5-0.6l-27.9-5.6L199,523.9l-7.6-10.5l-5.8-13.3
			l-4.4-14l-2.9-19.4L186.1,459.8z"/>
	</g>
	<g id="XMLID_199_">
		<g id="XMLID_60_">
			<path id="XMLID_280_" class="st10" d="M266,554.5c-29.3,0-49.6-12.5-50.7-13.2C176.3,516,176,472.1,176,469.6
				c-0.4-8.1,5.7-11.7,11-12.5c5.9-0.8,21,5.8,29.7,31c7,20.3,17,26.8,19.1,28c9,0.2,16.2,3.2,27.8,9.3c9.8,5.1,22,3.4,28.3,1.9
				c1.5-0.4,3.1,0.1,4.1,1.3c1,1.2,1.3,2.8,0.8,4.3c-2.1,5.9,4,11.8,4.1,11.8l2.9,2.7l-3.8,1.3C287.9,552.9,276.3,554.5,266,554.5z
				 M180.9,469.6c0,0.4-0.6,43.2,37,67.6c0.3,0.2,34.4,21.2,77.3,8c-2.1-2.9-4.5-7.7-3.1-13c-7.3,1.6-19.9,3-30.5-2.5
				c-11.2-5.9-17.9-8.7-26.2-8.7l-0.5,0l-0.5-0.2c-0.5-0.2-13.4-6.2-22.1-31c-7.9-22.7-20.7-28.3-24.5-27.8
				c-1.7,0.2-7.1,1.4-6.8,7.5L180.9,469.6L180.9,469.6z"/>
		</g>
		<g id="XMLID_59_">
			<path id="XMLID_279_" class="st10" d="M309.3,539.3c-1,0-2-0.7-2.3-1.7c-0.4-1.3,0.4-2.6,1.6-3c6.1-1.8,11.4-4.9,11.5-6.1
				c0,0-0.2-0.6-1.9-1.6c-9.6-5.3-24.1,4.7-24.2,4.8c-1.1,0.8-2.6,0.5-3.4-0.6s-0.5-2.6,0.6-3.4c0.7-0.5,17.1-11.7,29.3-5.1
				c3.2,1.8,4.7,3.9,4.4,6.4c-0.6,5.6-11.6,9.3-15,10.2C309.8,539.2,309.5,539.3,309.3,539.3z"/>
		</g>
		<g id="XMLID_58_">
			<path id="XMLID_277_" class="st10" d="M317.2,552.4c-10.1,0-18.7-3.8-18.9-3.8c-1.2-0.5-1.8-2-1.2-3.2c0.5-1.2,2-1.8,3.2-1.2
				c1.1,0.5,26.7,11.6,38.6-8.3c0-0.3,0-0.9-0.5-1.4c-0.7-0.8-4.1-3.1-17.7-0.3c-1.3,0.3-2.6-0.6-2.9-1.9c-0.3-1.3,0.6-2.6,1.9-2.9
				c11.8-2.4,19.1-1.8,22.4,1.9c2,2.2,1.8,5,1.3,6.3l-0.2,0.4C336.6,549.4,326.3,552.4,317.2,552.4z"/>
		</g>
	</g>
</g>
<g id="Ground">
	<g id="XMLID_82_">
		<path id="XMLID_253_" class="st10" d="M70.5,691.9H51.3c-1.3,0-2.4-1.1-2.4-2.4s1.1-2.4,2.4-2.4h19.2c1.3,0,2.4,1.1,2.4,2.4
			S71.8,691.9,70.5,691.9z"/>
	</g>
	<g id="XMLID_81_">
		<path id="XMLID_251_" class="st10" d="M214.5,691.9H81.2c-1.3,0-2.4-1.1-2.4-2.4s1.1-2.4,2.4-2.4h133.3c1.3,0,2.4,1.1,2.4,2.4
			S215.9,691.9,214.5,691.9z"/>
	</g>
	<g id="XMLID_80_">
		<path id="XMLID_248_" class="st10" d="M360.6,691.9H225.8c-1.3,0-2.4-1.1-2.4-2.4s1.1-2.4,2.4-2.4h134.8c1.3,0,2.4,1.1,2.4,2.4
			S361.9,691.9,360.6,691.9z"/>
	</g>
	<g id="XMLID_79_">
		<path id="XMLID_246_" class="st10" d="M387.7,691.9h-19.1c-1.3,0-2.4-1.1-2.4-2.4s1.1-2.4,2.4-2.4h19.1c1.3,0,2.4,1.1,2.4,2.4
			S389,691.9,387.7,691.9z"/>
	</g>
	<g id="XMLID_78_">
		<path id="XMLID_245_" class="st10" d="M573.6,691.9H398.7c-1.3,0-2.4-1.1-2.4-2.4s1.1-2.4,2.4-2.4h174.8c1.3,0,2.4,1.1,2.4,2.4
			S574.9,691.9,573.6,691.9z"/>
	</g>
</g>
<g id="Light_Bulb">
	<g id="XMLID_143_">
		<polygon id="XMLID_453_" class="st5" points="320.8,469.8 313.3,470.8 309,476.1 309,485 302.6,489.3 301.4,495.8 301.4,499.6 
			296,503.2 296,509.1 298.4,512.7 309.3,521.3 314.1,530.9 316.7,536 322.6,540.7 328.5,542.9 339.9,540.7 348.2,536.9 
			356.1,538.9 360.6,539.4 366.4,538.9 367.2,528.2 374.3,522.4 373.3,513.2 379,507.7 379.8,498.8 375.9,493.8 369.6,500.8 
			363,503.2 351.9,504.1 340.1,498.7 329.4,492.9 323.8,486.4 322.5,480 		"/>
	</g>
	<g id="XMLID_142_">
		<path id="XMLID_451_" class="st28" d="M320.8,469.8l5.5-14l3.1-20.5v-22.7l2.1-26.6c0,0,6.6-31.2,7.4-33.8
			c0.8-2.6,12.6-25.8,12.6-25.8l13.8-11.6l15.1-5.5l18.3-1.3l15,2.5l15.4,6.8l9.2,6.9l10.7,9.8l9.3,16.8l3,17.6l-5.6,20.5
			l-16.8,28.7l-14.6,18l-10.6,10.5l-8.3,7.8l-17.2,19.2l-10.7,16.7l-1.7,4.2l-6.2,7l-12.5,2.8l-14.4-2.3l-13.3-8.4l-5.7-6.5
			L320.8,469.8z"/>
	</g>
	<g id="XMLID_141_">
		<path id="XMLID_449_" class="st29" d="M433.4,320.2c0,0-79.4-0.9-79.4,69.1c0,60.9-4.3,81.4-18.5,102.5l-3.3,3.1l-2.8-2l-6.9-12.9
			l-1.8-10.2l3.8-8.3l4-11.8l0.8-14.4l0.8-33.9l4.4-33.5l6.6-22.7l7-16.7l20.2-15.5l11.9-3.9l13.2-1.3l9,0.7l19.7,4.9L433.4,320.2z"
			/>
	</g>
	<g id="XMLID_140_">
		<path id="XMLID_447_" class="st30" d="M348.8,500.8c0,0,14.9-48.1,40.7-61.6s65.4-33.9,70.7-63.4l-15.9,34.2L430,428.9l-11.8,12.5
			l-12.8,12.3l-13.8,14.9l-14.1,21l-1.7,4.2l-8.9,8.3l-12.6,1L348.8,500.8z"/>
	</g>
	<g id="XMLID_139_">
		<polygon id="XMLID_445_" class="st29" points="424.4,348.2 429.6,359.3 433.4,371.4 444.4,371.4 442.7,358.4 437.1,347.3 
			434,343.4 425.3,344.9 		"/>
	</g>
	<g id="XMLID_138_">
		<polygon id="XMLID_443_" class="st29" points="434.4,385.1 429.1,398.1 425.3,404.7 425.3,408.2 429.8,408.1 437.2,398.6 
			442.7,386.6 		"/>
	</g>
	<g id="XMLID_137_">
		<polygon id="XMLID_440_" class="st31" points="353.5,421.4 357,416.4 353.8,410.1 346.8,410.1 342.9,412.8 346.3,419.9 		"/>
	</g>
	<g id="XMLID_136_">
		<polygon id="XMLID_436_" class="st31" points="396.1,441.4 401.7,438.4 402.7,432.3 398.7,428.9 394.3,428.3 390,428.9 
			389.5,439.3 		"/>
	</g>
	<g id="XMLID_135_">
		<path id="XMLID_432_" class="st6" d="M345,500.8c0,0,2.5,7.2-8.3,8.3c0,0,1.6,7-12.9,9.6c0,0,11.7,11.4-1.2,22l1.2,2.1l12.9-0.6
			l11.5-5.3l12.3,2.5l5.8-0.6l0.8-10.6l6.1-3.4l0.7-9.5l5-7.7l1.4-5.6l-4.6-8.3l-6.2,7l-9.1,4.3L345,500.8z"/>
	</g>
	<g id="XMLID_134_">
		<path id="XMLID_428_" class="st32" d="M323.8,486.4c0,0-9.1-0.3-7.5,10.5c0,0-8.2,1.3-3.8,14.8c0,0-5.7-1.1-3.2,9.5l-6.7-5.2
			l-6.6-6.9l1.4-4l4.1-5.6l1.2-10.2l6.4-4.3l-1.5-5.1l2.3-8.9l10.9-1.2l1.8,10.2L323.8,486.4z"/>
	</g>
	<g id="XMLID_227_">
		<g id="XMLID_99_">
			<path id="XMLID_326_" class="st10" d="M358.6,506.3c-4.8,0-10.1-1.3-15.8-4l-5.9-2.6c-8.2-3.3-13.8-8.4-16.4-15
				c-4.2-10.2,0.1-20.3,0.3-20.8l0.1-0.2l0.2-0.2c0.1-0.1,7.3-11,6.8-54.1c-0.5-41.2,14.3-72.6,14.9-74c9.6-18.6,26-28.9,47.3-29.9
				c16-0.7,28.9,3.9,29.5,4.1l0.1,0.1l6.1,2.7c0.5,0.3,13.3,7.3,23.9,19.8c14.2,16.9,17.5,35.5,9.5,54c-0.5,1.3-13.4,33.5-44,61.2
				c-32.2,29.2-37.1,46.6-37.1,46.8l-0.1,0.3c-0.1,0.3-3.2,7.2-11.3,10.2C364.2,505.8,361.5,506.3,358.6,506.3z M324.9,466
				c-0.5,1.2-3.4,9.3-0.2,17.1c2.2,5.4,6.9,9.6,14,12.5l6,2.6c8,3.7,14.8,4.5,20.3,2.5c5.8-2.1,8.3-6.9,8.7-7.7
				c0.7-2.3,6.6-20,38.4-48.8c29.8-27,42.7-59.3,42.9-59.6c7.4-17.1,4.5-33.6-8.7-49.3c-9.6-11.4-21.5-18.2-22.6-18.8L418,314
				c-1-0.3-13.2-4.5-27.8-3.8c-19.9,1-34.5,10.2-43.4,27.4c-0.1,0.3-15,31.8-14.5,71.9C332.9,451.3,326.2,464,324.9,466z"/>
		</g>
		<g id="XMLID_98_">
			<path id="XMLID_325_" class="st10" d="M328.5,544.3c-2.1,0-4.4-0.4-6.8-1.4c-1.1-0.5-1.7-1.8-1.2-3c0.5-1.1,1.8-1.7,3-1.2
				c7.6,3.3,14-2.2,14.1-2.3l0.5-0.5l12.5-1.5l0.6,0.3c5.6,2.6,9.8,3.2,11.9,1.7c2.3-1.7,2.1-6.1,1.8-7.7l-0.3-1.5l1.4-0.8
				c8.4-4.9,5.6-11.4,5.2-12.1l-0.8-1.7l1.5-1.1c4.2-3.2,6.3-6.3,6.2-9.3c0-3.8-3.6-6.4-3.6-6.4c-1-0.7-1.2-2.1-0.5-3.1
				c0.7-1,2.1-1.2,3.1-0.5c0.2,0.2,5.4,3.9,5.5,10c0.1,4.1-2.2,8.1-6.7,12c1.2,4,0.9,10.6-6.4,15.5c0.2,2.6,0,7.7-3.7,10.5
				c-3.5,2.6-8.8,2.3-15.9-0.9l-9.9,1.2C338.5,541.4,334.1,544.3,328.5,544.3z"/>
		</g>
		<g id="XMLID_97_">
			<path id="XMLID_323_" class="st10" d="M322.6,543c-0.3,0-0.6-0.1-0.9-0.2c-8.8-3.8-10.3-12.6-10.6-15.2l-5.9-8.1
				c-7.2-3-11.1-6.7-11.5-11c-0.4-4.6,3.2-8.2,5.2-9.9c-1.4-8.7,3.2-13.4,7-15.3c-0.3-5.9,1.1-10.3,4.2-13
				c4.5-4.1,10.8-2.8,11.1-2.8c1.2,0.3,2,1.4,1.8,2.7c-0.3,1.2-1.4,2-2.7,1.8c-0.1,0-4.4-0.8-7.2,1.7c-2.2,2-3.1,5.7-2.6,10.9
				l0.2,1.9l-1.8,0.5c-0.8,0.2-7.5,2.5-5.3,12.1l0.3,1.5l-1.3,0.9c-1.3,0.9-4.7,3.7-4.4,6.6c0.3,2.6,3.6,5.2,9.3,7.5l0.6,0.2
				l7.4,10.2l0,0.7c0,0.3,0.4,8.6,7.9,11.9c1.1,0.5,1.7,1.8,1.2,3C324.3,542.5,323.5,543,322.6,543z"/>
		</g>
		<g id="XMLID_241_">
			<g id="XMLID_96_">
				<path id="XMLID_321_" class="st10" d="M348.2,504.4c-0.3,0-0.6-0.1-0.9-0.2c-1.1-0.5-1.7-1.8-1.2-3l4.7-10.7
					c0.6-1.4,14.8-37.1,37.4-52.5c1-0.7,2.4-0.4,3.1,0.6c0.7,1,0.4,2.4-0.6,3.1c-21.5,14.6-35.6,50.1-35.8,50.4l-4.7,10.8
					C349.9,503.9,349.1,504.4,348.2,504.4z"/>
			</g>
			<g id="XMLID_95_">
				<path id="XMLID_315_" class="st10" d="M396.1,443.5c-1.2,0-2.4-0.2-3.5-0.7c-2.2-0.9-3.8-2.7-4.7-4.9c-0.9-2.2-0.8-4.6,0.1-6.8
					c2-4.5,7.2-6.5,11.7-4.6s6.5,7.2,4.6,11.7v0c-0.9,2.2-2.7,3.8-4.9,4.7C398.3,443.3,397.2,443.5,396.1,443.5z M396.1,430.3
					c-0.5,0-1.1,0.1-1.6,0.3c-1.1,0.4-1.9,1.2-2.4,2.3c-0.5,1.1-0.5,2.2-0.1,3.3c0.4,1.1,1.2,1.9,2.3,2.4c1.1,0.5,2.2,0.5,3.3,0.1
					c1.1-0.4,1.9-1.2,2.4-2.3c1-2.2-0.1-4.8-2.2-5.7C397.3,430.5,396.7,430.3,396.1,430.3z"/>
			</g>
		</g>
		<g id="XMLID_238_">
			<g id="XMLID_94_">
				<path id="XMLID_313_" class="st10" d="M333.7,498.1c-0.3,0-0.6-0.1-0.9-0.2c-1.1-0.5-1.7-1.8-1.2-3l4.7-10.7
					c0.2-0.4,16.6-34.9,12.6-60.6c-0.2-1.2,0.7-2.4,1.9-2.6c1.2-0.2,2.4,0.7,2.6,1.9c4.1,27.1-12.3,61.7-13,63.2l-4.6,10.6
					C335.4,497.5,334.6,498.1,333.7,498.1z"/>
			</g>
			<g id="XMLID_93_">
				<path id="XMLID_307_" class="st10" d="M350.6,423.7c-1.2,0-2.4-0.2-3.5-0.7c-2.2-0.9-3.8-2.7-4.7-4.9s-0.8-4.6,0.1-6.8v0
					c2-4.5,7.2-6.5,11.7-4.6c2.2,0.9,3.8,2.7,4.7,4.9c0.9,2.2,0.8,4.6-0.1,6.8s-2.7,3.8-4.9,4.7
					C352.8,423.5,351.7,423.7,350.6,423.7z M346.6,413.1c-1,2.2,0.1,4.8,2.2,5.7c1.1,0.5,2.2,0.5,3.3,0.1c1.1-0.4,1.9-1.2,2.4-2.3
					c0.5-1.1,0.5-2.2,0.1-3.3c-0.4-1.1-1.2-1.9-2.3-2.4s-2.2-0.5-3.3-0.1C347.9,411.2,347,412,346.6,413.1L346.6,413.1z"/>
			</g>
		</g>
		<g id="XMLID_92_">
			<path id="XMLID_305_" class="st10" d="M379.8,434.9c-19.6,0-24.5-16.9-24.6-17.1c-0.2-0.8,0.2-1.6,1-1.8c0.8-0.2,1.6,0.2,1.8,1
				c0.2,0.8,6,20.1,31.6,13.5c0.8-0.2,1.6,0.3,1.8,1.1c0.2,0.8-0.3,1.6-1.1,1.8C386.5,434.5,382.9,434.9,379.8,434.9z"/>
		</g>
		<g id="XMLID_91_">
			<path id="XMLID_300_" class="st10" d="M427.3,409.6c-0.8,0-1.6-0.3-2.3-0.9c-1.2-1.1-1.5-2.9-0.7-4.3c3.9-6.8,6.4-13.7,7.3-20.5
				l0.2-1.6l12.7,3l-0.4,1.5c-3.1,11.6-9.8,18.4-14.9,22.1C428.7,409.3,427.9,409.6,427.3,409.6z M434.3,385.9
				c-1.1,6.7-3.6,13.4-7.4,20c-0.1,0.2-0.1,0.4,0.1,0.6c0.2,0.2,0.4,0.1,0.5,0c4.5-3.2,10.3-9.1,13.3-19L434.3,385.9z"/>
		</g>
		<g id="XMLID_90_">
			<path id="XMLID_294_" class="st10" d="M431.7,372.9l-0.2-1.3c-1.5-10.9-6.8-18.9-9.8-22.8c-0.9-1.1-1-2.6-0.4-3.8
				c0.6-1.3,1.8-2.1,3.2-2.1c6.4-0.2,10.9,0.7,11,0.7l0.5,0.1l0.3,0.3c10,10.7,9.6,26.6,9.5,27.2l0,1.4L431.7,372.9z M426.6,345.8
				c-0.6,0-1.3,0-2,0c-0.4,0-0.5,0.3-0.6,0.4c-0.1,0.1-0.2,0.4,0.1,0.7c3.1,3.9,8.4,12,10.2,22.9l8.5-0.2c-0.2-4-1.2-15.3-8.4-23.3
				C433.4,346.2,430.4,345.8,426.6,345.8z"/>
		</g>
		<g id="XMLID_89_">
			<path id="XMLID_292_" class="st10" d="M336.7,510.3c-0.2,0-0.4,0-0.6-0.1c-29.7-12.5-28.6-24.8-28.6-25.3
				c0.1-0.8,0.8-1.4,1.7-1.3c0.8,0.1,1.4,0.8,1.3,1.6c0,0.2-0.3,10.9,26.8,22.3c0.8,0.3,1.1,1.2,0.8,2
				C337.8,510,337.3,510.3,336.7,510.3z"/>
		</g>
		<g id="XMLID_88_">
			<path id="XMLID_289_" class="st10" d="M358.2,530.9c-5.9,0-14.4-1.6-26.6-7.1c-0.8-0.3-1.1-1.2-0.7-2c0.3-0.8,1.2-1.1,2-0.7
				c26.9,12.2,34.5,4.5,34.5,4.4c0.6-0.6,1.5-0.7,2.1-0.1s0.7,1.5,0.1,2.1C369.4,527.6,366.5,530.9,358.2,530.9z"/>
		</g>
		<g id="XMLID_87_">
			<path id="XMLID_288_" class="st10" d="M363.1,516.9c-2,0-4.1-0.3-6.5-0.9c-0.8-0.2-1.3-1-1-1.8c0.2-0.8,1-1.3,1.8-1
				c9.4,2.6,15.1-1.8,15.4-2c0.6-0.5,1.6-0.4,2.1,0.2c0.5,0.6,0.4,1.6-0.2,2.1C374.4,513.6,370.2,516.9,363.1,516.9z"/>
		</g>
		<g id="XMLID_86_">
			<path id="XMLID_287_" class="st10" d="M323.8,520.2c-0.2,0-0.5-0.1-0.7-0.2c-21.1-11.1-23.1-19.8-23.1-20.1
				c-0.2-0.8,0.4-1.6,1.2-1.8c0.8-0.2,1.6,0.3,1.8,1.1c0,0.2,2.2,7.9,21.6,18.1c0.7,0.4,1,1.3,0.6,2
				C324.9,519.9,324.3,520.2,323.8,520.2z"/>
		</g>
		<g id="XMLID_85_">
			<path id="XMLID_286_" class="st10" d="M346.8,360.4c-0.1,0-0.3,0-0.4,0c-0.8-0.2-1.3-1-1.1-1.8c7.6-28.8,27.4-39.1,28.3-39.5
				c0.7-0.4,1.6-0.1,2,0.7c0.4,0.7,0.1,1.6-0.7,2l0,0c-0.2,0.1-19.5,10.2-26.7,37.6C348.1,359.9,347.5,360.4,346.8,360.4z"/>
		</g>
		<g id="XMLID_84_">
			<path id="XMLID_276_" class="st10" d="M342.9,385c-0.8,0-1.4-0.6-1.5-1.4c-0.5-6.1,1.7-15.3,1.7-15.7c0.2-0.8,1-1.3,1.8-1.1
				c0.8,0.2,1.3,1,1.1,1.8c0,0.1-2.1,9.2-1.7,14.8c0.1,0.8-0.6,1.5-1.4,1.6C343,385,343,385,342.9,385z"/>
		</g>
		<g id="XMLID_83_">
			<path id="XMLID_230_" class="st10" d="M366.4,494.4c-0.2,0-0.4,0-0.7-0.2c-0.7-0.4-1-1.3-0.7-2c0.5-1,12.6-25.6,25.4-40.1
				c0.5-0.6,1.5-0.7,2.1-0.1c0.6,0.5,0.7,1.5,0.1,2.1c-12.5,14.1-24.8,39.1-24.9,39.4C367.5,494.1,367,494.4,366.4,494.4z"/>
		</g>
	</g>
</g>
<g id="Head">
	<g id="XMLID_329_">
		<polygon id="XMLID_387_" class="st25" points="161.2,411.9 152.7,409.8 146.7,400.5 147.9,393.9 153.4,386.6 162.3,384.3 		"/>
	</g>
	<g id="XMLID_339_">
		<polygon id="XMLID_385_" class="st25" points="289.3,382.5 286.7,429.7 281.9,439.8 269.3,443.8 231,441.6 181.2,438.8 
			167.9,436.8 166.5,435.5 161.2,427.9 162.3,384.3 173.2,377.6 182.6,370.2 202.2,374.7 226.5,372.2 249.7,352.8 260.8,366.7 
			282.1,376.3 		"/>
	</g>
	<g id="XMLID_249_">
		<path id="XMLID_383_" class="st33" d="M285.6,419.9c0,0-2,14.2-14.7,14.2c-12.7,0-90.9-5.1-90.9-5.1s-16-2.8-18.4-12.5l-0.3,11.4
			l8.6,9.5l11.3,1.4l92.5,4.9l4.8-1.5l5.7-5.2l2.2-4.4L285.6,419.9z"/>
	</g>
	<g id="XMLID_52_">
		<path id="XMLID_381_" class="st33" d="M253.4,358.4c0,0-23.4,32.2-67.6,20.8c0,0-8.5,10.7-21.5,12.6l-1.1-10.4l19.3-11.2l17.4,5.9
			l21.3-3.4l17.6-10.9l9.2-9.6L253.4,358.4z"/>
	</g>
	<g id="XMLID_51_">
		<path id="XMLID_379_" class="st33" d="M289,387.3c0,0-29.1-5.8-46.9-27.4l7.5-7.1l9.1,12.4l16.3,10.7l11.5,4.2L289,387.3z"/>
	</g>
	<g id="XMLID_50_">
		<path id="XMLID_377_" class="st34" d="M255.3,405.1c0,0,0.9-8.5-3.7-16.6l-3.7,21.7l4.2-1.2L255.3,405.1z"/>
	</g>
	<g id="XMLID_49_">
		
			<ellipse id="XMLID_375_" transform="matrix(-0.9813 -0.1927 0.1927 -0.9813 349.2516 832.9676)" class="st34" cx="215.1" cy="399.5" rx="5.8" ry="3"/>
	</g>
	<g id="XMLID_48_">
		
			<ellipse id="XMLID_373_" transform="matrix(-0.9914 -0.1307 0.1307 -0.9914 492.5832 844.7379)" class="st34" cx="274" cy="406.2" rx="5.8" ry="3"/>
	</g>
	<g id="XMLID_47_">
		<path id="XMLID_371_" class="st33" d="M243.5,427.2c0,0-36.7,6.9-39-22.3l5,6.4l13.7,9.2l13.4,4.5L243.5,427.2z"/>
	</g>
	<g id="XMLID_34_">
		<path id="XMLID_349_" class="st10" d="M156.6,384.6c-5.1,0-10.7-1.2-16.6-4.3c-1.2-0.6-1.7-2.2-1.1-3.4c0.6-1.2,2.2-1.7,3.4-1.1
			c21.7,11.3,38.1-7.1,38.3-7.3l1.2-1.4l1.7,0.7c35.9,15.6,63.9-16.4,64.1-16.8l2.3-2.7l1.8,3c18.1,30,45.9,26.9,46.2,26.9
			c1.4-0.2,2.7,0.8,2.8,2.2s-0.8,2.7-2.2,2.8c-1.2,0.2-29.7,3.3-49.4-26.5c-6,5.9-23.1,20.4-45.7,20.4c-6.4,0-13.2-1.2-20.4-4
			C179.8,376.5,169.9,384.6,156.6,384.6z"/>
	</g>
	<g id="XMLID_19_">
		<path id="XMLID_348_" class="st10" d="M159.7,414.3c-0.1,0-0.2,0-0.2,0c-4.3-0.4-8.2-2.5-11-5.8c-2.8-3.4-4.1-7.6-3.7-11.9
			c0.4-4.3,2.5-8.2,5.8-11c3.4-2.8,7.6-4.1,11.9-3.7c1.4,0.1,2.4,1.4,2.3,2.8c-0.1,1.4-1.4,2.4-2.8,2.3c-3-0.3-5.9,0.6-8.2,2.5
			c-2.3,1.9-3.7,4.6-4,7.6c-0.3,3,0.6,5.9,2.5,8.2c1.9,2.3,4.6,3.7,7.6,4c1.4,0.1,2.4,1.4,2.3,2.8
			C162.1,413.3,161,414.3,159.7,414.3z"/>
	</g>
	<g id="XMLID_152_">
		<path id="XMLID_347_" class="st10" d="M153.2,398c-0.3,0-0.6-0.1-0.8-0.2c-0.8-0.5-1.1-1.5-0.6-2.3c3.2-5.6,10.3-5.2,10.6-5.1
			c0.9,0.1,1.6,0.9,1.6,1.8c-0.1,0.9-0.9,1.6-1.8,1.6l0,0c-0.1,0-5.4-0.3-7.5,3.5C154.4,397.7,153.8,398,153.2,398z"/>
	</g>
	<g id="XMLID_214_">
		<path id="XMLID_344_" class="st10" d="M271.7,446.4c-0.3,0-0.7,0-1,0l-96.1-5.4c-9.7-0.5-17.1-8.8-16.6-18.5l2.3-41.2
			c0.1-1.4,1.3-2.5,2.7-2.4c1.4,0.1,2.5,1.3,2.4,2.7l-2.3,41.2c-0.4,6.9,4.9,12.8,11.8,13.2l96.1,5.4c6.9,0.4,12.8-4.9,13.2-11.8
			l2.7-49.1c0.1-1.4,1.3-2.5,2.7-2.4c1.4,0.1,2.5,1.3,2.4,2.7l-2.7,49.1C288.7,439.2,280.9,446.4,271.7,446.4z"/>
	</g>
</g>
<g id="Face">
	<g id="XMLID_220_">
		<circle id="XMLID_362_" class="st10" cx="269.1" cy="394.2" r="5.5"/>
	</g>
	<g id="XMLID_224_">
		<circle id="XMLID_359_" class="st10" cx="223.3" cy="389.6" r="5.5"/>
	</g>
	<g id="XMLID_225_">
		<path id="XMLID_346_" class="st10" d="M248.3,413.1c-0.1,0-0.3,0-0.5,0c-4.5-0.3-7.9-4.4-7.6-9.3c0.1-1.4,1.3-2.5,2.7-2.4
			c1.4,0.1,2.5,1.3,2.4,2.7c-0.1,2.1,1.1,3.8,2.8,3.9c1.7,0.1,3.1-1.5,3.3-3.6c0.1-1.4,1.3-2.5,2.7-2.4c1.4,0.1,2.5,1.3,2.4,2.7
			C256.2,409.5,252.6,413.1,248.3,413.1z"/>
	</g>
	<g id="XMLID_226_">
		<path id="XMLID_345_" class="st10" d="M242.4,427.6c-4.5,0-28.4-0.9-38.1-20.8c-0.6-1.3-0.1-2.8,1.2-3.4c1.3-0.6,2.8-0.1,3.4,1.2
			c9.1,18.5,33.8,17.9,34.1,17.9c1.4-0.1,2.6,1.1,2.6,2.5c0,1.4-1,2.6-2.4,2.6C243,427.6,242.8,427.6,242.4,427.6z"/>
	</g>
</g>
</svg>
