<svg xmlns="http://www.w3.org/2000/svg" width="69.12" height="72" viewBox="0 0 69.12 72">
  <path id="js-square-brands" d="M61.714,32H7.406A7.567,7.567,0,0,0,0,39.714V96.286A7.567,7.567,0,0,0,7.406,104H61.714a7.567,7.567,0,0,0,7.406-7.714V39.714A7.567,7.567,0,0,0,61.714,32Zm-24.1,56.154c0,7.007-3.95,10.205-9.7,10.205a10.071,10.071,0,0,1-9.751-6.187l5.292-3.327c1.018,1.88,1.944,3.471,4.181,3.471,2.129,0,3.487-.868,3.487-4.259v-23h6.5V88.154ZM52.982,98.359c-6.033,0-9.936-2.989-11.834-6.911l5.292-3.182c1.389,2.362,3.209,4.114,6.4,4.114,2.685,0,4.413-1.4,4.413-3.343,0-2.314-1.759-3.134-4.737-4.5l-1.62-.723c-4.69-2.073-7.791-4.693-7.791-10.205,0-5.079,3.718-8.936,9.5-8.936,4.135,0,7.1,1.495,9.226,5.416l-5.061,3.375c-1.111-2.073-2.314-2.893-4.181-2.893a2.868,2.868,0,0,0-3.1,2.893c0,2.025,1.2,2.845,4,4.114l1.62.723c5.523,2.459,8.625,4.982,8.625,10.639,0,6.075-4.6,9.418-10.754,9.418Z" transform="translate(0 -32)" fill="#f8af32"/>
</svg>
