<svg xmlns="http://www.w3.org/2000/svg" width="72" height="72" viewBox="0 0 254.794 280.778">
  <g id="nodejs-icon" transform="translate(-0.603 -0.584)">
    <path id="Path_4" data-name="Path 4" d="M116.5,3.58a23.546,23.546,0,0,1,22.986,0q52.492,29.661,104.99,59.3A21.613,21.613,0,0,1,255.4,81.5V200.465a21.848,21.848,0,0,1-11.731,19.019q-52.32,29.5-104.616,59.019a22.879,22.879,0,0,1-23.24-.646q-15.686-9.093-31.39-18.15c-2.137-1.274-4.546-2.288-6.055-4.36,1.334-1.8,3.719-2.022,5.657-2.807A73.265,73.265,0,0,0,96.4,246.762a2.89,2.89,0,0,1,3.224.193c8.942,5.127,17.805,10.4,26.777,15.481,1.914,1.105,3.852-.362,5.488-1.274q51.342-29.018,102.72-57.968a3.4,3.4,0,0,0,1.866-3.345q.036-58.867.012-117.742a3.679,3.679,0,0,0-2.192-3.67q-52.139-29.363-104.253-58.76a3.621,3.621,0,0,0-4.094-.006Q73.824,49.05,21.712,78.454a3.636,3.636,0,0,0-2.2,3.653q.009,58.868,0,117.748a3.329,3.329,0,0,0,1.89,3.3q13.911,7.888,27.84,15.722c5.228,2.814,11.647,4.486,17.407,2.33A13.2,13.2,0,0,0,75.194,208.8c.048-39.016-.024-78.038.036-117.048a2.938,2.938,0,0,1,3.2-3c4.456-.03,8.918-.06,13.374.012a3.086,3.086,0,0,1,2.91,3.568c-.018,39.263.048,78.527-.03,117.79.012,10.464-4.287,21.85-13.966,26.97-11.924,6.177-26.662,4.867-38.442-1.056-10.2-5.09-19.93-11.1-29.947-16.55A21.8,21.8,0,0,1,.6,200.466V81.5a21.653,21.653,0,0,1,11.29-18.85Q64.205,33.125,116.5,3.58Z" fill="#f8af32"/>
    <path id="Path_5" data-name="Path 5" d="M146.928,85.99c15.21-.979,31.493-.58,45.18,6.913,10.6,5.742,16.472,17.793,16.659,29.566a3.2,3.2,0,0,1-3.472,2.355c-4.413-.006-8.827.06-13.24-.03-1.872.072-2.96-1.654-3.2-3.309-1.268-5.633-4.34-11.212-9.642-13.929-8.139-4.075-17.576-3.87-26.451-3.785-6.479.344-13.446.9-18.935,4.715-4.214,2.886-5.494,8.712-3.99,13.4,1.418,3.369,5.307,4.456,8.489,5.458,18.33,4.794,37.754,4.317,55.734,10.626,7.444,2.572,14.726,7.572,17.274,15.366,3.333,10.446,1.872,22.932-5.56,31.318-6.027,6.9-14.805,10.657-23.56,12.7-11.647,2.6-23.734,2.663-35.562,1.51-11.122-1.268-22.7-4.19-31.282-11.768-7.342-6.375-10.928-16.308-10.572-25.9a2.966,2.966,0,0,1,3.248-2.615c4.444-.036,8.888-.048,13.332.006a3.114,3.114,0,0,1,3.182,3.08c.82,5.367,2.837,11,7.517,14.182,9.032,5.827,20.365,5.428,30.707,5.591,8.568-.38,18.186-.495,25.178-6.158,3.689-3.23,4.782-8.634,3.785-13.283-1.08-3.925-5.186-5.754-8.712-6.95-18.1-5.724-37.736-3.647-55.656-10.12-7.275-2.571-14.31-7.432-17.105-14.906-3.9-10.578-2.113-23.662,6.1-31.765,8.006-8.06,19.563-11.164,30.551-12.275Z" fill="#f8af32"/>
  </g>
</svg>
