<?xml version="1.0" encoding="utf-8"?>
<!-- Generator: Adobe Illustrator 19.0.0, SVG Export Plug-In . SVG Version: 6.00 Build 0)  -->
<svg version="1.1" id="Layer_1" xmlns="http://www.w3.org/2000/svg" xmlns:xlink="http://www.w3.org/1999/xlink" x="0px" y="0px"
	 viewBox="0 0 612 792" style="enable-background:new 0 0 612 792;" xml:space="preserve">
<style type="text/css">
	.st0{fill:#ECF0F2;}
	.st1{fill:#E2E2E2;}
	.st2{fill:#F5F7F7;}
	.st3{fill:#C4E0EC;}
	.st4{fill:#86B5E0;}
	.st5{fill:#9BCDEE;}
	.st6{fill:#6C9EC1;}
	.st7{fill:#12426D;}
	.st8{fill:#A4B5C1;}
	.st9{fill:#8C9DA8;}
	.st10{fill:#C1CCD3;}
	.st11{fill:#FFD46C;}
	.st12{fill:#E1B248;}
	.st13{fill:#FFE09D;}
	.st14{fill:#11426E;}
	.st15{fill:#74A1D1;}
	.st16{fill:#517B9B;}
	.st17{fill:#92BDE5;}
	.st18{fill:#3A5769;}
	.st19{fill:#2C4450;}
	.st20{fill:#78A567;}
	.st21{fill:#FDD9AF;}
	.st22{fill:#60844F;}
	.st23{fill:#D45F4F;}
	.st24{fill:#E86D65;}
	.st25{fill:#5676BA;}
	.st26{fill:#385F9B;}
	.st27{fill:#FFD56C;}
	.st28{fill:#E8B458;}
	.st29{fill:#90C67D;}
	.st30{fill:#FBD8AE;}
	.st31{fill:#FBBA99;}
	.st32{fill:#FFEBD8;}
	.st33{fill:#E19D61;}
	.st34{fill:#CE8751;}
	.st35{fill:#FCCAA7;}
</style>
<g id="Background_Cloud_1">
	<path id="XMLID_127_" class="st0" d="M340.6,293.6H81.8l3.5-10l9.2-7.7l9.3,1.4l4.9-7.2l12.5-2.9l9.7-15l20.1-9.5l4.9,9.5l10.3,9.6
		l8.9,4l15.2,2.4l14-6.4l12.3-12.7l4.9-18.1l4.4-1l7.1,1l7.4,4.8l3.3,9.4c0,0,14.3-4.9,25.6,10.6c0,0,29.6-10.6,40.2,11.4
		C309.6,267.3,337.9,269,340.6,293.6z"/>
	<path id="XMLID_123_" class="st1" d="M114.8,293.6c0,0-0.1-16.3,13.8-16.3c0,0,10-27.1,31-21.8l-8.4-12.8c0,0-25.5,7.4-29.8,24.5
		c0,0-13.8,0.9-17.5,10.1c0,0-16.8-9.6-22.1,16.3H114.8z"/>
	<path id="XMLID_119_" class="st2" d="M194.9,196.1l-14.4-1.3l-21,8.3l-7,12.5l-3.4,15.4l4.9,18.1l12.3,12.7l18,5.4l14.3-2.5
		c0,0,11.3-7.9,13.5-9.2c2.1-1.3,9.6-11.6,9.6-11.6v-17.8l-4.8-17.3l-8.4-5.7L194.9,196.1z"/>
	<path id="XMLID_118_" class="st0" d="M172.2,197.3c0,0-28.8,54.3,39.8,58.3l-13.5,9.2l-19,1l-17.3-7.8l-8.2-8.9l-4.9-18.1l3.4-15.4
		l7-12.5L172.2,197.3z"/>
	<path id="XMLID_117_" class="st2" d="M269.3,255.9c0,0,20.5-0.3,27.8,18.8c0,0,17.8-2.6,24.4,20.4l19.1-1.5l-3.3-13l-9.2-9.9
		l-18.5-3.5C309.6,267.3,301.5,247.7,269.3,255.9z"/>
	<path id="XMLID_116_" class="st1" d="M204.4,261.9c0,0,17-16.9,32.8-6.3c0,0,14.8-9.7,29.8-3.3l-8.6-7h-14.5
		c0,0-1.3-19.7-17.8-15.2l-4.4,1V244L204.4,261.9z"/>
	<path id="XMLID_115_" class="st1" d="M225.3,291.9c0,0,2-12.5,18.4-8.6c0,0,7.7-19.8,25.6-5.9c0,0,23-7,35.6,16.3L225.3,291.9z"/>
	<g id="XMLID_112_">
		<path id="XMLID_224_" class="st3" d="M185.3,269.5c-21.2,0-38.4-17.2-38.4-38.4s17.2-38.4,38.4-38.4s38.4,17.2,38.4,38.4
			S206.5,269.5,185.3,269.5z M185.3,197.1c-18.8,0-34,15.3-34,34s15.3,34,34,34c18.8,0,34-15.3,34-34S204.1,197.1,185.3,197.1z"/>
	</g>
	<g id="XMLID_111_">
		<path id="XMLID_223_" class="st3" d="M342.8,295.8H79.1l0.5-2.6c1.7-8.8,5.3-14.8,10.7-17.9c4.9-2.8,10-2.4,12.7-1.8
			c4.4-7.5,12-9,16.8-8.6c10.7-25.5,32.4-21.8,32.6-21.7c1.2,0.2,2,1.4,1.8,2.6c-0.2,1.2-1.4,2-2.6,1.8c-0.8-0.1-19.2-3.1-28.3,20.6
			l-0.7,1.8l-1.8-0.4c-0.4-0.1-10.2-1.9-14.7,7.5l-0.9,1.8l-1.9-0.7c0,0-5.8-1.9-11,1.1c-3.7,2.1-6.4,6.2-7.9,12.2h253.6
			c-0.9-5.8-5.3-21.1-28.7-21.9l-1.5-0.1l-0.5-1.4c-0.3-0.8-7.1-18.7-37.7-9.9l-1.9,0.5l-0.8-1.8c-0.2-0.6-6.2-14.2-21.6-9.6
			l-2.2,0.6l-0.6-2.2c0-0.1-2.4-8.3-8.7-11.8c-3.3-1.8-7.3-2.1-11.8-0.7c-1.2,0.4-2.4-0.3-2.8-1.5c-0.4-1.2,0.3-2.4,1.5-2.8
			c5.7-1.7,10.8-1.4,15.2,1.1c5.9,3.2,8.9,9.2,10.1,12.4c14.2-3.2,21.6,6.8,24,10.9c28.3-7.4,38.3,7,40.7,11.8
			c31.3,1.9,31.8,28.2,31.8,28.5L342.8,295.8z"/>
	</g>
</g>
<g id="Background_Cloud_2">
	<path id="XMLID_126_" class="st0" d="M281.3,451.8c0,0,9.2-21.1,33.6-20.1c0,0,2.6-24,20.4-22.4c0,0,4-42.7,48.7-35.3
		c0,0,23-15.9,35.6,0c0,0,32.9-13.4,46.8,21.7c0,0,17.1-3.9,29,16.2c0,0,39.6-9.7,64.3,36.9l1.6,3
		C561.2,451.8,281.3,449.1,281.3,451.8z"/>
	<path id="XMLID_125_" class="st1" d="M405.1,451.9c0,0,0.7-15.1,16.1-15.1c0,0,3.6-19.2,29.3-10.3c0,0,11.9-16.8,29.6,0
		c0,0,29.6-5.1,48.1,27.3L405.1,451.9z"/>
	<path id="XMLID_124_" class="st1" d="M328.7,451.5c0,0-9.9-9.8,0-18.5c0,0-5.3-16.9,17.1-14.8c0,0,3.3-34.4,38.2-44.1
		c0,0-42.1-6.8-48.7,35.3c0,0-21.1,2.2-20.4,22.4c0,0-21.7-3.1-33.6,20.1L328.7,451.5z"/>
	<path id="XMLID_114_" class="st2" d="M466.3,395.7c0,0,21.7,8.7,22.4,25.8c0,0,37.5,17.6,39.5,32.2l32.9-1.9
		c0,0-16.5-42.2-65.9-39.8C495.3,411.9,488.7,392.9,466.3,395.7z"/>
	<path id="XMLID_113_" class="st2" d="M421.2,436.7c0,0,6.9-16.6,29.3-10.3c0,0,14.5-8.9,29.6,0c0,0-6.3-21-29.5-19.5
		c0,0,2-31.4-31.1-32.9c0,0-18.4-14-35.6,0c0,0-31.6,10.4-38.2,44.1c0,0-22.4-5.4-17.1,14.8c0,0-12.5,9.6,0,18.5
		c0,0,73.1,1.7,76.4,0.4S403.8,438,421.2,436.7z"/>
	<g id="XMLID_107_">
		<path id="XMLID_170_" class="st3" d="M564.8,454h-287l1.5-3.2c0.1-0.2,11.4-23,33.6-21.5c0.6-4.1,2.5-12.7,8.6-17.9
			c3.3-2.8,7.2-4.3,11.8-4.3c0.6-5.1,3.1-17.8,13.6-26.7c8.9-7.6,21.1-10.5,36.5-8.7c3.8-2.9,20.7-14,36.7-0.2
			c6.2-2.1,32.2-8.8,47.5,21.6c5.2-1,19.7-2,29,16.3c3.6-0.6,12-1.6,22.4,1.3c12.4,3.4,30.2,13.1,44.2,40.1L564.8,454z M285.2,449.6
			h272.3c-10.2-18.3-23.8-30.2-39.4-34.6c-12.5-3.5-22-1-22.1-0.9l-1.8,0.5l-0.8-1.7c-9.6-20.7-25.5-15.3-26.2-15.1l-1.9,0.7
			l-0.9-1.8C449,364,421.6,375.5,420.5,376l-1.3,0.6l-1.1-1c-15.5-14.4-31.9-0.5-32.6,0.1l-0.7,0.6l-1-0.1c-14.5-1.9-26,0.7-34,7.5
			c-11.6,9.9-12.2,25.5-12.2,25.7l-0.1,2.3l-2.3-0.2c-4.3-0.4-7.9,0.7-10.7,3.1c-6.6,5.7-7.3,17-7.3,17.1l-0.1,2.4l-2.4-0.3
			C298.9,431.8,289.1,443.7,285.2,449.6z"/>
	</g>
</g>
<g id="Star_3">
	<polygon id="XMLID_122_" class="st1" points="108.8,352.6 107.6,347.7 103.8,347.7 98.9,352.6 99.8,355.4 103.8,357.5 	"/>
	<g id="XMLID_110_">
		<path id="XMLID_220_" class="st3" d="M103.8,359.7c-3.9,0-7.2-3.2-7.2-7.2s3.2-7.2,7.2-7.2s7.2,3.2,7.2,7.2
			S107.8,359.7,103.8,359.7z M103.8,349.9c-1.5,0-2.7,1.2-2.7,2.7c0,1.5,1.2,2.7,2.7,2.7c1.5,0,2.7-1.2,2.7-2.7
			C106.5,351.1,105.3,349.9,103.8,349.9z"/>
	</g>
</g>
<g id="Star_2">
	<polygon id="XMLID_121_" class="st1" points="435.4,245.3 426.9,246.6 421.7,252.3 421.2,258.6 427.4,264.8 436.4,264.8 
		442.2,255.6 	"/>
	<g id="XMLID_109_">
		<path id="XMLID_217_" class="st3" d="M431.9,268.1c-6.9,0-12.5-5.6-12.5-12.5c0-6.9,5.6-12.5,12.5-12.5s12.5,5.6,12.5,12.5
			C444.4,262.5,438.8,268.1,431.9,268.1z M431.9,247.5c-4.4,0-8,3.6-8,8c0,4.4,3.6,8,8,8s8-3.6,8-8
			C440,251.1,436.4,247.5,431.9,247.5z"/>
	</g>
</g>
<g id="Star_1">
	<polygon id="XMLID_120_" class="st1" points="400.6,328.9 401.6,325.8 396.2,320.3 390.7,325.8 391.7,328.9 	"/>
	<g id="XMLID_108_">
		<path id="XMLID_214_" class="st3" d="M396.2,333.4c-4.2,0-7.6-3.4-7.6-7.6s3.4-7.6,7.6-7.6s7.6,3.4,7.6,7.6
			S400.4,333.4,396.2,333.4z M396.2,322.6c-1.8,0-3.2,1.4-3.2,3.2s1.4,3.2,3.2,3.2s3.2-1.4,3.2-3.2S397.9,322.6,396.2,322.6z"/>
	</g>
</g>
<g id="Bird_2">
	<path id="XMLID_169_" class="st3" d="M511.6,373.4c-0.9,0-1.7-0.5-2.1-1.4c-2.9-7.7-7.1-12.5-12.4-14.3c-8-2.7-16.1,2.3-16.2,2.3
		l-3.3,2.1l0-3.9c-0.1-8.1-2.3-13.9-6.5-17.3c-6-4.9-14.5-3.2-14.6-3.2c-1.2,0.3-2.4-0.5-2.6-1.7c-0.3-1.2,0.5-2.4,1.7-2.6
		c0.4-0.1,10.5-2.2,18.2,4c4.6,3.7,7.3,9.5,8,17.2c3.7-1.6,10.1-3.4,16.7-1.2c6.6,2.2,11.7,7.9,15.2,16.9c0.4,1.1-0.1,2.4-1.3,2.9
		C512.1,373.3,511.9,373.4,511.6,373.4z"/>
</g>
<g id="Bird">
	<g id="XMLID_105_">
		<path id="XMLID_168_" class="st3" d="M141.6,510.6l-2.8-2.8c-5.7-5.7-11.4-8.3-16.8-7.8c-7.7,0.8-12.5,7.9-12.6,8
			c-0.7,1-2,1.3-3.1,0.6c-1-0.7-1.3-2-0.6-3.1c0.2-0.4,6-8.9,15.8-9.9c5.9-0.6,11.9,1.7,17.8,6.7c1.5-3.7,4.8-9.5,11.1-12.5
			c6.3-3.1,13.9-2.6,22.7,1.4c1.1,0.5,1.6,1.8,1.1,2.9c-0.5,1.1-1.8,1.6-2.9,1.1c-7.5-3.4-13.8-3.9-18.8-1.5
			c-7.6,3.7-9.9,12.9-9.9,13L141.6,510.6z"/>
	</g>
	<g id="XMLID_104_">
		<path id="XMLID_167_" class="st3" d="M114.8,485.2c-0.3,0-0.5-0.1-0.8-0.2c-0.8-0.4-1-1.4-0.6-2.1c0.1-0.2,3-5.2,8.4-6.2
			c3.1-0.6,6.4,0.3,9.8,2.6c0.8-2.1,2.4-5.2,5.5-7c3.4-2,7.6-2.1,12.6-0.2c0.8,0.3,1.2,1.2,0.9,2c-0.3,0.8-1.2,1.2-2,0.9
			c-4.1-1.5-7.4-1.5-9.9,0c-3.8,2.2-4.6,7.2-4.6,7.2l-0.4,2.7l-2.1-1.8c-3.3-2.8-6.3-3.9-9.1-3.4c-4,0.7-6.2,4.6-6.2,4.7
			C115.8,484.9,115.3,485.2,114.8,485.2z"/>
	</g>
</g>
<g id="Cloud_3">
	<g id="XMLID_66_">
		<path id="XMLID_518_" class="st4" d="M453.9,609.1l6.7-3.2l12.5,3.3l13.2-4.3l14.2,6.3l9.4,13l4.7,15.1c0,0,25.8-1,29.6,31.1
			l-14,0.4l-203.1-2.4l13.8-20.1l24.7-10.5l10.5-19.2l18.6-5.8l15-1.7l11.6-8.8l14.4,2L453.9,609.1z"/>
	</g>
	<g id="XMLID_60_">
		<path id="XMLID_516_" class="st5" d="M511.6,642.8c0,0,12.7,11.7,10,27.5l11.3,0h11.2l-3.6-14.7l-8.1-9.7
			C532.5,645.9,521.2,635,511.6,642.8z"/>
	</g>
	<g id="XMLID_8_">
		<path id="XMLID_514_" class="st6" d="M421.2,602.4l32.6,6.7l9-4.7l10.2,4.8l18.1-2.1l7.1,4.1c-16.5-4-14.4,10.8-14.4,10.8
			c-12.1-1-6.9,8.7-6.9,8.7s-30.8-16.4-51.3,0c0,0-29-18.7-60.5,9.3c-31.5,28,0,0,0,0s9.1-23.4,25.6-26.1
			c16.4-2.7,18.9-2.7,18.9-2.7s21.7-17.1,44.2-2.1"/>
	</g>
	<g id="XMLID_29_">
		<path id="XMLID_59_" class="st7" d="M327.1,672.7c-0.1,0-0.1,0-0.2,0c-1.3-0.1-2.3-1.3-2.2-2.6c2.3-25.3,30.9-31.2,38.4-32.3
			c6.3-27.3,39.2-29,45.5-29.1c16.8-15.9,37.6-5.9,43.4-2.5c3.1-2.3,10.9-6.4,21.1,0.2c3.5-1.6,13.4-5.1,23.3-0.5
			c9.5,4.4,16.2,14.8,19.9,31c6.7,0.4,27.7,4,30.1,33.2c0.1,1.3-0.9,2.5-2.2,2.6c-1.3,0.1-2.5-0.9-2.6-2.2
			c-2.4-29.9-26.1-28.9-27.1-28.9l-2,0.1l-0.4-2c-3.3-15.7-9.2-25.6-17.6-29.5c-9.9-4.6-20.3,0.9-20.4,1l-1.3,0.7l-1.2-0.9
			c-10.6-7.5-17.3-0.6-17.6-0.3l-1.4,1.5l-1.7-1.1c-0.9-0.6-22.8-15.1-39.7,1.7l-0.7,0.7l-1,0c-1.5-0.1-37-0.9-42.1,26.9l-0.3,1.8
			l-1.8,0.2c-0.3,0-33.5,3.2-35.8,28.2C329.4,671.8,328.4,672.7,327.1,672.7z"/>
	</g>
	<g id="XMLID_55_">
		<path id="XMLID_510_" class="st5" d="M351.1,670.3c0,0,1-15.5,27-12.3c0,0,9.5-20.8,29-10.6c0,0,32-14.5,47.5,23.3"/>
	</g>
</g>
<g id="Cloud_2">
	<g id="XMLID_65_">
		<polygon id="XMLID_508_" class="st4" points="201.6,598.4 186.6,599 172.2,603.4 161.7,611.2 151.5,624 136.5,621 123.7,622 
			109.7,629.4 102.7,639.3 99.2,651.7 89.7,655.6 85.9,661.3 85.8,670.8 136.5,670.8 281.3,670.8 278.5,658.7 268.1,647.5 
			248.5,639.3 240.7,622.2 224.6,607.3 215.3,602.4 		"/>
	</g>
	<g id="XMLID_58_">
		<path id="XMLID_506_" class="st5" d="M151.5,631.4c0,0,14-26.3,45.4-22.3l7.4-10.3C204.4,598.8,163.2,593.9,151.5,631.4z"/>
	</g>
	<g id="XMLID_57_">
		<path id="XMLID_504_" class="st6" d="M112.2,670.8c0,0-10.9-9.6,0-15.6c0,0-1.9-35.1,39.3-31.1c0,0-42.7-17.3-52.4,27.7
			c0,0-17.5,3.1-13.3,19.1H112.2z"/>
	</g>
	<g id="XMLID_56_">
		<path id="XMLID_502_" class="st6" d="M139.9,669c0,0,16.7-43.6,30.1-44c0,0,4.1-17.3,25.5-13.8l8.9-12.3l8.2,3.6l7.9,4.7l6.8,1.9
			l6.1,5.9l13.2,18l6.3,8.2l21.7,9.7l6.8,19.6H176.6L139.9,669z"/>
	</g>
	<g id="XMLID_128_">
		<path id="XMLID_500_" class="st5" d="M139.9,669l-25.1,1.8c0,0-5.3-42.4,47.7-30.8c0,0,17.4-21.1,34.8,0.5c0,0,34,1.9,40.9,30.2
			L139.9,669"/>
	</g>
	<g id="XMLID_32_">
		<path id="XMLID_152_" class="st7" d="M85.8,673.2c-1,0-2-0.7-2.3-1.7c-0.1-0.3-2.3-7.8,1.7-14.2c2.4-3.8,6.3-6.3,11.8-7.6
			c0.7-4.7,3.6-17.3,14.6-25c9.9-6.9,23.5-7.9,40.6-3c1.3,0.4,2,1.7,1.6,2.9c-0.4,1.3-1.7,2-2.9,1.6c-15.5-4.5-27.8-3.7-36.5,2.3
			c-11.6,8.1-12.8,23.1-12.8,23.3l-0.1,1.9l-1.9,0.3c-5,0.8-8.4,2.7-10.3,5.7c-2.8,4.5-1.2,10.3-1.1,10.3c0.4,1.3-0.3,2.6-1.6,3
			C86.3,673.1,86.1,673.2,85.8,673.2z"/>
	</g>
	<g id="XMLID_31_">
		<path id="XMLID_151_" class="st7" d="M281.3,670.3C281.3,670.3,281.3,670.3,281.3,670.3c-1.3,0-2.4-1.1-2.4-2.4
			c0.1-22.9-30.3-26.3-30.7-26.3l-1.7-0.2l-0.4-1.6c-7.5-30.8-40.2-38.2-42.2-38.6c-19.2-1.9-33.4,2.6-42.4,13.6
			c-6.6,8.1-7.7,16.8-7.7,16.9c-0.2,1.3-1.3,2.2-2.6,2.1c-1.3-0.2-2.2-1.3-2.1-2.6c0-0.4,5.3-39.8,55.4-34.7l0.2,0
			c0.4,0.1,36.4,7.5,45.6,40.6c7,1.1,33.4,7.1,33.3,30.8C283.7,669.3,282.6,670.3,281.3,670.3z"/>
	</g>
	<g id="XMLID_30_">
		<path id="XMLID_135_" class="st7" d="M118.4,658c-0.2,0-0.3,0-0.5-0.1c-1.3-0.3-2.1-1.5-1.8-2.8c0.1-0.4,2.1-9.5,10.4-14.7
			c5.8-3.7,13.1-4.5,21.7-2.4c1.3,0.3,2.1,1.6,1.8,2.9c-0.3,1.3-1.6,2.1-2.9,1.8c-7.3-1.7-13.3-1.2-18,1.8
			c-6.6,4.1-8.3,11.6-8.3,11.7C120.5,657.2,119.5,658,118.4,658z"/>
	</g>
	<g id="XMLID_21_">
		<path id="XMLID_155_" class="st7" d="M176.1,612.7c-0.4,0-0.9-0.2-1.1-0.5c-0.5-0.6-0.4-1.6,0.2-2.1c0.4-0.3,10.2-8.1,22.7-2.3
			c0.7,0.3,1.1,1.2,0.7,2c-0.3,0.7-1.2,1.1-2,0.7c-10.8-5-19.3,1.7-19.6,2C176.7,612.5,176.4,612.7,176.1,612.7z"/>
	</g>
</g>
<g id="Mountain">
	<g id="XMLID_73_">
		<path id="XMLID_490_" class="st8" d="M139.9,669l28.3-35.8l18.4-9l33.8-48.2l10-15.6l12-4.1L255,566l10.9,7.7l12,8.5l11.8,2.9
			h13.6l13.7-2l70.1-44.1l7.3,3.2l14.4,19.2c0,0,82.1,95.3,124.1,108.9H149.1L139.9,669z"/>
	</g>
	<g id="XMLID_72_">
		<path id="XMLID_488_" class="st9" d="M230.4,560.4c0,0-7.4,17,1.7,37c9.1,20.1,8,33.4-12.2,41.9s-20.7,31.5-20.7,31.5l-59.2-1.8
			l28.3-35.8l18.4-9L230.4,560.4z"/>
	</g>
	<g id="XMLID_71_">
		<path id="XMLID_486_" class="st9" d="M368,549.7c0,0-31.2,21.7-26.7,47.7s-34.4,59.6-70.3,73.4h150.2c0,0-53.7-39.7-25.1-61.7
			s20.3-39.1,20.3-39.1l-14.8-18.3l-7.2-9.5l-7.3-3.2L368,549.7z"/>
	</g>
	<g id="XMLID_70_">
		<path id="XMLID_484_" class="st9" d="M456,614.9c0,0-18.7,27.6,7,55.9H533l-29.9-17.4l-29.2-24.7L456,614.9z"/>
	</g>
	<g id="XMLID_69_">
		<path id="XMLID_482_" class="st10" d="M160.8,670.8l11.4-24.7c0,0,27.7,6.3,34.8-21.7c7.1-28,14.5-51.2,14.5-51.2l-35,50.9
			l-18.4,9L139.9,669L160.8,670.8z"/>
	</g>
	<g id="XMLID_68_">
		<path id="XMLID_480_" class="st10" d="M406.2,558.2c0,0-11.5,16.4,6.5,33.5s29.5,22.8,29.5,22.8s37.2,24.7,56,56.3H533l-34.7-21.5
			l-29-24.9l-29.1-28.8L416.4,570L406.2,558.2z"/>
	</g>
	<g id="XMLID_48_">
		<path id="XMLID_149_" class="st7" d="M136.5,673.2c-0.5,0-1.1-0.2-1.5-0.6c-1-0.8-1.1-2.3-0.3-3.4l31.9-37.9l18.3-9l41.7-59.5
			c2.3-4.2,9.5-10.4,20.9-4.6c2.9,1.5,6.1,3.8,9.8,6.6c13,9.6,30.8,22.8,59,16c1.3-0.3,2.6,0.5,2.9,1.8c0.3,1.3-0.5,2.6-1.8,2.9
			c-30.4,7.4-50-7.1-63-16.8c-3.5-2.6-6.5-4.9-9.1-6.2c-10-5.1-14.2,1.9-14.6,2.7l-0.2,0.3L188.2,626l-18.5,9.1l-31.3,37.2
			C137.9,672.9,137.2,673.2,136.5,673.2z"/>
	</g>
	<g id="XMLID_47_">
		<path id="XMLID_147_" class="st7" d="M533,672.7c-0.3,0-0.6,0-0.8-0.2c-51.6-19.6-130.2-113.3-137.5-125.9
			c-1.9-3.4-4.1-5.3-6.3-5.7c-2.2-0.4-4,0.9-4,1l-0.2,0.2l-95.6,62.3l-0.1,0.1c-0.5,0.2-11.4,5.6-8.6,17.6
			c3.6,15.4-26.7,31.7-30.2,33.5c-1.2,0.6-2.6,0.2-3.2-1c-0.6-1.2-0.2-2.6,1-3.2c8.5-4.5,30.1-18.2,27.8-28.2
			c-2.9-12.4,5.8-20.3,11-22.9l95.3-62.1c0.7-0.5,3.7-2.6,7.7-1.9c3.6,0.7,6.9,3.4,9.6,8c6.9,12,85.5,105,135.1,123.9
			c1.2,0.5,1.8,1.8,1.4,3.1C534.8,672.1,533.9,672.7,533,672.7z"/>
	</g>
	<g id="XMLID_38_">
		<path id="XMLID_145_" class="st7" d="M295.3,607.4c-0.5,0-1-0.3-1.3-0.7c-0.4-0.7-0.2-1.6,0.5-2l75.1-45.5c0.7-0.4,1.6-0.2,2,0.5
			c0.4,0.7,0.2,1.6-0.5,2L296,607.2C295.8,607.3,295.5,607.4,295.3,607.4z"/>
	</g>
	<g id="XMLID_37_">
		<path id="XMLID_144_" class="st7" d="M375.6,557.8c-0.5,0-1-0.2-1.2-0.7c-0.4-0.7-0.2-1.6,0.5-2l7.9-5c0.7-0.4,1.6-0.2,2,0.5
			c0.4,0.7,0.2,1.6-0.5,2l-7.9,5C376.1,557.7,375.9,557.8,375.6,557.8z"/>
	</g>
	<g id="XMLID_36_">
		<path id="XMLID_142_" class="st7" d="M204.4,616c-0.3,0-0.6-0.1-0.9-0.3c-0.7-0.5-0.8-1.4-0.3-2.1l20.4-28
			c0.5-0.7,1.4-0.8,2.1-0.3c0.7,0.5,0.8,1.4,0.3,2.1l-20.4,28C205.3,615.8,204.8,616,204.4,616z"/>
	</g>
	<g id="XMLID_35_">
		<path id="XMLID_141_" class="st7" d="M287.3,590.4C287.3,590.4,287.3,590.4,287.3,590.4c-15.3-0.3-24.8-7.8-32.4-13.8
			c-2.5-2-4.9-3.9-7.2-5.2c-7.9-4.7-14.2,4.6-14.5,5c-0.5,0.7-1.4,0.9-2,0.4c-0.7-0.5-0.9-1.4-0.4-2c2.8-4.2,10.2-10.7,18.4-5.9
			c2.5,1.4,4.9,3.4,7.5,5.4c7.3,5.7,16.3,12.8,30.6,13.1c0.8,0,1.5,0.7,1.4,1.5C288.8,589.8,288.1,590.4,287.3,590.4z"/>
	</g>
</g>
<g id="Cloud_1">
	<g id="XMLID_67_">
		<path id="XMLID_277_" class="st4" d="M305.1,668.9l4.7-6.5l9-2.9h6.1l6.8-8l6.6-5.8l12.9-2.3l15.5,5.3c0,0,10-38.1,55.4-26.2
			l20.3,11.2l9.4,12.3l7.2,2.1l9.6,10h6.5l10.2,11.9L305.1,668.9z"/>
	</g>
	<g id="XMLID_64_">
		<path id="XMLID_275_" class="st6" d="M332.8,669c0,0,1.7-18.6,33.9-20.3l-15.5-5.3l-10.7,0.9l-11.6,7.8l-4,7.3h-6.1l-9,2.9
			l-4.7,6.5L332.8,669z"/>
	</g>
	<g id="XMLID_63_">
		<path id="XMLID_273_" class="st6" d="M376.6,670c0,0-5.9-39.4,36-39.4c0,0-1.8-8.2,16.5-5.2c0,0-46.2-20.8-62.4,23.4
			C366.7,648.8,373.5,651.9,376.6,670z"/>
	</g>
	<g id="XMLID_62_">
		<path id="XMLID_271_" class="st5" d="M440.7,648.2c0,0,14.5,1.9,18.4,13c0,0,6.9,3.3,8.4,8.7h17.8l-5.4-8.7l-11.2-3.1l-5.7-7.2
			l-11.1-4.9L440.7,648.2z"/>
	</g>
	<g id="XMLID_61_">
		<path id="XMLID_269_" class="st5" d="M390.5,670.3c0,0-2.3-9.8,10.9-9.1c0,0,7.3-17.7,19.7-3.1c0,0,27-8.6,30.8,11.7L390.5,670.3z
			"/>
	</g>
	<g id="XMLID_34_">
		<path id="XMLID_140_" class="st7" d="M305.1,672.6c-0.1,0-0.3,0-0.5,0c-1.3-0.3-2.1-1.5-1.9-2.8c0-0.3,1.3-6.5,6.9-10.3
			c3.6-2.4,8-3.3,13.2-2.6c1.8-3.5,6.7-11,15.9-14.4c7.9-2.8,16.9-1.8,26.9,3c3.1-8.1,14.4-30.7,45.7-27.3c2.1,0.1,30,2,42.8,26.7
			c0.6,1.2,0.1,2.6-1,3.2c-1.2,0.6-2.6,0.1-3.2-1C438.1,624.5,411.2,623,411,623l-0.1,0c-33.7-3.7-41.2,25.3-41.6,26.5l-0.7,3
			l-2.7-1.5c-9.7-5.3-18.3-6.6-25.5-4c-9.9,3.5-13.9,13.3-13.9,13.4l-0.7,1.8l-1.9-0.4c-13.6-2.7-16.1,7.6-16.3,8.8
			C307.2,671.8,306.2,672.6,305.1,672.6z"/>
	</g>
	<g id="XMLID_33_">
		<path id="XMLID_139_" class="st7" d="M483.5,672.6c-1.3,0-2.4-1.1-2.4-2.4c0-0.1-0.1-4.9-3.3-7.8c-2.1-1.8-5.2-2.5-9.1-2l-1.8,0.2
			l-0.7-1.7c-0.3-0.7-7.3-16.1-24.5-8.6c-1.2,0.5-2.6,0-3.1-1.2c-0.5-1.2,0-2.6,1.2-3.1c6.7-2.9,12.8-3.2,18.4-1.1
			c6.4,2.6,10.1,7.9,11.6,10.6c4.6-0.3,8.4,0.8,11.2,3.3c4.9,4.3,4.9,11,4.9,11.3C485.9,671.5,484.8,672.6,483.5,672.6z"/>
	</g>
	<g id="XMLID_24_">
		<path id="XMLID_138_" class="st7" d="M382.1,646.7c-0.2,0-0.4,0-0.6-0.1c-0.7-0.3-1.1-1.2-0.7-1.9c0.1-0.2,9-19.4,32.6-14.8
			c0.8,0.2,1.3,0.9,1.2,1.7c-0.2,0.8-0.9,1.3-1.7,1.2c-21.3-4.2-29.2,12.9-29.3,13.1C383.2,646.4,382.7,646.7,382.1,646.7z"/>
	</g>
	<g id="XMLID_23_">
		<path id="XMLID_137_" class="st7" d="M431.6,640.6c-0.3,0-0.5-0.1-0.8-0.2c-6.8-4.3-11.5-5.2-11.6-5.2c-0.8-0.1-1.3-0.9-1.2-1.7
			c0.1-0.8,0.9-1.3,1.7-1.2c0.2,0,5.4,1,12.7,5.6c0.7,0.4,0.9,1.3,0.5,2C432.6,640.4,432.1,640.6,431.6,640.6z"/>
	</g>
	<g id="XMLID_22_">
		<path id="XMLID_136_" class="st7" d="M332.7,671.7c-0.8,0-1.4-0.6-1.5-1.4c0-0.2-0.5-15.4,19.6-19.5c0.8-0.2,1.6,0.3,1.7,1.1
			c0.2,0.8-0.3,1.6-1.1,1.7c-17.7,3.7-17.3,16.4-17.3,16.5C334.2,670.9,333.6,671.6,332.7,671.7
			C332.8,671.7,332.7,671.7,332.7,671.7z"/>
	</g>
</g>
<g id="Ground">
	<g id="XMLID_54_">
		<path id="XMLID_134_" class="st7" d="M66.1,672.7H49c-1.3,0-2.4-1.1-2.4-2.4s1.1-2.4,2.4-2.4h17.1c1.3,0,2.4,1.1,2.4,2.4
			S67.4,672.7,66.1,672.7z"/>
	</g>
	<g id="XMLID_53_">
		<path id="XMLID_133_" class="st7" d="M207,673.2H77.9c-1.3,0-2.4-1.1-2.4-2.4s1.1-2.4,2.4-2.4H207c1.3,0,2.4,1.1,2.4,2.4
			S208.3,673.2,207,673.2z"/>
	</g>
	<g id="XMLID_52_">
		<path id="XMLID_132_" class="st7" d="M224.8,672.7h-9.9c-1.3,0-2.4-1.1-2.4-2.4s1.1-2.4,2.4-2.4h9.9c1.3,0,2.4,1.1,2.4,2.4
			S226.1,672.7,224.8,672.7z"/>
	</g>
	<g id="XMLID_51_">
		<path id="XMLID_131_" class="st7" d="M473,672.7H235.3c-1.3,0-2.4-1.1-2.4-2.4s1.1-2.4,2.4-2.4H473c1.3,0,2.4,1.1,2.4,2.4
			S474.4,672.7,473,672.7z"/>
	</g>
	<g id="XMLID_50_">
		<path id="XMLID_130_" class="st7" d="M552.1,672.7h-65.9c-1.3,0-2.4-1.1-2.4-2.4s1.1-2.4,2.4-2.4h65.9c1.3,0,2.4,1.1,2.4,2.4
			S553.4,672.7,552.1,672.7z"/>
	</g>
	<g id="XMLID_49_">
		<path id="XMLID_129_" class="st7" d="M572.5,672.7h-10.5c-1.3,0-2.4-1.1-2.4-2.4s1.1-2.4,2.4-2.4h10.5c1.3,0,2.4,1.1,2.4,2.4
			S573.8,672.7,572.5,672.7z"/>
	</g>
</g>
<g id="Hair">
	<polygon id="XMLID_212_" class="st11" points="360.1,342.4 354.8,325.4 343,311 338.2,293.5 339.1,278.4 338.9,268.2 334.6,256.7 
		327.6,251.2 310,247.4 293,249.6 270.3,259.7 261.6,256.2 249.2,253.4 227.4,257.8 207,273.3 185,308.5 174.1,328.1 155,352.8 
		146.2,359.4 139.8,362.7 128.1,364.6 129.8,374.2 136.6,385.7 151.8,390.1 163.1,402.3 177.3,408.6 201.6,404.7 209.6,402.5 
		220.3,407.2 234.4,409.7 246.6,408.4 260.3,400.3 266.5,395.3 272.1,390.3 282.6,391.7 310.8,393.6 338.9,381.8 352.6,367.2 
		358.7,353.3 	"/>
	<path id="XMLID_211_" class="st12" d="M350.7,369.2c0,0-3.8-35.6-34.8-83.7l-40.1-14.2l-1.6,8.2l-10.7,17.9l-19.9,12.9l-16.8,1.6
		L216,328.5l2.3,27.1c-10,45.3-55.2,46.7-55.2,46.7l17.9,7.3l30.2-7.3l16.2,6.1l21.3-1.3l17.7-11.9l6.5-6.7l27.4,6.7l-0.4-1.9
		l18.2-1.1C318.2,392.3,340.4,387.9,350.7,369.2z"/>
	<path id="XMLID_210_" class="st12" d="M275.9,273.7c0,0-15.9,38.5-53.3,31.1c0,0-3.9,25.6-23,30l14.9-1.5l9-7.2l6.6-11.6l17.3-3.3
		l16.6-10.4l5.9-7.9l6.4-15.8L275.9,273.7z"/>
	<path id="XMLID_209_" class="st12" d="M186.6,362.1c0,0-25.2,31.5-47.5,24.2l-9.3-12.2C129.8,374.2,150.2,386,186.6,362.1z"/>
	<path id="XMLID_208_" class="st12" d="M327.8,281.2c0,0-38.2,2.1-54.8-14.6C273,266.6,288.3,299.6,327.8,281.2z"/>
	<path id="XMLID_207_" class="st13" d="M342.2,326.6c-15-18.2-4.5-46.4-4.5-46.4l2.5,18.6L343,311l10.2,12.5l4.6,9.6l2.3,9.4
		l-1.5,10.9C358.7,353.3,357.2,344.8,342.2,326.6z"/>
	<path id="XMLID_206_" class="st13" d="M270,261.7c0,0-36.6-14.6-64.2,27.8s-18.1,33.2-18.1,33.2s-33.2,65.9-59.7,41.9l9.7-1.1
		l18.7-13.5l13.9-17.1l22.8-39.8l20.5-24.9l12.7-8.5l15.4-6.2l19.9,2.6L270,261.7z"/>
	<path id="XMLID_205_" class="st13" d="M337.9,281.8c0,0-1.2-42.8-67.9-20.1l5.8-5.9l20.3-7l11-1.4l7.6,0.4l10,2.4l7.2,2.7l3.8,6.9
		l3.1,8.4L337.9,281.8z"/>
	<g id="XMLID_204_">
		<path id="XMLID_293_" class="st14" d="M184,410.7c-0.9,0-1.8,0-2.7-0.1c-12.5-0.9-23.6-8.1-33.1-21.4c-0.7-1-0.5-2.4,0.5-3.1
			c1-0.7,2.4-0.5,3.1,0.5c8.7,12.2,18.7,18.8,29.8,19.6c19.8,1.4,36.7-16,36.9-16.2c0.8-0.9,2.3-0.9,3.1-0.1
			c0.9,0.8,0.9,2.3,0.1,3.1C221,393.7,204.6,410.7,184,410.7z"/>
	</g>
	<g id="XMLID_203_">
		<path id="XMLID_292_" class="st14" d="M249.7,303.6c-0.5,0-1.1-0.3-1.3-0.8c-0.4-0.7-0.1-1.6,0.7-2c12.4-6.3,17.8-24.2,17.8-24.4
			c0.2-0.8,1-1.2,1.8-1c0.8,0.2,1.2,1,1,1.8c-0.2,0.8-5.8,19.4-19.3,26.2C250.1,303.6,249.9,303.6,249.7,303.6z"/>
	</g>
	<g id="XMLID_202_">
		<path id="XMLID_291_" class="st14" d="M236.3,307.8c-1.4,0-3-0.2-4.6-0.6c-0.8-0.2-1.2-1-1-1.8c0.2-0.8,1-1.2,1.8-1
			c5.5,1.6,10.4-1,10.4-1c0.7-0.4,1.6-0.1,2,0.6c0.4,0.7,0.1,1.6-0.6,2C244.1,306,240.8,307.8,236.3,307.8z"/>
	</g>
	<g id="XMLID_201_">
		<path id="XMLID_290_" class="st14" d="M330.5,266.2c-0.5,0-0.9-0.2-1.2-0.6l0,0c-0.5-0.6-11.7-15.6-39.7-4.9
			c-0.8,0.3-1.6-0.1-1.9-0.8c-0.3-0.8,0.1-1.6,0.8-1.9c30.1-11.6,42.6,5.2,43.1,5.9c0.5,0.7,0.3,1.6-0.3,2
			C331,266.1,330.7,266.2,330.5,266.2z"/>
	</g>
	<g id="XMLID_200_">
		<path id="XMLID_289_" class="st14" d="M349.3,357.3c-0.2,0-0.5-0.1-0.7-0.2c-0.7-0.4-1-1.3-0.6-2l0,0c0.2-0.4,5.8-10.7-2.3-22.9
			c-0.4-0.7-0.3-1.6,0.4-2c0.7-0.4,1.6-0.3,2,0.4c9.2,13.8,2.7,25.5,2.4,26C350.3,357.1,349.8,357.3,349.3,357.3z"/>
	</g>
	<g id="XMLID_199_">
		<path id="XMLID_288_" class="st14" d="M181.9,401.8c-6.4,0-12.8-2.2-17.8-8.7c-0.5-0.6-0.4-1.6,0.3-2.1c0.6-0.5,1.6-0.4,2.1,0.3
			c14.2,18.1,40.8-1.9,41.1-2.1c0.6-0.5,1.6-0.4,2.1,0.3c0.5,0.6,0.4,1.6-0.3,2.1C209.1,391.6,195.6,401.8,181.9,401.8z"/>
	</g>
	<g id="XMLID_198_">
		<path id="XMLID_286_" class="st14" d="M142.4,370.9c-0.3,0-0.6,0-0.9,0c-0.8,0-1.4-0.7-1.4-1.5c0-0.8,0.7-1.4,1.5-1.4
			c0.3,0,0.5,0,0.8,0c24.4,0,48.4-57.7,48.6-58.3c0.3-0.7,1.2-1.1,1.9-0.8c0.7,0.3,1.1,1.2,0.8,1.9
			C192.7,313.2,168.7,370.9,142.4,370.9z"/>
	</g>
	<g id="XMLID_287_">
		<path id="XMLID_197_" class="st14" d="M233.8,411.8c-2.2,0-4.3-0.2-6.2-0.5c-12.4-1.9-20.3-8.7-20.7-9c-0.9-0.8-1-2.2-0.2-3.1
			c0.8-0.9,2.2-1,3.1-0.2l0,0c0.1,0.1,7.4,6.3,18.6,8c14.9,2.2,29.3-4.5,42.8-19.8l1.1-1.2l1.5,0.6c0.3,0.1,26.6,11.1,50.7,1.2
			c13.7-5.6,24.2-16.9,31.1-33.5c2.1-5.1,5.5-18.6-8.7-33.9c-15.1-16.3-10.6-39.3-10.2-41.1c0.2-1.2,2.6-21-10-26
			c-11.6-4.6-28.4-7.8-55.4,8.4l-1.1,0.7l-1.1-0.7c-0.1,0-8.3-4.9-19.8-5.2c-15.4-0.4-29.3,7-41.2,22
			c-13.8,17.3-20.9,30.4-27.2,41.9c-7.4,13.6-13.3,24.3-26.7,36.2l-0.1,0.1c-1.5,1.2-13.9,10.6-23.5,10.5c0.5,4.3,2.4,13,8.7,16.8
			c5.6,3.3,13.6,2.3,23.8-3.1c1.1-0.6,2.4-0.1,3,0.9c0.6,1.1,0.1,2.4-0.9,3c-11.7,6.1-21.2,7.1-28.2,2.9
			c-10.7-6.4-11.1-22.4-11.1-23.1l0-3l2.9,0.8c6.5,1.8,18.4-6,22.6-9.2c12.8-11.4,18.5-21.8,25.7-35c6.4-11.7,13.6-24.9,27.6-42.5
			c16.1-20.2,33.4-24.1,45-23.7c10.1,0.3,17.7,3.7,20.6,5.1c21.9-12.8,39.9-15.3,58.2-8c16.2,6.4,12.9,29.8,12.7,30.8l0,0.1
			c0,0.2-4.7,22.4,9.1,37.3c16.4,17.7,11.4,34,9.5,38.6c-7.4,17.8-18.7,29.9-33.6,36c-22.7,9.3-46.4,1.6-52.6-0.7
			C258.8,407.5,244.6,411.8,233.8,411.8z"/>
	</g>
</g>
<g id="Right_Leg">
	<g id="XMLID_102_">
		<path id="XMLID_430_" class="st15" d="M317,446.3l-2.4,10.9l-6.2,11.8l-2.9,5.4l11.5,3.4h15.8l16.8-4.5l-3.1,10.3l3.9,14.8
			c0,0,1.8,6.9,2,8c0.2,1.1,0.5,18.3,0.5,18.3v11.9c0,0,5.4-2.4,6.5-3c1.1-0.7,11-11.3,11-11.3l5.3-26v-27.2l-3-14.9l-11.7-6.4
			l-14.8-1.5H317z"/>
	</g>
	<g id="XMLID_101_">
		<path id="XMLID_428_" class="st16" d="M313.7,460.2c0,0,12.1,11.9,41.7,10l-17.3,6.2h-15.9l-18.9-2L313.7,460.2z"/>
	</g>
	<g id="XMLID_100_">
		<path id="XMLID_426_" class="st16" d="M358,468.3c0,0-6.6,9.5-2.6,19.8c4,10.2,4.9,32.8,3.9,45.5l-6.5,3l-0.2-21.9l-3.6-19.7
			l-2.6-13.9l2.6-6.1L358,468.3z"/>
	</g>
	<g id="XMLID_87_">
		<path id="XMLID_424_" class="st17" d="M317,453.4c0,0,30.6-5.5,56.1,2.9c0,0-6.8-15.4-54.9-10.8
			C318.2,445.6,317.1,455.1,317,453.4z"/>
	</g>
	<g id="XMLID_84_">
		<polygon id="XMLID_422_" class="st18" points="351.2,537.1 349.1,547.7 352.9,558.3 401.6,527.2 392.8,521.3 385.2,519.4 
			375.3,521.1 368,524.7 362.3,531.8 		"/>
	</g>
	<g id="XMLID_82_">
		<path id="XMLID_420_" class="st19" d="M359.3,533.6c0,0,0.3,15.8,8.7,16.1l-15.2,8.6l-2.5-7l-0.5-7.6l1.3-6.6L359.3,533.6z"/>
	</g>
	<g id="XMLID_7_">
		<path id="XMLID_228_" class="st7" d="M348.2,540.1l0.7-3.5c0.1-0.2,5-23.9-1.5-39.5c-3.9-9.3-3.7-15.8-2.5-19.9
			c-20.4,5.7-39.4-1.5-40.3-1.8c-1.2-0.5-1.8-1.8-1.3-3c0.5-1.2,1.8-1.8,3-1.3l0,0c0.2,0.1,21.8,8.2,42.4,0l11.2-4.4l-8.8,8.2
			c-0.2,0.2-5.6,5.9,0.5,20.4c5.5,13.1,3.7,30.6,2.5,38.3c3.8-1.6,9.9-5.2,14-12.2c10.2-40.7,3.5-63,2.5-66.1
			c-9.4-9.7-40.8-8.7-52.2-7.5c-1.3,0.1-2.4-0.8-2.5-2c-0.1-1.3,0.8-2.4,2-2.5c1.8-0.2,43.9-4.6,56.4,9.3l0.3,0.3l0.2,0.4
			c0.4,1,9.3,23.9-2.2,69.6l-0.1,0.3l-0.2,0.3c-7.3,12.9-20.1,15.8-20.6,15.9L348.2,540.1z"/>
	</g>
	<g id="XMLID_5_">
		<path id="XMLID_227_" class="st7" d="M352.4,561.2l-1.3-1.4c-8.4-9.2-2.3-23.1-2-23.6c0.5-1.2,1.9-1.7,3-1.2
			c1.2,0.5,1.7,1.9,1.2,3c0,0.1-4.4,10.2,0.1,17.2l28.2-17.1l16.2-11.1c-15.2-12-27.7-0.2-28.2,0.4c-0.9,0.9-2.4,0.9-3.2,0
			s-0.9-2.3,0-3.2c0.2-0.2,17.3-16.6,36.7,1.4l2.1,2L384,542L352.4,561.2z"/>
	</g>
</g>
<g id="Left_Leg">
	<g id="XMLID_103_">
		<polygon id="XMLID_414_" class="st15" points="267.6,449.7 263.2,457.4 263.2,468.1 262.7,480 259.7,511.2 255,529.7 250,546.5 
			271,551.3 277.9,538.4 289.7,507.4 295.2,480 306.6,472.2 313.7,460.2 318.2,445.6 308,448.9 293.8,454.1 279,454.1 		"/>
	</g>
	<g id="XMLID_99_">
		<path id="XMLID_412_" class="st16" d="M272.6,452.4c0,0-6.2,10.7-3.2,22s5.6,27.8,0,42.3c-5.6,14.5-12.2,31.6-12.2,31.6l-7.2-1.8
			l7.2-20.2l2.5-15l3.2-23.8l-0.5-11l0.4-16.3l4.8-10.5L272.6,452.4z"/>
	</g>
	<g id="XMLID_86_">
		<path id="XMLID_410_" class="st17" d="M263.2,548.3c0,0,19.8-29.2,26.5-78.2c0,0,16.9,1.5,27.3-25.4v8.6l-8.6,15.6l-11.3,10.3
			l-7,30.7l-6.7,19.6l-10.7,21.6L263.2,548.3z"/>
	</g>
	<g id="XMLID_85_">
		<path id="XMLID_408_" class="st18" d="M274.4,552.4l-24.4-5.9l-6.6,4.8c0,0-1.1,4.5-1.1,5c0,0.6,8.8,6.9,8.8,6.9l14.8,10.5
			l17.4,5.1l3.8-4.8l-1.3-9.6l-4.6-8.1L274.4,552.4z"/>
	</g>
	<g id="XMLID_83_">
		<path id="XMLID_406_" class="st19" d="M257.2,548.3c0,0-5.6,11.1,6,23.5L250,560.4l-7.6-4.1l1.1-5l6.6-4.8L257.2,548.3z"/>
	</g>
	<g id="XMLID_10_">
		<path id="XMLID_260_" class="st7" d="M272.2,553.8l-26.9-5.7l1.1-2.6c0.2-0.4,16.4-38.8,14-65.4c-2.5-27.8,4.9-32.1,6.4-32.6
			l1.6,4.3c0,0,0.1,0,0.2-0.1c-0.1,0-5.8,3.6-3.6,28c2.2,24-9.6,55.8-13.3,65l18.2,3.8c4-7.5,21.4-41.8,23.1-68.8l0.1-1.7l1.7-0.4
			c0.7-0.2,17.5-4.4,21.1-36.7c0.1-1.3,1.3-2.2,2.5-2c1.3,0.1,2.2,1.3,2,2.5c-3.4,30.1-18,38.2-23,40.1
			c-2.6,31.2-23.5,69.1-24.4,70.7L272.2,553.8z"/>
	</g>
	<g id="XMLID_6_">
		<path id="XMLID_259_" class="st7" d="M284.6,581.7l-22.4-7.8l-22-14.3l-0.1-1.2c-0.6-12.2,7.6-14.1,7.9-14.1
			c1.2-0.3,2.5,0.5,2.7,1.8c0.3,1.2-0.5,2.4-1.7,2.7c-0.2,0.1-4.3,1.2-4.3,8.3l19.5,12.7l17.8,6.2c2-5.6,2.1-10.4,0.1-14.2
			c-3.4-6.4-11.4-8.2-11.5-8.2c-1.2-0.3-2-1.5-1.8-2.7c0.3-1.2,1.5-2,2.7-1.8c0.4,0.1,10.3,2.2,14.6,10.6c2.9,5.5,2.6,12.3-0.7,20.1
			L284.6,581.7z"/>
	</g>
</g>
<g id="Right_Arm">
	<g id="XMLID_249_">
		<g id="XMLID_97_">
			<polygon id="XMLID_400_" class="st20" points="308,370.9 314.4,377.1 319.8,390.3 320.8,401.4 332.8,405.7 344.9,407.9 
				365.3,399.4 373.8,391.8 367.5,378.1 350.6,382.6 331.7,382.6 			"/>
		</g>
		<g id="XMLID_88_">
			<polygon id="XMLID_398_" class="st21" points="380.5,358.4 370.3,361.3 368,375.3 373.8,391.8 383.5,394.7 388.1,389.4 
				396.7,379.5 396.7,370.9 396.7,361.3 387.2,354.5 379.5,354.2 			"/>
		</g>
		<g id="XMLID_81_">
			<path id="XMLID_396_" class="st22" d="M320,392.5c0,0,28.9,14.4,50.3-5.4l3.5,4.7l-14.8,11.6l-14,4.5l-14.4-2.2l-9.7-4.3
				L320,392.5z"/>
		</g>
		<g id="XMLID_13_">
			<path id="XMLID_256_" class="st7" d="M341.8,410.1c-6.1,0-12.7-1.7-19.5-6.2c-1.1-0.7-1.4-2.1-0.7-3.2c0.7-1.1,2.1-1.4,3.2-0.7
				c21.1,13.8,39.9-2.3,45.6-8c-3.2-3.1-4.5-8.4-5-12.9c-33.2,18.6-58.7-6.5-58.9-6.7c-0.9-0.9-0.9-2.4,0-3.2c0.9-0.9,2.4-0.9,3.2,0
				c1,1,23.8,23.2,54.2,5.5c1.2-0.7,2.6-0.7,3.8-0.1c1.2,0.6,2,1.8,2.2,3.2c0.6,6.2,2.4,10.6,5,11.8l2.7,1.3l-1.9,2.3
				C375.3,393.5,361,410.1,341.8,410.1z"/>
		</g>
		<g id="XMLID_11_">
			<path id="XMLID_255_" class="st7" d="M380.9,395.9c-3.1,0-6.2-1-8.2-2.1c-1.1-0.6-1.6-2-1-3.1s2-1.6,3.1-1
				c0.3,0.2,8.3,4.2,11.2-1.4l0.4-0.8l0.9-0.3c0.3-0.1,8.3-3.2,6.8-18.7c-0.5-4.9-2.1-8.4-4.8-10.3c-4-2.9-9.3-1.7-9.4-1.6
				c-1.2,0.3-2.5-0.5-2.8-1.7c-0.3-1.2,0.5-2.5,1.7-2.8c0.3-0.1,7.3-1.7,13.1,2.3c3.9,2.8,6.1,7.4,6.7,13.7
				c1.5,16.4-6.3,21.8-9.1,23.1C387.5,394.7,384.2,395.9,380.9,395.9z"/>
		</g>
		<g id="XMLID_230_">
			<path id="XMLID_254_" class="st7" d="M375.6,376.8c-1.2,0-2.2-0.9-2.3-2.1c-0.1-1.3,0.8-2.4,2-2.5c0.5-0.1,4.3-0.7,4.7-6.2
				c0.1-1.3,1.2-2.2,2.5-2.1c1.3,0.1,2.2,1.2,2.1,2.5c-0.7,7.6-6.1,10.1-8.8,10.4C375.7,376.7,375.7,376.8,375.6,376.8z"/>
		</g>
	</g>
	<g id="XMLID_12_">
		<path id="XMLID_257_" class="st7" d="M367.5,380.4c-1.1,0-2.1-0.8-2.3-1.9c-0.1-0.5-1.9-11.8,3.9-18.2c2.7-3.1,6.6-4.5,11.5-4.2
			c1.3,0.1,2.2,1.2,2.2,2.4s-1.1,2.2-2.4,2.2c-3.5-0.2-6.1,0.7-7.9,2.7c-3.6,4-3.2,11.7-2.8,14.4c0.2,1.3-0.6,2.4-1.9,2.6
			C367.8,380.4,367.6,380.4,367.5,380.4z"/>
	</g>
</g>
<g id="Flag">
	<g id="XMLID_79_">
		<polygon id="XMLID_385_" class="st23" points="331.7,155.8 312.8,170.4 293.2,180.4 273.1,186.5 247.2,189.5 243.6,192.5 
			245.1,196.4 260.7,206.7 292.5,223.9 320.8,236.8 347.8,243.7 353.2,243.7 		"/>
	</g>
	<g id="XMLID_78_">
		<path id="XMLID_383_" class="st24" d="M274.9,214.3c0,0,54.1,10.8,58.2-26.3l-6.9-27.9l-18.8,13.6l-15.3,8.2l-23,4.6L254,188
			l-10.4,1.8l0.8,4.6l6.1,5.6L274.9,214.3z"/>
	</g>
	<g id="XMLID_77_">
		<polygon id="XMLID_381_" class="st25" points="327.4,161.8 344.9,242.1 353.2,243.7 331.7,155.8 		"/>
	</g>
	<g id="XMLID_76_">
		<polygon id="XMLID_379_" class="st26" points="333.5,189.8 337.2,174.3 353.2,243.7 344.9,240.4 		"/>
	</g>
	<g id="XMLID_75_">
		<polygon id="XMLID_377_" class="st27" points="332.1,132.6 325.6,134.6 323.1,138.3 323.1,148.4 329.8,151.4 335.9,150.1 
			337.7,146.7 338.4,142 337.1,137.4 		"/>
	</g>
	<g id="XMLID_74_">
		<polygon id="XMLID_375_" class="st28" points="338.7,140 320.8,144.6 324.1,148.8 333.5,151.4 338.7,146.9 		"/>
	</g>
	<g id="XMLID_46_">
		<path id="XMLID_165_" class="st7" d="M442.2,601.2c-1,0-2-0.7-2.3-1.7c-52-188.3-109.5-444.5-110.1-447.1
			c-0.3-1.3,0.5-2.6,1.8-2.8c1.3-0.3,2.6,0.5,2.8,1.8c0.6,2.6,58.1,258.6,110.1,446.9c0.3,1.3-0.4,2.6-1.7,2.9
			C442.6,601.2,442.4,601.2,442.2,601.2z"/>
	</g>
	<g id="XMLID_45_">
		<path id="XMLID_164_" class="st7" d="M353.3,246.1c-0.1,0-0.3,0-0.4,0c-46.5-7.8-88.3-33.2-109.1-47.7c-2.2-1.6-3.2-4.2-2.4-6.8
			c0.8-2.6,3.1-4.4,5.8-4.4c57-1.6,82.9-34.4,83.1-34.7c0.8-1,2.3-1.2,3.3-0.4c1,0.8,1.2,2.3,0.4,3.3c-1.1,1.4-27.4,35-86.8,36.6
			c-1,0-1.3,0.7-1.4,1c-0.1,0.3-0.2,1,0.6,1.6c16.5,11.5,59.9,39,107.2,46.9c1.3,0.2,2.2,1.4,2,2.7
			C355.4,245.3,354.4,246.1,353.3,246.1z"/>
	</g>
	<g id="XMLID_171_">
		<g id="XMLID_44_">
			<path id="XMLID_163_" class="st7" d="M305.1,218.9c-0.6,0-1.2-0.4-1.4-1.1l-7.4-27.1l-4.1,10.9c-0.3,0.8-1.1,1.1-1.9,0.9
				c-0.8-0.3-1.1-1.1-0.9-1.9l4.7-12.5c0.4-1,1.3-1.6,2.4-1.6c1,0,1.9,0.8,2.2,1.8l7.9,28.8c0.2,0.8-0.2,1.6-1,1.8
				C305.4,218.9,305.2,218.9,305.1,218.9z"/>
		</g>
		<g id="XMLID_43_">
			<path id="XMLID_162_" class="st7" d="M298,220.9c-0.6,0-1.2-0.4-1.4-1.1c-0.2-0.8,0.2-1.6,1-1.8l14.7-4c0.8-0.2,1.6,0.2,1.8,1
				c0.2,0.8-0.2,1.6-1,1.8l-14.7,4C298.3,220.9,298.2,220.9,298,220.9z"/>
		</g>
		<g id="XMLID_172_">
			<g id="XMLID_213_">
				<g id="XMLID_42_">
					<path id="XMLID_161_" class="st7" d="M313.3,210.2c-0.6,0-1.2-0.4-1.4-1.1l-5.3-19.5c-0.2-0.8,0.2-1.6,1-1.8
						c0.8-0.2,1.6,0.2,1.8,1l5.3,19.5c0.2,0.8-0.2,1.6-1,1.8C313.6,210.2,313.5,210.2,313.3,210.2z"/>
				</g>
				<g id="XMLID_41_">
					<path id="XMLID_160_" class="st7" d="M323.5,207.4c-0.6,0-1.2-0.4-1.4-1.1l-5.3-19.5c-0.2-0.8,0.2-1.6,1-1.8
						c0.8-0.2,1.6,0.2,1.8,1l5.3,19.5c0.2,0.8-0.2,1.6-1,1.8C323.8,207.4,323.6,207.4,323.5,207.4z"/>
				</g>
			</g>
			<g id="XMLID_173_">
				<g id="XMLID_40_">
					<path id="XMLID_159_" class="st7" d="M304.6,196.6c-0.6,0-1.2-0.4-1.4-1.1c-0.2-0.8,0.2-1.6,1-1.8l19.5-5.3
						c0.8-0.2,1.6,0.2,1.8,1c0.2,0.8-0.2,1.6-1,1.8l-19.5,5.3C304.9,196.6,304.8,196.6,304.6,196.6z"/>
				</g>
				<g id="XMLID_39_">
					<path id="XMLID_158_" class="st7" d="M307.4,206.8c-0.6,0-1.2-0.4-1.4-1.1c-0.2-0.8,0.2-1.6,1-1.8l19.5-5.3
						c0.8-0.2,1.6,0.2,1.8,1s-0.2,1.6-1,1.8l-19.5,5.3C307.7,206.8,307.5,206.8,307.4,206.8z"/>
				</g>
			</g>
		</g>
	</g>
	<g id="XMLID_28_">
		<path id="XMLID_166_" class="st7" d="M344.9,243.6c-0.7,0-1.3-0.5-1.4-1.2l-18-82.7c-0.2-0.8,0.3-1.6,1.1-1.8
			c0.8-0.2,1.6,0.3,1.8,1.1l18,82.7c0.2,0.8-0.3,1.6-1.1,1.8C345.1,243.6,345,243.6,344.9,243.6z"/>
	</g>
	<g id="XMLID_27_">
		<path id="XMLID_154_" class="st7" d="M329.8,153.8c-6.2,0-11.3-5.1-11.3-11.3s5.1-11.3,11.3-11.3s11.3,5.1,11.3,11.3
			S336,153.8,329.8,153.8z M329.8,135.9c-3.6,0-6.6,2.9-6.6,6.6s2.9,6.6,6.6,6.6s6.6-2.9,6.6-6.6S333.4,135.9,329.8,135.9z"/>
	</g>
	<g id="XMLID_26_">
		<circle id="XMLID_345_" class="st7" cx="327.4" cy="129.7" r="4.3"/>
	</g>
	<g id="XMLID_25_">
		<path id="XMLID_153_" class="st7" d="M320.8,146.1c-0.7,0-1.2-0.4-1.4-1.1c-0.2-0.8,0.3-1.6,1-1.8l17.5-4.6c0.8-0.2,1.6,0.3,1.8,1
			c0.2,0.8-0.3,1.6-1,1.8l-17.5,4.6C321.1,146.1,321,146.1,320.8,146.1z"/>
	</g>
</g>
<g id="Body">
	<g id="XMLID_98_">
		<path id="XMLID_341_" class="st29" d="M257.2,383.2l5.8,22.5l3.1,18.8l1.5,25.2c0,0,27.6,13,50.6-8.4l5.3-24.2l-2.7-15.7
			l-4.3-16.6l-8.6-13.9l-18.2-0.6l-21.5,6.4L257.2,383.2z"/>
	</g>
	<g id="XMLID_14_">
		<path id="XMLID_250_" class="st7" d="M287.6,456.4c-12,0-20.9-4.6-21.1-4.6l-1.2-0.7l0-1.4c0.5-32.8-10.1-65.4-10.3-65.7l-0.5-1.6
			l1.3-1c23.2-17.5,51.4-12.9,52.5-12.7l0.6,0.1l0.5,0.4c25,20.2,11.5,70.6,11,72.8l-0.2,0.6l-0.5,0.4
			C308.9,453.4,297.3,456.4,287.6,456.4z M269.9,448.2c5.4,2.4,26.9,10.1,46.2-8.2c1.4-5.7,11.6-49.5-9.1-67
			c-4-0.5-27.5-2.9-47.1,11C262,391,270,419.4,269.9,448.2z"/>
	</g>
</g>
<g id="Neck">
	<g id="XMLID_89_">
		<polygon id="XMLID_335_" class="st21" points="274.9,357.3 282,375.3 290.8,378.1 298.3,372.8 299.8,367.7 295.2,349.4 		"/>
	</g>
	<g id="XMLID_2_">
		<path id="XMLID_248_" class="st7" d="M290.8,379c-6.4,0-12.4-5-12.6-5.3l-0.5-0.4l-4.9-15.3c-0.4-1.2,0.3-2.5,1.5-2.9
			c1.2-0.4,2.5,0.3,2.9,1.5l4.5,14.1c2.1,1.6,6.8,4.5,10.7,3.6c2.1-0.5,3.8-2,5.1-4.7l-4.4-19.7c-0.3-1.2,0.5-2.5,1.7-2.7
			c1.2-0.3,2.5,0.5,2.7,1.7l4.7,21.2l-0.3,0.7c-2,4.5-4.9,7.1-8.6,8C292.4,378.9,291.6,379,290.8,379z"/>
	</g>
</g>
<g id="Head">
	<g id="XMLID_184_">
		<polygon id="XMLID_196_" class="st30" points="319.9,286.8 334.4,325.5 334.1,335.3 325.4,342.9 294,354.6 253.1,370 241.7,373 
			240.1,372.4 233.2,368.2 218.8,332.9 225.1,323.7 230,314.5 247.3,311.2 266,300.6 277.7,276.9 291.5,284.2 307.8,286.7 		"/>
		<polygon id="XMLID_195_" class="st30" points="227.5,355.4 220,356.7 211.9,351.4 210.6,345.7 212.4,337.9 218.8,332.9 		"/>
		<path id="XMLID_194_" class="st31" d="M330.1,318.1c0,0,3.4,12.1-6.8,16.6c-10.2,4.5-74.7,27.9-74.7,27.9s-13.8,3.4-19.2-3.6
			l3.8,9.3l10.3,4.6l9.6-2.8l75.9-28.7l3.3-2.9l2.8-6.2l0.2-4.3L330.1,318.1z"/>
		<path id="XMLID_193_" class="st31" d="M282.6,280.1c0,0-7.5,34-46.8,40.5c0,0-3.1,11.6-12.8,17.7l-4.5-8l11.6-15.8l16-1.4
			l15.9-10.3l10.3-14.9l4-10.9L282.6,280.1z"/>
		<path id="XMLID_192_" class="st31" d="M321.4,290.7c0,0-25.3,5.6-47.2-5.5l3.5-8.3l11.6,6.8l16.9,2.8l10.7-0.7L321.4,290.7z"/>
		<path id="XMLID_191_" class="st32" d="M300.6,316.8c0,0-2.3-7.1-8.8-12l4.6,18.7l2.9-2.5L300.6,316.8z"/>
		
			<ellipse id="XMLID_190_" transform="matrix(-0.976 0.2179 -0.2179 -0.976 597.6054 587.1033)" class="st32" cx="266.4" cy="326.5" rx="5" ry="2.7"/>
		
			<ellipse id="XMLID_189_" transform="matrix(-0.9603 0.2788 -0.2788 -0.9603 706.1989 521.8992)" class="st32" cx="316" cy="311.2" rx="5" ry="2.7"/>
		<path id="XMLID_188_" class="st31" d="M298.9,338.8c0,0-27,18.4-39.1-4.1l6.2,3.4l14.2,2.5l12.3-1.1L298.9,338.8z"/>
		<g id="XMLID_187_">
			<path id="XMLID_285_" class="st14" d="M202,337.7c-0.8,0-1.6,0-2.5-0.1c-1.2-0.1-2.1-1.1-2.1-2.4c0.1-1.2,1.1-2.2,2.4-2.1
				c21.3,1.4,27.9-18.5,28.1-19.3l0.5-1.5l1.6,0c34.3-0.2,45.4-35.6,45.5-36l0.9-2.9l2.5,1.8c25,17.7,46.3,5.4,46.5,5.3
				c1.1-0.6,2.4-0.3,3,0.8c0.6,1.1,0.3,2.4-0.8,3c-0.9,0.6-22.6,13.1-48.9-3.9c-1.4,3.6-4.4,10.1-9.6,16.7
				c-9.7,12.4-22.7,19.2-37.6,19.7C229.5,321.8,221.3,337.7,202,337.7z"/>
		</g>
		<g id="XMLID_186_">
			<path id="XMLID_284_" class="st14" d="M222.5,358.6c-2.2,0-4.4-0.5-6.4-1.5c-3.4-1.7-5.9-4.6-7.1-8.3c-1.2-3.6-0.9-7.5,0.8-10.9
				c1.7-3.4,4.6-5.9,8.3-7.1c1.2-0.4,2.4,0.2,2.8,1.4c0.4,1.2-0.2,2.4-1.4,2.8c-2.5,0.8-4.5,2.6-5.7,4.9c-1.2,2.3-1.4,5-0.5,7.5
				c1.7,5.1,7.3,7.9,12.4,6.2c1.2-0.4,2.4,0.2,2.8,1.4c0.4,1.2-0.2,2.4-1.4,2.8C225.6,358.4,224,358.6,222.5,358.6z"/>
		</g>
		<g id="XMLID_185_">
			<path id="XMLID_283_" class="st14" d="M215.7,347.2c-0.1,0-0.1,0-0.2,0c-0.8-0.1-1.4-0.8-1.3-1.6c0.6-5.6,6.5-7.8,6.7-7.9
				c0.8-0.3,1.6,0.1,1.9,0.9c0.3,0.8-0.1,1.6-0.9,1.9c-0.1,0-4.4,1.7-4.8,5.4C217,346.7,216.4,347.2,215.7,347.2z"/>
		</g>
	</g>
	<g id="XMLID_182_">
		<path id="XMLID_183_" class="st14" d="M243.2,375c-2.2,0-4.3-0.5-6.4-1.4c-3.7-1.7-6.6-4.8-8-8.6l-12.7-33.8
			c-0.4-1.1,0.2-2.4,1.3-2.9c1.1-0.4,2.4,0.2,2.9,1.3l12.7,33.8c1,2.7,3.1,4.9,5.7,6.1c2.7,1.2,5.6,1.3,8.4,0.3l78.9-29.5
			c2.7-1,4.9-3.1,6.1-5.7c1.2-2.7,1.3-5.6,0.3-8.4L317.2,286c-0.4-1.1,0.2-2.4,1.3-2.9c1.1-0.4,2.4,0.2,2.9,1.3l15.1,40.3
			c1.4,3.8,1.3,8-0.4,11.8c-1.7,3.7-4.8,6.6-8.6,8L248.5,374C246.8,374.7,245,375,243.2,375z"/>
	</g>
</g>
<g id="Face">
	<g id="XMLID_181_">
		<circle id="XMLID_373_" class="st14" cx="307.8" cy="303.3" r="4.8"/>
	</g>
	<g id="XMLID_180_">
		<circle id="XMLID_371_" class="st14" cx="269.5" cy="315.7" r="4.8"/>
	</g>
	<g id="XMLID_178_">
		<path id="XMLID_179_" class="st14" d="M295.2,326.3c-3,0-5.9-2-7.1-5.2c-0.4-1.1,0.2-2.4,1.3-2.8c1.1-0.4,2.4,0.2,2.8,1.3
			c0.6,1.7,2.3,2.7,3.6,2.2c0.6-0.2,1.1-0.7,1.4-1.4c0.3-0.8,0.3-1.7,0-2.6c-0.4-1.1,0.2-2.4,1.3-2.8c1.1-0.4,2.4,0.2,2.8,1.3
			c0.7,1.9,0.7,3.9,0,5.7c-0.7,1.9-2.2,3.3-4,4C296.7,326.2,295.9,326.3,295.2,326.3z"/>
	</g>
	<g id="XMLID_176_">
		<path id="XMLID_177_" class="st14" d="M278.3,342.8c-6.9,0-14-1.6-18.3-6.9c-0.8-1-0.6-2.4,0.3-3.1c1-0.8,2.4-0.6,3.1,0.3
			c8.5,10.6,33.3,2.1,33.6,2c1.2-0.4,2.4,0.2,2.8,1.4c0.4,1.2-0.2,2.4-1.4,2.8C297.8,339.5,288.2,342.8,278.3,342.8z"/>
	</g>
</g>
<g id="Left_Arm">
	<g id="XMLID_235_">
		<polygon id="XMLID_96_" class="st33" points="239.3,370.5 233.3,371.6 230.6,375.7 230.6,382.6 238.5,387.1 232,418.3 
			228.6,426.5 227.8,436.2 228.6,441.4 233.5,449.1 238.4,451.3 233.5,457 237.8,463.9 240.2,466.4 238.2,474.7 230.4,474.4 
			224.8,475.1 220.4,479.1 216.7,479.5 211.1,482.8 214.5,488.4 269.4,502.2 275,498.8 274.7,495.6 268.6,490.9 262.9,485.6 
			257.2,479.9 257.2,470.5 264.7,468.1 267.4,463.9 266.1,458.9 277.9,457 281.3,452.4 285.9,441.6 295.9,402.8 304.6,401.4 
			308.4,395.6 307.4,387.8 302.4,386.2 		"/>
		<path id="XMLID_95_" class="st34" d="M265.9,391.9c0,0,13.4,32.6-10.9,60.5c0,0,3.2,7.7-2.7,14.9l-3.8,18.4c0,0,4.1,3.4,0,11.3
			l20.9,5.2l4.1-0.9l1.2-5.6l-6.1-4.7l-5.7-5.3l-5.7-5.7v-9.4l7.4-2.4l2.8-4.2l-1.3-5l11.8-1.9l6.6-11.6l12.2-45.9L265.9,391.9z"/>
		<path id="XMLID_94_" class="st34" d="M265.9,391.9c0,0,7.4,1.4,9.6-12.4l23.5,5.9l8.5,2.4l0.9,4.8l-3.7,8.8l-8-2L265.9,391.9z"/>
		<path id="XMLID_93_" class="st35" d="M257.2,375c0,0-12.8,3.9-4.9,15.5c0,0-21.8,50-9.9,61.9l-8.8-3.3l-4.9-7.6l0-14.9l6.7-23.8
			l3.1-15.7l-7.9-4.5v-6.9l2.7-4.1l5.9-1.2L257.2,375z"/>
		<path id="XMLID_92_" class="st35" d="M232,492.8c0,0-6.5-6.3,3.3-8.7c0,0-4.7-7.3,2.8-9.5l-7.8-0.3l-10,4.7l-3.7,0.4l-5.6,3.4
			l3.4,5.6L232,492.8z"/>
		<g id="XMLID_143_">
			<g id="XMLID_150_">
				<g id="XMLID_20_">
					<path id="XMLID_245_" class="st7" d="M220.4,481.4c-0.4,0-0.8-0.1-1.1-0.3c-1.1-0.6-1.5-2-0.9-3.1c3.5-6.4,13.5-6.2,18-5.8
						l1.3-5c-3.7-3.6-5.4-7.1-5-10.6c0.2-1.8,0.8-3.2,1.6-4.3c-2.5-1.3-4.5-3.1-6-5.6c-5-8.3-2-20.4-1.9-20.9l9.8-39.2
						c0.3-1.2,1.6-2,2.8-1.7c1.2,0.3,2,1.6,1.7,2.8l-9.8,39.2c0,0.1-2.6,10.8,1.4,17.5c1.5,2.5,3.7,4.1,6.7,4.8l5.4,1.3l-4.8,2.8
						c0,0-2.2,1.4-2.4,3.7c-0.2,2.2,1.4,4.8,4.5,7.6l1,0.9l-2.9,11.7l-2.1-0.3c-3.2-0.5-13-1-15.4,3.2
						C222,480.9,221.2,481.4,220.4,481.4z"/>
				</g>
				<g id="XMLID_19_">
					<path id="XMLID_244_" class="st7" d="M268.6,493.4c-1.3,0-2.3-1-2.3-2.3c-0.1-4.9-8.9-9-12.1-10.1l-2-0.7l2.9-11.7l1.3-0.3
						c4.1-1,6.8-2.6,7.6-4.6c0.9-2.1-0.4-4.3-0.4-4.4l-2.9-4.8l5.4,1.3c3,0.8,5.7,0.4,8.2-1.1c6.7-4,9.4-14.7,9.4-14.8l9.8-39.2
						c0.3-1.2,1.6-2,2.8-1.7c1.2,0.3,2,1.6,1.7,2.8l-9.8,39.2c-0.1,0.5-3.2,12.6-11.5,17.6c-2.5,1.5-5.1,2.2-7.9,2.1
						c0.2,1.4,0.1,2.9-0.6,4.6c-1.3,3.2-4.5,5.5-9.4,7l-1.3,5c4.2,1.8,13.1,6.3,13.2,13.6C270.9,492.3,269.9,493.4,268.6,493.4
						C268.6,493.4,268.6,493.4,268.6,493.4z"/>
				</g>
			</g>
			<g id="XMLID_148_">
				<g id="XMLID_18_">
					<path id="XMLID_241_" class="st7" d="M270.6,504.7c-0.6,0-1.1-0.1-1.7-0.2l-55-13.7c-1.8-0.5-3.3-1.6-4.3-3.2
						c-1-1.6-1.2-3.5-0.8-5.3s1.6-3.3,3.2-4.3s3.5-1.2,5.3-0.8l55,13.7c1.8,0.5,3.3,1.6,4.3,3.2c1,1.6,1.2,3.5,0.8,5.3
						C276.5,502.6,273.7,504.7,270.6,504.7z M270,499.8c1.2,0.3,2.4-0.4,2.7-1.6c0.1-0.6,0.1-1.2-0.3-1.7c-0.3-0.5-0.8-0.9-1.4-1
						l-55-13.7c-0.6-0.1-1.2-0.1-1.7,0.3c-0.5,0.3-0.9,0.8-1,1.4c-0.1,0.6-0.1,1.2,0.3,1.7c0.3,0.5,0.8,0.9,1.4,1L270,499.8z"/>
				</g>
			</g>
			<g id="XMLID_146_">
				<g id="XMLID_17_">
					<path id="XMLID_238_" class="st7" d="M301.2,402.8c-0.8,0-1.5-0.1-2.3-0.3h0l-63.7-15.9c-2.4-0.6-4.5-2.1-5.8-4.3
						c-1.3-2.2-1.7-4.7-1.1-7.2c0.6-2.4,2.1-4.5,4.3-5.8c2.2-1.3,4.7-1.7,7.2-1.1l63.7,15.9c5.1,1.3,8.1,6.4,6.9,11.5
						C309.3,399.9,305.5,402.8,301.2,402.8z M300.1,398.1c2.6,0.6,5.3-0.9,5.9-3.5c0.6-2.6-0.9-5.3-3.5-5.9l-63.7-15.9
						c-1.3-0.3-2.6-0.1-3.7,0.5s-1.9,1.7-2.2,3c-0.3,1.3-0.1,2.6,0.5,3.7c0.7,1.1,1.7,1.9,3,2.2L300.1,398.1L300.1,398.1z"/>
				</g>
			</g>
			<g id="XMLID_16_">
				<path id="XMLID_237_" class="st7" d="M243.2,407.2c-0.1,0-0.2,0-0.4,0c-0.8-0.2-1.3-1-1.1-1.8l3.3-13.1c0.2-0.8,1-1.3,1.8-1.1
					c0.8,0.2,1.3,1,1.1,1.8l-3.3,13.1C244.5,406.7,243.9,407.2,243.2,407.2z"/>
			</g>
			<g id="XMLID_15_">
				<path id="XMLID_236_" class="st7" d="M277.9,388.7c-0.1,0-0.2,0-0.4,0l-37.1-9.3c-0.8-0.2-1.3-1-1.1-1.8c0.2-0.8,1-1.3,1.8-1.1
					l37.1,9.3c0.8,0.2,1.3,1,1.1,1.8C279.1,388.2,278.5,388.7,277.9,388.7z"/>
			</g>
		</g>
	</g>
	<g id="XMLID_229_">
		<g id="XMLID_91_">
			<path id="XMLID_231_" class="st20" d="M235,391.9c0,0-25.9-1-35.9,32.6c0,0,24.8,34.1,68.3,15.1l-1.3-15.1l-12.6,2.1l-18.2-5.7
				l-6.7-3.7L235,391.9z"/>
		</g>
		<g id="XMLID_90_">
			<polygon id="XMLID_266_" class="st21" points="281.3,418.3 277.9,414.9 266.1,424.5 267.4,439.6 281.3,443.2 295.2,436.3 
				298.3,426.5 295.9,417.1 289.7,410.1 			"/>
		</g>
		<g id="XMLID_80_">
			<path id="XMLID_264_" class="st22" d="M201.4,418.4c0,0,20.3,24.2,65.3,13.4l0.7,7.8c0,0-43.2,17-68.3-15.1L201.4,418.4z"/>
		</g>
		<g id="XMLID_4_">
			<path id="XMLID_234_" class="st7" d="M240.5,446.6c-12,0-21-3.1-27.2-6.4c-11.2-6.1-16-14.2-16.2-14.5l-0.5-0.8l0.3-0.9
				c0.1-0.4,10.6-35.6,40.3-33.5c1.3,0.1,2.2,1.2,2.1,2.4c-0.1,1.3-1.2,2.2-2.4,2.1c-23.4-1.6-33.5,24-35.3,29.3
				c3.2,4.7,20.9,26.9,63.6,13.8c0.2-3.4,0.1-8.1-0.6-10.9c-6.5,0.9-27.1,2.6-39.6-11.3c-0.8-0.9-0.8-2.4,0.2-3.2
				c0.9-0.8,2.4-0.8,3.2,0.2c12.8,14.3,36.9,9.5,37.2,9.5l1.7-0.3l0.8,1.5c2.4,4.4,1.7,15.2,1.6,16.4l-0.1,1.5l-1.5,0.5
				C257.6,445.2,248.4,446.6,240.5,446.6z"/>
		</g>
		<g id="XMLID_9_">
			<path id="XMLID_233_" class="st7" d="M266.1,426.8c-0.4,0-0.7-0.1-1-0.3c-1.1-0.6-1.6-2-1-3.1c0.5-1,5.3-10,12.1-10.5
				c3.3-0.3,6.3,1.4,9,4.9c0.8,1,0.6,2.5-0.5,3.2c-1,0.8-2.5,0.6-3.2-0.5c-1.6-2.2-3.3-3.3-4.9-3.1c-3.7,0.3-7.4,6.1-8.4,8
				C267.7,426.3,266.9,426.8,266.1,426.8z"/>
		</g>
		<g id="XMLID_106_">
			<path id="XMLID_232_" class="st7" d="M277.2,445.4c-5.2,0-9.4-2.2-11.4-4.1c-0.9-0.9-1-2.3-0.2-3.2c0.8-0.9,2.3-1,3.2-0.2
				c0.3,0.3,6.9,5.9,16,0.7l0.3-0.2l0.4-0.1c0.2,0,5-1.2,7.4-5.9c2.3-4.6,1.7-11.1-1.9-19.3c-0.3-0.8-0.6-0.9-0.6-0.9
				c-0.8-0.1-3.4,2.3-5.2,5.3c-0.7,1.1-2.1,1.4-3.2,0.7c-1.1-0.7-1.4-2.1-0.7-3.2c1.1-1.8,5.2-7.7,9.5-7.4c1.3,0.1,3.2,0.8,4.4,3.6
				c4.2,9.6,4.8,17.4,1.8,23.3c-3,5.9-8.6,7.7-10.1,8.2C283.5,444.7,280.2,445.4,277.2,445.4z"/>
		</g>
	</g>
</g>
</svg>
